<svg width="20" height="18" viewBox="0 0 20 18" fill="none" xmlns="http://www.w3.org/2000/svg">
<g id="fi-rr-home" clip-path="url(#clip0_137_345)">
<path id="Vector" d="M19.2675 6.80183L12.9467 1.11233C12.1644 0.410325 11.1047 0.0161133 10 0.0161133C8.89529 0.0161133 7.83564 0.410325 7.05334 1.11233L0.73251 6.80183C0.499531 7.01017 0.314818 7.25806 0.189079 7.53112C0.0633394 7.80419 -0.000925334 8.097 1.00662e-05 8.39258V15.7553C1.00662e-05 16.3521 0.263402 16.9244 0.732243 17.3463C1.20108 17.7683 1.83697 18.0053 2.50001 18.0053H17.5C18.1631 18.0053 18.7989 17.7683 19.2678 17.3463C19.7366 16.9244 20 16.3521 20 15.7553V8.39258C20.0009 8.097 19.9367 7.80419 19.8109 7.53112C19.6852 7.25806 19.5005 7.01017 19.2675 6.80183ZM12.5 16.5053H7.50001V13.5548C7.50001 12.9581 7.7634 12.3858 8.23224 11.9638C8.70109 11.5419 9.33697 11.3048 10 11.3048C10.6631 11.3048 11.2989 11.5419 11.7678 11.9638C12.2366 12.3858 12.5 12.9581 12.5 13.5548V16.5053ZM18.3333 15.7553C18.3333 15.9542 18.2455 16.145 18.0893 16.2857C17.933 16.4263 17.721 16.5053 17.5 16.5053H14.1667V13.5548C14.1667 12.5603 13.7277 11.6064 12.9463 10.9032C12.1649 10.1999 11.1051 9.80483 10 9.80483C8.89494 9.80483 7.83513 10.1999 7.05373 10.9032C6.27233 11.6064 5.83334 12.5603 5.83334 13.5548V16.5053H2.50001C2.279 16.5053 2.06703 16.4263 1.91075 16.2857C1.75447 16.145 1.66668 15.9542 1.66668 15.7553V8.39258C1.66745 8.19382 1.75517 8.00332 1.91084 7.86233L8.23168 2.17508C8.70143 1.75428 9.33723 1.51804 10 1.51804C10.6628 1.51804 11.2986 1.75428 11.7683 2.17508L18.0892 7.86458C18.2442 8.00502 18.3319 8.1946 18.3333 8.39258V15.7553Z" fill="#0029FF"/>
</g>
<defs>
<clipPath id="clip0_137_345">
<rect width="20" height="18" fill="white"/>
</clipPath>
</defs>
</svg>
