<svg width="344" height="116" viewBox="0 0 344 116" fill="none" xmlns="http://www.w3.org/2000/svg">
<g filter="url(#filter0_d_0_1)">
<rect x="4" width="336" height="108" rx="25" fill="url(#paint0_linear_0_1)"/>
</g>
<path d="M23.948 56.11C23.4713 56.11 23.0387 55.9927 22.65 55.758C22.2613 55.516 21.9533 55.1897 21.726 54.779C21.506 54.3683 21.396 53.9063 21.396 53.393C21.396 52.8797 21.506 52.4177 21.726 52.007C21.9533 51.5963 22.2577 51.27 22.639 51.028C23.0277 50.786 23.464 50.665 23.948 50.665C24.344 50.665 24.696 50.7493 25.004 50.918C25.3193 51.0793 25.5723 51.3067 25.763 51.6C25.9537 51.886 26.06 52.2197 26.082 52.601V54.174C26.06 54.548 25.9537 54.8817 25.763 55.175C25.5797 55.4683 25.3303 55.6993 25.015 55.868C24.707 56.0293 24.3513 56.11 23.948 56.11ZM24.113 55.175C24.6043 55.175 25.0003 55.01 25.301 54.68C25.6017 54.3427 25.752 53.9137 25.752 53.393C25.752 53.0337 25.6823 52.722 25.543 52.458C25.411 52.1867 25.2203 51.9777 24.971 51.831C24.7217 51.677 24.432 51.6 24.102 51.6C23.772 51.6 23.4787 51.677 23.222 51.831C22.9727 51.985 22.7747 52.1977 22.628 52.469C22.4887 52.733 22.419 53.0373 22.419 53.382C22.419 53.734 22.4887 54.0457 22.628 54.317C22.7747 54.581 22.9763 54.79 23.233 54.944C23.4897 55.098 23.783 55.175 24.113 55.175ZM25.686 56V54.592L25.873 53.316L25.686 52.051V50.775H26.687V56H25.686ZM30.5153 56.11C30.002 56.11 29.5363 55.989 29.1183 55.747C28.7077 55.505 28.3813 55.1787 28.1393 54.768C27.9047 54.35 27.7873 53.888 27.7873 53.382C27.7873 52.8687 27.9047 52.4067 28.1393 51.996C28.3813 51.5853 28.7077 51.2627 29.1183 51.028C29.5363 50.786 30.002 50.665 30.5153 50.665C30.9187 50.665 31.2927 50.742 31.6373 50.896C31.982 51.0427 32.279 51.259 32.5283 51.545L31.8683 52.205C31.707 52.0143 31.509 51.8713 31.2743 51.776C31.047 51.6733 30.794 51.622 30.5153 51.622C30.1853 51.622 29.892 51.699 29.6353 51.853C29.3787 51.9997 29.177 52.205 29.0303 52.469C28.8837 52.733 28.8103 53.0373 28.8103 53.382C28.8103 53.7267 28.8837 54.031 29.0303 54.295C29.177 54.559 29.3787 54.768 29.6353 54.922C29.892 55.076 30.1853 55.153 30.5153 55.153C30.794 55.153 31.047 55.1053 31.2743 55.01C31.509 54.9073 31.7107 54.7607 31.8793 54.57L32.5283 55.23C32.2863 55.5087 31.9893 55.725 31.6373 55.879C31.2927 56.033 30.9187 56.11 30.5153 56.11ZM35.8228 56.11C35.3021 56.11 34.8328 55.9927 34.4148 55.758C33.9968 55.516 33.6668 55.1897 33.4248 54.779C33.1828 54.3683 33.0618 53.9027 33.0618 53.382C33.0618 52.8687 33.1791 52.4067 33.4138 51.996C33.6558 51.5853 33.9784 51.2627 34.3818 51.028C34.7924 50.786 35.2508 50.665 35.7568 50.665C36.2408 50.665 36.6661 50.775 37.0328 50.995C37.4068 51.215 37.6964 51.5193 37.9018 51.908C38.1144 52.2967 38.2208 52.7367 38.2208 53.228C38.2208 53.3013 38.2171 53.382 38.2098 53.47C38.2024 53.5507 38.1878 53.646 38.1658 53.756H33.7548V52.931H37.6378L37.2748 53.25C37.2748 52.898 37.2124 52.601 37.0878 52.359C36.9631 52.1097 36.7871 51.919 36.5598 51.787C36.3324 51.6477 36.0574 51.578 35.7348 51.578C35.3974 51.578 35.1004 51.6513 34.8438 51.798C34.5871 51.9447 34.3891 52.15 34.2498 52.414C34.1104 52.678 34.0408 52.9897 34.0408 53.349C34.0408 53.7157 34.1141 54.0383 34.2608 54.317C34.4074 54.5883 34.6164 54.801 34.8878 54.955C35.1591 55.1017 35.4708 55.175 35.8228 55.175C36.1161 55.175 36.3838 55.1237 36.6258 55.021C36.8751 54.9183 37.0878 54.7643 37.2638 54.559L37.9018 55.208C37.6524 55.5013 37.3444 55.725 36.9778 55.879C36.6184 56.033 36.2334 56.11 35.8228 56.11ZM40.9612 56.11C40.6679 56.11 40.3892 56.0733 40.1252 56C39.8686 55.9193 39.6302 55.8093 39.4102 55.67C39.1902 55.5233 38.9996 55.351 38.8382 55.153L39.4762 54.515C39.6669 54.7497 39.8869 54.9257 40.1362 55.043C40.3856 55.153 40.6642 55.208 40.9722 55.208C41.2802 55.208 41.5186 55.1567 41.6872 55.054C41.8559 54.944 41.9402 54.7937 41.9402 54.603C41.9402 54.4123 41.8706 54.2657 41.7312 54.163C41.5992 54.053 41.4269 53.965 41.2142 53.899C41.0016 53.8257 40.7742 53.756 40.5322 53.69C40.2976 53.6167 40.0739 53.525 39.8612 53.415C39.6486 53.305 39.4726 53.1547 39.3332 52.964C39.2012 52.7733 39.1352 52.5203 39.1352 52.205C39.1352 51.8897 39.2122 51.6183 39.3662 51.391C39.5202 51.1563 39.7329 50.9767 40.0042 50.852C40.2829 50.7273 40.6166 50.665 41.0052 50.665C41.4159 50.665 41.7789 50.7383 42.0942 50.885C42.4169 51.0243 42.6809 51.237 42.8862 51.523L42.2482 52.161C42.1016 51.9703 41.9182 51.8237 41.6982 51.721C41.4856 51.6183 41.2436 51.567 40.9722 51.567C40.6862 51.567 40.4662 51.6183 40.3122 51.721C40.1656 51.8163 40.0922 51.952 40.0922 52.128C40.0922 52.304 40.1582 52.4397 40.2902 52.535C40.4222 52.6303 40.5946 52.711 40.8072 52.777C41.0272 52.843 41.2546 52.9127 41.4892 52.986C41.7239 53.052 41.9476 53.1437 42.1602 53.261C42.3729 53.3783 42.5452 53.536 42.6772 53.734C42.8166 53.932 42.8862 54.1923 42.8862 54.515C42.8862 55.0063 42.7102 55.395 42.3582 55.681C42.0136 55.967 41.5479 56.11 40.9612 56.11ZM45.6556 56.11C45.3622 56.11 45.0836 56.0733 44.8196 56C44.5629 55.9193 44.3246 55.8093 44.1046 55.67C43.8846 55.5233 43.6939 55.351 43.5326 55.153L44.1706 54.515C44.3612 54.7497 44.5812 54.9257 44.8306 55.043C45.0799 55.153 45.3586 55.208 45.6666 55.208C45.9746 55.208 46.2129 55.1567 46.3816 55.054C46.5502 54.944 46.6346 54.7937 46.6346 54.603C46.6346 54.4123 46.5649 54.2657 46.4256 54.163C46.2936 54.053 46.1212 53.965 45.9086 53.899C45.6959 53.8257 45.4686 53.756 45.2266 53.69C44.9919 53.6167 44.7682 53.525 44.5556 53.415C44.3429 53.305 44.1669 53.1547 44.0276 52.964C43.8956 52.7733 43.8296 52.5203 43.8296 52.205C43.8296 51.8897 43.9066 51.6183 44.0606 51.391C44.2146 51.1563 44.4272 50.9767 44.6986 50.852C44.9772 50.7273 45.3109 50.665 45.6996 50.665C46.1102 50.665 46.4732 50.7383 46.7886 50.885C47.1112 51.0243 47.3752 51.237 47.5806 51.523L46.9426 52.161C46.7959 51.9703 46.6126 51.8237 46.3926 51.721C46.1799 51.6183 45.9379 51.567 45.6666 51.567C45.3806 51.567 45.1606 51.6183 45.0066 51.721C44.8599 51.8163 44.7866 51.952 44.7866 52.128C44.7866 52.304 44.8526 52.4397 44.9846 52.535C45.1166 52.6303 45.2889 52.711 45.5016 52.777C45.7216 52.843 45.9489 52.9127 46.1836 52.986C46.4182 53.052 46.6419 53.1437 46.8546 53.261C47.0672 53.3783 47.2396 53.536 47.3716 53.734C47.5109 53.932 47.5806 54.1923 47.5806 54.515C47.5806 55.0063 47.4046 55.395 47.0526 55.681C46.7079 55.967 46.2422 56.11 45.6556 56.11ZM51.1089 56.11C50.5882 56.11 50.1189 55.9927 49.7009 55.758C49.2829 55.516 48.9529 55.1897 48.7109 54.779C48.4689 54.3683 48.3479 53.9027 48.3479 53.382C48.3479 52.8687 48.4652 52.4067 48.6999 51.996C48.9419 51.5853 49.2646 51.2627 49.6679 51.028C50.0786 50.786 50.5369 50.665 51.0429 50.665C51.5269 50.665 51.9522 50.775 52.3189 50.995C52.6929 51.215 52.9826 51.5193 53.1879 51.908C53.4006 52.2967 53.5069 52.7367 53.5069 53.228C53.5069 53.3013 53.5032 53.382 53.4959 53.47C53.4886 53.5507 53.4739 53.646 53.4519 53.756H49.0409V52.931H52.9239L52.5609 53.25C52.5609 52.898 52.4986 52.601 52.3739 52.359C52.2492 52.1097 52.0732 51.919 51.8459 51.787C51.6186 51.6477 51.3436 51.578 51.0209 51.578C50.6836 51.578 50.3866 51.6513 50.1299 51.798C49.8732 51.9447 49.6752 52.15 49.5359 52.414C49.3966 52.678 49.3269 52.9897 49.3269 53.349C49.3269 53.7157 49.4002 54.0383 49.5469 54.317C49.6936 54.5883 49.9026 54.801 50.1739 54.955C50.4452 55.1017 50.7569 55.175 51.1089 55.175C51.4022 55.175 51.6699 55.1237 51.9119 55.021C52.1612 54.9183 52.3739 54.7643 52.5499 54.559L53.1879 55.208C52.9386 55.5013 52.6306 55.725 52.2639 55.879C51.9046 56.033 51.5196 56.11 51.1089 56.11ZM56.8744 56V50.775H57.8644V56H56.8744ZM57.8644 53.019L57.4904 52.854C57.4904 52.1867 57.6444 51.655 57.9524 51.259C58.2604 50.863 58.7041 50.665 59.2834 50.665C59.5474 50.665 59.7858 50.7127 59.9984 50.808C60.2111 50.896 60.4091 51.0463 60.5924 51.259L59.9434 51.93C59.8334 51.8127 59.7124 51.7283 59.5804 51.677C59.4484 51.6257 59.2944 51.6 59.1184 51.6C58.7518 51.6 58.4511 51.7173 58.2164 51.952C57.9818 52.1867 57.8644 52.5423 57.8644 53.019ZM63.3396 56.11C62.8629 56.11 62.4303 55.9927 62.0416 55.758C61.6529 55.516 61.3449 55.1897 61.1176 54.779C60.8976 54.3683 60.7876 53.9063 60.7876 53.393C60.7876 52.8797 60.8976 52.4177 61.1176 52.007C61.3449 51.5963 61.6493 51.27 62.0306 51.028C62.4193 50.786 62.8556 50.665 63.3396 50.665C63.7356 50.665 64.0876 50.7493 64.3956 50.918C64.7109 51.0793 64.9639 51.3067 65.1546 51.6C65.3453 51.886 65.4516 52.2197 65.4736 52.601V54.174C65.4516 54.548 65.3453 54.8817 65.1546 55.175C64.9713 55.4683 64.7219 55.6993 64.4066 55.868C64.0986 56.0293 63.7429 56.11 63.3396 56.11ZM63.5046 55.175C63.9959 55.175 64.3919 55.01 64.6926 54.68C64.9933 54.3427 65.1436 53.9137 65.1436 53.393C65.1436 53.0337 65.0739 52.722 64.9346 52.458C64.8026 52.1867 64.6119 51.9777 64.3626 51.831C64.1133 51.677 63.8236 51.6 63.4936 51.6C63.1636 51.6 62.8703 51.677 62.6136 51.831C62.3643 51.985 62.1663 52.1977 62.0196 52.469C61.8803 52.733 61.8106 53.0373 61.8106 53.382C61.8106 53.734 61.8803 54.0457 62.0196 54.317C62.1663 54.581 62.3679 54.79 62.6246 54.944C62.8813 55.098 63.1746 55.175 63.5046 55.175ZM65.0776 56V54.592L65.2646 53.316L65.0776 52.051V50.775H66.0786V56H65.0776ZM70.2699 56.11C69.8739 56.11 69.5146 56.0293 69.1919 55.868C68.8766 55.6993 68.6236 55.4683 68.4329 55.175C68.2423 54.8817 68.1359 54.548 68.1139 54.174V52.601C68.1359 52.2197 68.2423 51.886 68.4329 51.6C68.6309 51.3067 68.8876 51.0793 69.2029 50.918C69.5256 50.7493 69.8813 50.665 70.2699 50.665C70.7466 50.665 71.1756 50.786 71.5569 51.028C71.9456 51.27 72.2499 51.5963 72.4699 52.007C72.6899 52.4177 72.7999 52.8797 72.7999 53.393C72.7999 53.9063 72.6899 54.3683 72.4699 54.779C72.2499 55.1897 71.9456 55.516 71.5569 55.758C71.1756 55.9927 70.7466 56.11 70.2699 56.11ZM70.1049 55.175C70.4349 55.175 70.7246 55.098 70.9739 54.944C71.2233 54.79 71.4213 54.581 71.5679 54.317C71.7146 54.0457 71.7879 53.734 71.7879 53.382C71.7879 53.0373 71.7146 52.7293 71.5679 52.458C71.4213 52.1867 71.2233 51.9777 70.9739 51.831C70.7246 51.677 70.4386 51.6 70.1159 51.6C69.7859 51.6 69.4963 51.677 69.2469 51.831C68.9976 51.9777 68.8033 52.1867 68.6639 52.458C68.5246 52.7293 68.4549 53.041 68.4549 53.393C68.4549 53.7377 68.5209 54.0457 68.6529 54.317C68.7923 54.581 68.9866 54.79 69.2359 54.944C69.4926 55.098 69.7823 55.175 70.1049 55.175ZM67.5199 58.189V50.775H68.5099V52.15L68.3229 53.415L68.5099 54.691V58.189H67.5199ZM73.9333 56V50.775H74.9233V56H73.9333ZM74.4283 49.73C74.245 49.73 74.0946 49.6713 73.9773 49.554C73.86 49.4293 73.8013 49.2753 73.8013 49.092C73.8013 48.916 73.86 48.7693 73.9773 48.652C74.0946 48.5273 74.245 48.465 74.4283 48.465C74.6116 48.465 74.762 48.5273 74.8793 48.652C74.9966 48.7693 75.0553 48.916 75.0553 49.092C75.0553 49.2753 74.9966 49.4293 74.8793 49.554C74.762 49.6713 74.6116 49.73 74.4283 49.73ZM78.5933 56.11C78.1093 56.11 77.6766 55.9927 77.2953 55.758C76.9139 55.516 76.6096 55.1897 76.3822 54.779C76.1623 54.3683 76.0523 53.9063 76.0523 53.393C76.0523 52.8797 76.1623 52.4177 76.3822 52.007C76.6096 51.5963 76.9139 51.27 77.2953 51.028C77.6766 50.786 78.1093 50.665 78.5933 50.665C78.9819 50.665 79.3339 50.7493 79.6493 50.918C79.9646 51.0793 80.2176 51.3067 80.4083 51.6C80.6063 51.886 80.7163 52.2197 80.7383 52.601V54.174C80.7163 54.548 80.6099 54.8817 80.4193 55.175C80.2286 55.4683 79.9756 55.6993 79.6603 55.868C79.3449 56.0293 78.9893 56.11 78.5933 56.11ZM78.7583 55.175C79.0883 55.175 79.3743 55.098 79.6163 54.944C79.8656 54.79 80.0599 54.581 80.1993 54.317C80.3386 54.0457 80.4083 53.7377 80.4083 53.393C80.4083 53.0337 80.3349 52.722 80.1883 52.458C80.0489 52.194 79.8546 51.985 79.6053 51.831C79.3633 51.677 79.0773 51.6 78.7473 51.6C78.4173 51.6 78.1276 51.677 77.8783 51.831C77.6289 51.985 77.4309 52.1977 77.2843 52.469C77.1449 52.733 77.0753 53.0373 77.0753 53.382C77.0753 53.734 77.1449 54.0457 77.2843 54.317C77.4309 54.581 77.6289 54.79 77.8783 54.944C78.1349 55.098 78.4283 55.175 78.7583 55.175ZM81.3433 56H80.3423V54.592L80.5293 53.316L80.3423 52.051V48.146H81.3433V56ZM85.0066 56.11C84.5299 56.11 84.0973 55.9927 83.7086 55.758C83.3199 55.516 83.0119 55.1897 82.7846 54.779C82.5646 54.3683 82.4546 53.9063 82.4546 53.393C82.4546 52.8797 82.5646 52.4177 82.7846 52.007C83.0119 51.5963 83.3163 51.27 83.6976 51.028C84.0863 50.786 84.5226 50.665 85.0066 50.665C85.4026 50.665 85.7546 50.7493 86.0626 50.918C86.3779 51.0793 86.6309 51.3067 86.8216 51.6C87.0123 51.886 87.1186 52.2197 87.1406 52.601V54.174C87.1186 54.548 87.0123 54.8817 86.8216 55.175C86.6383 55.4683 86.3889 55.6993 86.0736 55.868C85.7656 56.0293 85.4099 56.11 85.0066 56.11ZM85.1716 55.175C85.6629 55.175 86.0589 55.01 86.3596 54.68C86.6603 54.3427 86.8106 53.9137 86.8106 53.393C86.8106 53.0337 86.7409 52.722 86.6016 52.458C86.4696 52.1867 86.2789 51.9777 86.0296 51.831C85.7803 51.677 85.4906 51.6 85.1606 51.6C84.8306 51.6 84.5373 51.677 84.2806 51.831C84.0313 51.985 83.8333 52.1977 83.6866 52.469C83.5473 52.733 83.4776 53.0373 83.4776 53.382C83.4776 53.734 83.5473 54.0457 83.6866 54.317C83.8333 54.581 84.0349 54.79 84.2916 54.944C84.5483 55.098 84.8416 55.175 85.1716 55.175ZM86.7446 56V54.592L86.9316 53.316L86.7446 52.051V50.775H87.7456V56H86.7446ZM89.1869 56V50.775H90.1769V56H89.1869ZM92.7179 56V52.843C92.7179 52.4543 92.5969 52.15 92.3549 51.93C92.1203 51.7027 91.8233 51.589 91.4639 51.589C91.2219 51.589 91.0056 51.6403 90.8149 51.743C90.6243 51.8457 90.4703 51.9887 90.3529 52.172C90.2356 52.3553 90.1769 52.5753 90.1769 52.832L89.7699 52.634C89.7699 52.238 89.8543 51.8933 90.0229 51.6C90.1989 51.3067 90.4373 51.0793 90.7379 50.918C91.0386 50.7493 91.3759 50.665 91.7499 50.665C92.1166 50.665 92.4466 50.7457 92.7399 50.907C93.0406 51.0683 93.2753 51.2957 93.4439 51.589C93.6199 51.8823 93.7079 52.2307 93.7079 52.634V56H92.7179ZM96.2489 56V52.843C96.2489 52.4543 96.1279 52.15 95.8859 51.93C95.6513 51.7027 95.3579 51.589 95.0059 51.589C94.7639 51.589 94.5439 51.6403 94.3459 51.743C94.1553 51.8457 94.0013 51.9887 93.8839 52.172C93.7666 52.3553 93.7079 52.5753 93.7079 52.832L93.1469 52.634C93.1689 52.2307 93.2753 51.886 93.4659 51.6C93.6639 51.3067 93.9169 51.0793 94.2249 50.918C94.5329 50.7493 94.8703 50.665 95.2369 50.665C95.6183 50.665 95.9593 50.7457 96.2599 50.907C96.5606 51.0683 96.7989 51.2957 96.9749 51.589C97.1583 51.8823 97.2499 52.2343 97.2499 52.645V56H96.2489ZM101.017 56.11C100.496 56.11 100.027 55.9927 99.6091 55.758C99.1911 55.516 98.8611 55.1897 98.6191 54.779C98.3771 54.3683 98.2561 53.9027 98.2561 53.382C98.2561 52.8687 98.3734 52.4067 98.6081 51.996C98.8501 51.5853 99.1728 51.2627 99.5761 51.028C99.9868 50.786 100.445 50.665 100.951 50.665C101.435 50.665 101.86 50.775 102.227 50.995C102.601 51.215 102.891 51.5193 103.096 51.908C103.309 52.2967 103.415 52.7367 103.415 53.228C103.415 53.3013 103.411 53.382 103.404 53.47C103.397 53.5507 103.382 53.646 103.36 53.756H98.9491V52.931H102.832L102.469 53.25C102.469 52.898 102.407 52.601 102.282 52.359C102.157 52.1097 101.981 51.919 101.754 51.787C101.527 51.6477 101.252 51.578 100.929 51.578C100.592 51.578 100.295 51.6513 100.038 51.798C99.7814 51.9447 99.5834 52.15 99.4441 52.414C99.3048 52.678 99.2351 52.9897 99.2351 53.349C99.2351 53.7157 99.3084 54.0383 99.4551 54.317C99.6018 54.5883 99.8108 54.801 100.082 54.955C100.353 55.1017 100.665 55.175 101.017 55.175C101.31 55.175 101.578 55.1237 101.82 55.021C102.069 54.9183 102.282 54.7643 102.458 54.559L103.096 55.208C102.847 55.5013 102.539 55.725 102.172 55.879C101.813 56.033 101.428 56.11 101.017 56.11ZM108.191 56V52.953C108.191 52.557 108.066 52.2307 107.817 51.974C107.567 51.7173 107.245 51.589 106.849 51.589C106.585 51.589 106.35 51.6477 106.145 51.765C105.939 51.8823 105.778 52.0437 105.661 52.249C105.543 52.4543 105.485 52.689 105.485 52.953L105.078 52.722C105.078 52.326 105.166 51.974 105.342 51.666C105.518 51.358 105.763 51.116 106.079 50.94C106.394 50.7567 106.75 50.665 107.146 50.665C107.542 50.665 107.89 50.764 108.191 50.962C108.499 51.16 108.741 51.4203 108.917 51.743C109.093 52.0583 109.181 52.3957 109.181 52.755V56H108.191ZM104.495 56V50.775H105.485V56H104.495ZM111.259 56V48.586H112.249V56H111.259ZM109.972 51.677V50.775H113.536V51.677H109.972ZM116.765 56.11C116.244 56.11 115.775 55.9927 115.357 55.758C114.939 55.516 114.609 55.1897 114.367 54.779C114.125 54.3683 114.004 53.9027 114.004 53.382C114.004 52.8687 114.121 52.4067 114.356 51.996C114.598 51.5853 114.921 51.2627 115.324 51.028C115.735 50.786 116.193 50.665 116.699 50.665C117.183 50.665 117.608 50.775 117.975 50.995C118.349 51.215 118.639 51.5193 118.844 51.908C119.057 52.2967 119.163 52.7367 119.163 53.228C119.163 53.3013 119.159 53.382 119.152 53.47C119.145 53.5507 119.13 53.646 119.108 53.756H114.697V52.931H118.58L118.217 53.25C118.217 52.898 118.155 52.601 118.03 52.359C117.905 52.1097 117.729 51.919 117.502 51.787C117.275 51.6477 117 51.578 116.677 51.578C116.34 51.578 116.043 51.6513 115.786 51.798C115.529 51.9447 115.331 52.15 115.192 52.414C115.053 52.678 114.983 52.9897 114.983 53.349C114.983 53.7157 115.056 54.0383 115.203 54.317C115.35 54.5883 115.559 54.801 115.83 54.955C116.101 55.1017 116.413 55.175 116.765 55.175C117.058 55.175 117.326 55.1237 117.568 55.021C117.817 54.9183 118.03 54.7643 118.206 54.559L118.844 55.208C118.595 55.5013 118.287 55.725 117.92 55.879C117.561 56.033 117.176 56.11 116.765 56.11ZM124.192 56.11C123.898 56.11 123.62 56.0733 123.356 56C123.099 55.9193 122.861 55.8093 122.641 55.67C122.421 55.5233 122.23 55.351 122.069 55.153L122.707 54.515C122.897 54.7497 123.117 54.9257 123.367 55.043C123.616 55.153 123.895 55.208 124.203 55.208C124.511 55.208 124.749 55.1567 124.918 55.054C125.086 54.944 125.171 54.7937 125.171 54.603C125.171 54.4123 125.101 54.2657 124.962 54.163C124.83 54.053 124.657 53.965 124.445 53.899C124.232 53.8257 124.005 53.756 123.763 53.69C123.528 53.6167 123.304 53.525 123.092 53.415C122.879 53.305 122.703 53.1547 122.564 52.964C122.432 52.7733 122.366 52.5203 122.366 52.205C122.366 51.8897 122.443 51.6183 122.597 51.391C122.751 51.1563 122.963 50.9767 123.235 50.852C123.513 50.7273 123.847 50.665 124.236 50.665C124.646 50.665 125.009 50.7383 125.325 50.885C125.647 51.0243 125.911 51.237 126.117 51.523L125.479 52.161C125.332 51.9703 125.149 51.8237 124.929 51.721C124.716 51.6183 124.474 51.567 124.203 51.567C123.917 51.567 123.697 51.6183 123.543 51.721C123.396 51.8163 123.323 51.952 123.323 52.128C123.323 52.304 123.389 52.4397 123.521 52.535C123.653 52.6303 123.825 52.711 124.038 52.777C124.258 52.843 124.485 52.9127 124.72 52.986C124.954 53.052 125.178 53.1437 125.391 53.261C125.603 53.3783 125.776 53.536 125.908 53.734C126.047 53.932 126.117 54.1923 126.117 54.515C126.117 55.0063 125.941 55.395 125.589 55.681C125.244 55.967 124.778 56.11 124.192 56.11ZM129.645 56.11C129.124 56.11 128.655 55.9927 128.237 55.758C127.819 55.516 127.489 55.1897 127.247 54.779C127.005 54.3683 126.884 53.9027 126.884 53.382C126.884 52.8687 127.001 52.4067 127.236 51.996C127.478 51.5853 127.801 51.2627 128.204 51.028C128.615 50.786 129.073 50.665 129.579 50.665C130.063 50.665 130.488 50.775 130.855 50.995C131.229 51.215 131.519 51.5193 131.724 51.908C131.937 52.2967 132.043 52.7367 132.043 53.228C132.043 53.3013 132.039 53.382 132.032 53.47C132.025 53.5507 132.01 53.646 131.988 53.756H127.577V52.931H131.46L131.097 53.25C131.097 52.898 131.035 52.601 130.91 52.359C130.785 52.1097 130.609 51.919 130.382 51.787C130.155 51.6477 129.88 51.578 129.557 51.578C129.22 51.578 128.923 51.6513 128.666 51.798C128.409 51.9447 128.211 52.15 128.072 52.414C127.933 52.678 127.863 52.9897 127.863 53.349C127.863 53.7157 127.936 54.0383 128.083 54.317C128.23 54.5883 128.439 54.801 128.71 54.955C128.981 55.1017 129.293 55.175 129.645 55.175C129.938 55.175 130.206 55.1237 130.448 55.021C130.697 54.9183 130.91 54.7643 131.086 54.559L131.724 55.208C131.475 55.5013 131.167 55.725 130.8 55.879C130.441 56.033 130.056 56.11 129.645 56.11ZM135.223 56.11C134.798 56.11 134.413 56.0147 134.068 55.824C133.731 55.626 133.467 55.3547 133.276 55.01C133.086 54.6653 132.99 54.2657 132.99 53.811V50.775H133.98V53.767C133.98 54.053 134.028 54.3023 134.123 54.515C134.226 54.7203 134.373 54.878 134.563 54.988C134.754 55.098 134.978 55.153 135.234 55.153C135.623 55.153 135.927 55.032 136.147 54.79C136.367 54.5407 136.477 54.1997 136.477 53.767V50.775H137.467V53.811C137.467 54.2657 137.372 54.6653 137.181 55.01C136.991 55.3547 136.727 55.626 136.389 55.824C136.059 56.0147 135.671 56.11 135.223 56.11ZM143.832 56.11C143.436 56.11 143.077 56.0293 142.754 55.868C142.439 55.6993 142.186 55.4683 141.995 55.175C141.805 54.8817 141.698 54.548 141.676 54.174V52.601C141.698 52.2197 141.805 51.886 141.995 51.6C142.193 51.3067 142.45 51.0793 142.765 50.918C143.088 50.7493 143.444 50.665 143.832 50.665C144.309 50.665 144.738 50.786 145.119 51.028C145.508 51.27 145.812 51.5963 146.032 52.007C146.252 52.4177 146.362 52.8797 146.362 53.393C146.362 53.9063 146.252 54.3683 146.032 54.779C145.812 55.1897 145.508 55.516 145.119 55.758C144.738 55.9927 144.309 56.11 143.832 56.11ZM143.667 55.175C143.997 55.175 144.287 55.098 144.536 54.944C144.786 54.79 144.984 54.581 145.13 54.317C145.277 54.0457 145.35 53.734 145.35 53.382C145.35 53.0373 145.277 52.7293 145.13 52.458C144.984 52.1867 144.786 51.9777 144.536 51.831C144.287 51.677 144.001 51.6 143.678 51.6C143.348 51.6 143.059 51.677 142.809 51.831C142.56 51.9777 142.366 52.1867 142.226 52.458C142.087 52.7293 142.017 53.041 142.017 53.393C142.017 53.7377 142.083 54.0457 142.215 54.317C142.355 54.581 142.549 54.79 142.798 54.944C143.055 55.098 143.345 55.175 143.667 55.175ZM141.082 58.189V50.775H142.072V52.15L141.885 53.415L142.072 54.691V58.189H141.082ZM149.905 56.11C149.384 56.11 148.915 55.9927 148.497 55.758C148.079 55.516 147.749 55.1897 147.507 54.779C147.265 54.3683 147.144 53.9027 147.144 53.382C147.144 52.8687 147.261 52.4067 147.496 51.996C147.738 51.5853 148.06 51.2627 148.464 51.028C148.874 50.786 149.333 50.665 149.839 50.665C150.323 50.665 150.748 50.775 151.115 50.995C151.489 51.215 151.778 51.5193 151.984 51.908C152.196 52.2967 152.303 52.7367 152.303 53.228C152.303 53.3013 152.299 53.382 152.292 53.47C152.284 53.5507 152.27 53.646 152.248 53.756H147.837V52.931H151.72L151.357 53.25C151.357 52.898 151.294 52.601 151.17 52.359C151.045 52.1097 150.869 51.919 150.642 51.787C150.414 51.6477 150.139 51.578 149.817 51.578C149.479 51.578 149.182 51.6513 148.926 51.798C148.669 51.9447 148.471 52.15 148.332 52.414C148.192 52.678 148.123 52.9897 148.123 53.349C148.123 53.7157 148.196 54.0383 148.343 54.317C148.489 54.5883 148.698 54.801 148.97 54.955C149.241 55.1017 149.553 55.175 149.905 55.175C150.198 55.175 150.466 55.1237 150.708 55.021C150.957 54.9183 151.17 54.7643 151.346 54.559L151.984 55.208C151.734 55.5013 151.426 55.725 151.06 55.879C150.7 56.033 150.315 56.11 149.905 56.11ZM153.382 56V50.775H154.372V56H153.382ZM154.372 53.019L153.998 52.854C153.998 52.1867 154.152 51.655 154.46 51.259C154.768 50.863 155.212 50.665 155.791 50.665C156.055 50.665 156.294 50.7127 156.506 50.808C156.719 50.896 156.917 51.0463 157.1 51.259L156.451 51.93C156.341 51.8127 156.22 51.7283 156.088 51.677C155.956 51.6257 155.802 51.6 155.626 51.6C155.26 51.6 154.959 51.7173 154.724 51.952C154.49 52.1867 154.372 52.5423 154.372 53.019ZM158.524 56V49.829C158.524 49.4843 158.597 49.18 158.744 48.916C158.898 48.6447 159.11 48.432 159.382 48.278C159.653 48.1167 159.965 48.036 160.317 48.036C160.588 48.036 160.826 48.0837 161.032 48.179C161.237 48.267 161.428 48.3917 161.604 48.553L160.955 49.202C160.859 49.1213 160.76 49.0627 160.658 49.026C160.555 48.982 160.441 48.96 160.317 48.96C160.06 48.96 159.862 49.0407 159.723 49.202C159.583 49.356 159.514 49.565 159.514 49.829V56H158.524ZM157.237 51.677V50.775H162.198V51.677H157.237ZM161.626 56V50.775H162.627V56H161.626ZM162.121 50.225C161.945 50.225 161.798 50.1663 161.681 50.049C161.563 49.9243 161.505 49.7703 161.505 49.587C161.505 49.411 161.563 49.2643 161.681 49.147C161.798 49.0223 161.945 48.96 162.121 48.96C162.311 48.96 162.462 49.0223 162.572 49.147C162.689 49.2643 162.748 49.411 162.748 49.587C162.748 49.7703 162.689 49.9243 162.572 50.049C162.462 50.1663 162.311 50.225 162.121 50.225ZM164.081 56V48.146H165.071V56H164.081ZM169.556 56V49.994C169.556 49.6053 169.64 49.268 169.809 48.982C169.978 48.6887 170.209 48.4577 170.502 48.289C170.803 48.1203 171.151 48.036 171.547 48.036C171.848 48.036 172.108 48.0873 172.328 48.19C172.548 48.2927 172.75 48.443 172.933 48.641L172.284 49.279C172.189 49.1763 172.082 49.0993 171.965 49.048C171.848 48.9893 171.705 48.96 171.536 48.96C171.221 48.96 170.975 49.0517 170.799 49.235C170.63 49.4183 170.546 49.6713 170.546 49.994V56H169.556ZM168.269 51.677V50.775H172.207V51.677H168.269ZM175.123 56.11C174.646 56.11 174.213 55.9927 173.825 55.758C173.436 55.516 173.128 55.1897 172.901 54.779C172.681 54.3683 172.571 53.9063 172.571 53.393C172.571 52.8797 172.681 52.4177 172.901 52.007C173.128 51.5963 173.432 51.27 173.814 51.028C174.202 50.786 174.639 50.665 175.123 50.665C175.519 50.665 175.871 50.7493 176.179 50.918C176.494 51.0793 176.747 51.3067 176.938 51.6C177.128 51.886 177.235 52.2197 177.257 52.601V54.174C177.235 54.548 177.128 54.8817 176.938 55.175C176.754 55.4683 176.505 55.6993 176.19 55.868C175.882 56.0293 175.526 56.11 175.123 56.11ZM175.288 55.175C175.779 55.175 176.175 55.01 176.476 54.68C176.776 54.3427 176.927 53.9137 176.927 53.393C176.927 53.0337 176.857 52.722 176.718 52.458C176.586 52.1867 176.395 51.9777 176.146 51.831C175.896 51.677 175.607 51.6 175.277 51.6C174.947 51.6 174.653 51.677 174.397 51.831C174.147 51.985 173.949 52.1977 173.803 52.469C173.663 52.733 173.594 53.0373 173.594 53.382C173.594 53.734 173.663 54.0457 173.803 54.317C173.949 54.581 174.151 54.79 174.408 54.944C174.664 55.098 174.958 55.175 175.288 55.175ZM176.861 56V54.592L177.048 53.316L176.861 52.051V50.775H177.862V56H176.861ZM181.096 56L178.698 50.775H179.798L181.723 55.186H181.085L183.021 50.775H184.077L181.679 56H181.096ZM187.104 56.11C186.591 56.11 186.129 55.989 185.718 55.747C185.308 55.505 184.981 55.1787 184.739 54.768C184.497 54.35 184.376 53.8843 184.376 53.371C184.376 52.865 184.497 52.4103 184.739 52.007C184.981 51.5963 185.308 51.27 185.718 51.028C186.129 50.786 186.591 50.665 187.104 50.665C187.61 50.665 188.069 50.786 188.479 51.028C188.897 51.2627 189.227 51.5853 189.469 51.996C189.711 52.4067 189.832 52.865 189.832 53.371C189.832 53.8843 189.711 54.35 189.469 54.768C189.227 55.1787 188.897 55.505 188.479 55.747C188.069 55.989 187.61 56.11 187.104 56.11ZM187.104 55.153C187.434 55.153 187.728 55.076 187.984 54.922C188.241 54.768 188.443 54.559 188.589 54.295C188.736 54.0237 188.809 53.7157 188.809 53.371C188.809 53.0337 188.732 52.733 188.578 52.469C188.432 52.205 188.23 51.9997 187.973 51.853C187.724 51.699 187.434 51.622 187.104 51.622C186.774 51.622 186.481 51.699 186.224 51.853C185.968 51.9997 185.766 52.205 185.619 52.469C185.473 52.733 185.399 53.0337 185.399 53.371C185.399 53.7157 185.473 54.0237 185.619 54.295C185.766 54.559 185.968 54.768 186.224 54.922C186.481 55.076 186.774 55.153 187.104 55.153ZM190.948 56V50.775H191.938V56H190.948ZM191.938 53.019L191.564 52.854C191.564 52.1867 191.718 51.655 192.026 51.259C192.334 50.863 192.777 50.665 193.357 50.665C193.621 50.665 193.859 50.7127 194.072 50.808C194.284 50.896 194.482 51.0463 194.666 51.259L194.017 51.93C193.907 51.8127 193.786 51.7283 193.654 51.677C193.522 51.6257 193.368 51.6 193.192 51.6C192.825 51.6 192.524 51.7173 192.29 51.952C192.055 52.1867 191.938 52.5423 191.938 53.019ZM195.374 56V50.775H196.364V56H195.374ZM195.869 49.73C195.685 49.73 195.535 49.6713 195.418 49.554C195.3 49.4293 195.242 49.2753 195.242 49.092C195.242 48.916 195.3 48.7693 195.418 48.652C195.535 48.5273 195.685 48.465 195.869 48.465C196.052 48.465 196.202 48.5273 196.32 48.652C196.437 48.7693 196.496 48.916 196.496 49.092C196.496 49.2753 196.437 49.4293 196.32 49.554C196.202 49.6713 196.052 49.73 195.869 49.73ZM198.626 56V48.586H199.616V56H198.626ZM197.339 51.677V50.775H200.903V51.677H197.339ZM204.098 56.11C203.585 56.11 203.123 55.989 202.712 55.747C202.302 55.505 201.975 55.1787 201.733 54.768C201.491 54.35 201.37 53.8843 201.37 53.371C201.37 52.865 201.491 52.4103 201.733 52.007C201.975 51.5963 202.302 51.27 202.712 51.028C203.123 50.786 203.585 50.665 204.098 50.665C204.604 50.665 205.063 50.786 205.473 51.028C205.891 51.2627 206.221 51.5853 206.463 51.996C206.705 52.4067 206.826 52.865 206.826 53.371C206.826 53.8843 206.705 54.35 206.463 54.768C206.221 55.1787 205.891 55.505 205.473 55.747C205.063 55.989 204.604 56.11 204.098 56.11ZM204.098 55.153C204.428 55.153 204.722 55.076 204.978 54.922C205.235 54.768 205.437 54.559 205.583 54.295C205.73 54.0237 205.803 53.7157 205.803 53.371C205.803 53.0337 205.726 52.733 205.572 52.469C205.426 52.205 205.224 51.9997 204.967 51.853C204.718 51.699 204.428 51.622 204.098 51.622C203.768 51.622 203.475 51.699 203.218 51.853C202.962 51.9997 202.76 52.205 202.613 52.469C202.467 52.733 202.393 53.0337 202.393 53.371C202.393 53.7157 202.467 54.0237 202.613 54.295C202.76 54.559 202.962 54.768 203.218 54.922C203.475 55.076 203.768 55.153 204.098 55.153Z" fill="white"/>
<path d="M22.5817 38L27.4097 26.202H28.5657L33.3767 38H31.6427L27.6817 28.021H28.2767L24.2817 38H22.5817ZM24.8767 35.331V33.937H31.0817V35.331H24.8767ZM37.916 38.17C37.168 38.17 36.4993 37.9887 35.91 37.626C35.3206 37.252 34.8503 36.7477 34.499 36.113C34.159 35.4783 33.989 34.7643 33.989 33.971C33.989 33.1777 34.159 32.4637 34.499 31.829C34.8503 31.1943 35.3206 30.69 35.91 30.316C36.4993 29.942 37.168 29.755 37.916 29.755C38.5166 29.755 39.0606 29.8853 39.548 30.146C40.0353 30.3953 40.4263 30.7467 40.721 31.2C41.027 31.642 41.197 32.1577 41.231 32.747V35.178C41.197 35.756 41.0326 36.2717 40.738 36.725C40.4433 37.1783 40.0523 37.5353 39.565 37.796C39.0776 38.0453 38.528 38.17 37.916 38.17ZM38.171 36.725C38.681 36.725 39.123 36.606 39.497 36.368C39.8823 36.13 40.1826 35.807 40.398 35.399C40.6133 34.9797 40.721 34.5037 40.721 33.971C40.721 33.4157 40.6076 32.934 40.381 32.526C40.1656 32.118 39.8653 31.795 39.48 31.557C39.106 31.319 38.664 31.2 38.154 31.2C37.644 31.2 37.1963 31.319 36.811 31.557C36.4256 31.795 36.1196 32.1237 35.893 32.543C35.6776 32.951 35.57 33.4213 35.57 33.954C35.57 34.498 35.6776 34.9797 35.893 35.399C36.1196 35.807 36.4256 36.13 36.811 36.368C37.2076 36.606 37.661 36.725 38.171 36.725ZM42.166 38H40.619V35.824L40.908 33.852L40.619 31.897V25.862H42.166V38ZM47.1645 38L43.4585 29.925H45.1585L48.1335 36.742H47.1475L50.1395 29.925H51.7715L48.0655 38H47.1645ZM56.4497 38.17C55.6563 38.17 54.9423 37.983 54.3077 37.609C53.673 37.235 53.1687 36.7307 52.7947 36.096C52.4207 35.45 52.2337 34.7303 52.2337 33.937C52.2337 33.155 52.4207 32.4523 52.7947 31.829C53.1687 31.1943 53.673 30.69 54.3077 30.316C54.9423 29.942 55.6563 29.755 56.4497 29.755C57.2317 29.755 57.94 29.942 58.5747 30.316C59.2207 30.6787 59.7307 31.1773 60.1047 31.812C60.4787 32.4467 60.6657 33.155 60.6657 33.937C60.6657 34.7303 60.4787 35.45 60.1047 36.096C59.7307 36.7307 59.2207 37.235 58.5747 37.609C57.94 37.983 57.2317 38.17 56.4497 38.17ZM56.4497 36.691C56.9597 36.691 57.413 36.572 57.8097 36.334C58.2063 36.096 58.518 35.773 58.7447 35.365C58.9713 34.9457 59.0847 34.4697 59.0847 33.937C59.0847 33.4157 58.9657 32.951 58.7277 32.543C58.501 32.135 58.1893 31.8177 57.7927 31.591C57.4073 31.353 56.9597 31.234 56.4497 31.234C55.9397 31.234 55.4863 31.353 55.0897 31.591C54.693 31.8177 54.3813 32.135 54.1547 32.543C53.928 32.951 53.8147 33.4157 53.8147 33.937C53.8147 34.4697 53.928 34.9457 54.1547 35.365C54.3813 35.773 54.693 36.096 55.0897 36.334C55.4863 36.572 55.9397 36.691 56.4497 36.691ZM65.7386 41.553C64.9112 41.553 64.1746 41.4 63.5286 41.094C62.8939 40.788 62.3839 40.3573 61.9986 39.802L62.9846 38.799C63.3132 39.2183 63.7042 39.5357 64.1576 39.751C64.6109 39.9777 65.1492 40.091 65.7726 40.091C66.5999 40.091 67.2516 39.87 67.7276 39.428C68.2149 38.9973 68.4586 38.4137 68.4586 37.677V35.671L68.7306 33.852L68.4586 32.05V29.925H69.9886V37.677C69.9886 38.4477 69.8072 39.122 69.4446 39.7C69.0932 40.278 68.5946 40.7313 67.9486 41.06C67.3139 41.3887 66.5772 41.553 65.7386 41.553ZM65.7386 37.864C65.0019 37.864 64.3389 37.6883 63.7496 37.337C63.1716 36.9857 62.7126 36.504 62.3726 35.892C62.0326 35.2687 61.8626 34.5717 61.8626 33.801C61.8626 33.0303 62.0326 32.3447 62.3726 31.744C62.7126 31.132 63.1716 30.6503 63.7496 30.299C64.3389 29.9363 65.0019 29.755 65.7386 29.755C66.3732 29.755 66.9342 29.8797 67.4216 30.129C67.9089 30.3783 68.2942 30.7297 68.5776 31.183C68.8722 31.625 69.0309 32.1463 69.0536 32.747V34.889C69.0196 35.4783 68.8552 35.9997 68.5606 36.453C68.2772 36.895 67.8919 37.2407 67.4046 37.49C66.9172 37.7393 66.3619 37.864 65.7386 37.864ZM66.0446 36.419C66.5432 36.419 66.9796 36.3113 67.3536 36.096C67.7389 35.8807 68.0336 35.5803 68.2376 35.195C68.4416 34.7983 68.5436 34.3393 68.5436 33.818C68.5436 33.2967 68.4359 32.8433 68.2206 32.458C68.0166 32.0613 67.7276 31.7553 67.3536 31.54C66.9796 31.3133 66.5376 31.2 66.0276 31.2C65.5176 31.2 65.0699 31.3133 64.6846 31.54C64.2992 31.7553 63.9932 32.0613 63.7666 32.458C63.5512 32.8433 63.4436 33.291 63.4436 33.801C63.4436 34.311 63.5512 34.7643 63.7666 35.161C63.9932 35.5577 64.2992 35.8693 64.6846 36.096C65.0812 36.3113 65.5346 36.419 66.0446 36.419ZM75.6683 38.17C74.9316 38.17 74.263 37.9887 73.6623 37.626C73.0616 37.252 72.5856 36.7477 72.2343 36.113C71.8943 35.4783 71.7243 34.7643 71.7243 33.971C71.7243 33.1777 71.8943 32.4637 72.2343 31.829C72.5856 31.1943 73.056 30.69 73.6453 30.316C74.246 29.942 74.9203 29.755 75.6683 29.755C76.2803 29.755 76.8243 29.8853 77.3003 30.146C77.7876 30.3953 78.1786 30.7467 78.4733 31.2C78.768 31.642 78.9323 32.1577 78.9663 32.747V35.178C78.9323 35.756 78.768 36.2717 78.4733 36.725C78.19 37.1783 77.8046 37.5353 77.3173 37.796C76.8413 38.0453 76.2916 38.17 75.6683 38.17ZM75.9233 36.725C76.6826 36.725 77.2946 36.47 77.7593 35.96C78.224 35.4387 78.4563 34.7757 78.4563 33.971C78.4563 33.4157 78.3486 32.934 78.1333 32.526C77.9293 32.1067 77.6346 31.7837 77.2493 31.557C76.864 31.319 76.4163 31.2 75.9063 31.2C75.3963 31.2 74.943 31.319 74.5463 31.557C74.161 31.795 73.855 32.1237 73.6283 32.543C73.413 32.951 73.3053 33.4213 73.3053 33.954C73.3053 34.498 73.413 34.9797 73.6283 35.399C73.855 35.807 74.1666 36.13 74.5633 36.368C74.96 36.606 75.4133 36.725 75.9233 36.725ZM78.3543 38V35.824L78.6433 33.852L78.3543 31.897V29.925H79.9013V38H78.3543ZM85.5458 38.17C84.7978 38.17 84.1292 37.9887 83.5398 37.626C82.9505 37.252 82.4802 36.7477 82.1288 36.113C81.7888 35.4783 81.6188 34.7643 81.6188 33.971C81.6188 33.1777 81.7888 32.4637 82.1288 31.829C82.4802 31.1943 82.9505 30.69 83.5398 30.316C84.1292 29.942 84.7978 29.755 85.5458 29.755C86.1465 29.755 86.6905 29.8853 87.1778 30.146C87.6652 30.3953 88.0562 30.7467 88.3508 31.2C88.6568 31.642 88.8268 32.1577 88.8608 32.747V35.178C88.8268 35.756 88.6625 36.2717 88.3678 36.725C88.0732 37.1783 87.6822 37.5353 87.1948 37.796C86.7075 38.0453 86.1578 38.17 85.5458 38.17ZM85.8008 36.725C86.3108 36.725 86.7528 36.606 87.1268 36.368C87.5122 36.13 87.8125 35.807 88.0278 35.399C88.2432 34.9797 88.3508 34.5037 88.3508 33.971C88.3508 33.4157 88.2375 32.934 88.0108 32.526C87.7955 32.118 87.4952 31.795 87.1098 31.557C86.7358 31.319 86.2938 31.2 85.7838 31.2C85.2738 31.2 84.8262 31.319 84.4408 31.557C84.0555 31.795 83.7495 32.1237 83.5228 32.543C83.3075 32.951 83.1998 33.4213 83.1998 33.954C83.1998 34.498 83.3075 34.9797 83.5228 35.399C83.7495 35.807 84.0555 36.13 84.4408 36.368C84.8375 36.606 85.2908 36.725 85.8008 36.725ZM89.7958 38H88.2488V35.824L88.5378 33.852L88.2488 31.897V25.862H89.7958V38ZM95.7124 38.17C94.919 38.17 94.205 37.983 93.5704 37.609C92.9357 37.235 92.4314 36.7307 92.0574 36.096C91.6834 35.45 91.4964 34.7303 91.4964 33.937C91.4964 33.155 91.6834 32.4523 92.0574 31.829C92.4314 31.1943 92.9357 30.69 93.5704 30.316C94.205 29.942 94.919 29.755 95.7124 29.755C96.4944 29.755 97.2027 29.942 97.8374 30.316C98.4834 30.6787 98.9934 31.1773 99.3674 31.812C99.7414 32.4467 99.9284 33.155 99.9284 33.937C99.9284 34.7303 99.7414 35.45 99.3674 36.096C98.9934 36.7307 98.4834 37.235 97.8374 37.609C97.2027 37.983 96.4944 38.17 95.7124 38.17ZM95.7124 36.691C96.2224 36.691 96.6757 36.572 97.0724 36.334C97.469 36.096 97.7807 35.773 98.0074 35.365C98.234 34.9457 98.3474 34.4697 98.3474 33.937C98.3474 33.4157 98.2284 32.951 97.9904 32.543C97.7637 32.135 97.452 31.8177 97.0554 31.591C96.67 31.353 96.2224 31.234 95.7124 31.234C95.2024 31.234 94.749 31.353 94.3524 31.591C93.9557 31.8177 93.644 32.135 93.4174 32.543C93.1907 32.951 93.0774 33.4157 93.0774 33.937C93.0774 34.4697 93.1907 34.9457 93.4174 35.365C93.644 35.773 93.9557 36.096 94.3524 36.334C94.749 36.572 95.2024 36.691 95.7124 36.691ZM104.219 38.17C103.766 38.17 103.335 38.1133 102.927 38C102.531 37.8753 102.162 37.7053 101.822 37.49C101.482 37.2633 101.188 36.997 100.938 36.691L101.924 35.705C102.219 36.0677 102.559 36.3397 102.944 36.521C103.33 36.691 103.76 36.776 104.236 36.776C104.712 36.776 105.081 36.6967 105.341 36.538C105.602 36.368 105.732 36.1357 105.732 35.841C105.732 35.5463 105.625 35.3197 105.409 35.161C105.205 34.991 104.939 34.855 104.61 34.753C104.282 34.6397 103.93 34.532 103.556 34.43C103.194 34.3167 102.848 34.175 102.519 34.005C102.191 33.835 101.919 33.6027 101.703 33.308C101.499 33.0133 101.397 32.6223 101.397 32.135C101.397 31.6477 101.516 31.2283 101.754 30.877C101.992 30.5143 102.321 30.2367 102.74 30.044C103.171 29.8513 103.687 29.755 104.287 29.755C104.922 29.755 105.483 29.8683 105.97 30.095C106.469 30.3103 106.877 30.639 107.194 31.081L106.208 32.067C105.982 31.7723 105.698 31.5457 105.358 31.387C105.03 31.2283 104.656 31.149 104.236 31.149C103.794 31.149 103.454 31.2283 103.216 31.387C102.99 31.5343 102.876 31.744 102.876 32.016C102.876 32.288 102.978 32.4977 103.182 32.645C103.386 32.7923 103.653 32.917 103.981 33.019C104.321 33.121 104.673 33.2287 105.035 33.342C105.398 33.444 105.744 33.5857 106.072 33.767C106.401 33.9483 106.667 34.192 106.871 34.498C107.087 34.804 107.194 35.2063 107.194 35.705C107.194 36.4643 106.922 37.065 106.378 37.507C105.846 37.949 105.126 38.17 104.219 38.17ZM116.183 38.17C115.379 38.17 114.653 37.9887 114.007 37.626C113.361 37.252 112.851 36.7477 112.477 36.113C112.103 35.4783 111.916 34.7587 111.916 33.954C111.916 33.1607 112.098 32.4467 112.46 31.812C112.834 31.1773 113.333 30.6787 113.956 30.316C114.591 29.942 115.299 29.755 116.081 29.755C116.829 29.755 117.487 29.925 118.053 30.265C118.631 30.605 119.079 31.0753 119.396 31.676C119.725 32.2767 119.889 32.9567 119.889 33.716C119.889 33.8293 119.884 33.954 119.872 34.09C119.861 34.2147 119.838 34.362 119.804 34.532H112.987V33.257H118.988L118.427 33.75C118.427 33.206 118.331 32.747 118.138 32.373C117.946 31.9877 117.674 31.693 117.322 31.489C116.971 31.2737 116.546 31.166 116.047 31.166C115.526 31.166 115.067 31.2793 114.67 31.506C114.274 31.7327 113.968 32.05 113.752 32.458C113.537 32.866 113.429 33.3477 113.429 33.903C113.429 34.4697 113.543 34.9683 113.769 35.399C113.996 35.8183 114.319 36.147 114.738 36.385C115.158 36.6117 115.639 36.725 116.183 36.725C116.637 36.725 117.05 36.6457 117.424 36.487C117.81 36.3283 118.138 36.0903 118.41 35.773L119.396 36.776C119.011 37.2293 118.535 37.575 117.968 37.813C117.413 38.051 116.818 38.17 116.183 38.17ZM124.125 38.17C123.671 38.17 123.241 38.1133 122.833 38C122.436 37.8753 122.068 37.7053 121.728 37.49C121.388 37.2633 121.093 36.997 120.844 36.691L121.83 35.705C122.124 36.0677 122.464 36.3397 122.85 36.521C123.235 36.691 123.666 36.776 124.142 36.776C124.618 36.776 124.986 36.6967 125.247 36.538C125.507 36.368 125.638 36.1357 125.638 35.841C125.638 35.5463 125.53 35.3197 125.315 35.161C125.111 34.991 124.844 34.855 124.516 34.753C124.187 34.6397 123.836 34.532 123.462 34.43C123.099 34.3167 122.753 34.175 122.425 34.005C122.096 33.835 121.824 33.6027 121.609 33.308C121.405 33.0133 121.303 32.6223 121.303 32.135C121.303 31.6477 121.422 31.2283 121.66 30.877C121.898 30.5143 122.226 30.2367 122.646 30.044C123.076 29.8513 123.592 29.755 124.193 29.755C124.827 29.755 125.388 29.8683 125.876 30.095C126.374 30.3103 126.782 30.639 127.1 31.081L126.114 32.067C125.887 31.7723 125.604 31.5457 125.264 31.387C124.935 31.2283 124.561 31.149 124.142 31.149C123.7 31.149 123.36 31.2283 123.122 31.387C122.895 31.5343 122.782 31.744 122.782 32.016C122.782 32.288 122.884 32.4977 123.088 32.645C123.292 32.7923 123.558 32.917 123.887 33.019C124.227 33.121 124.578 33.2287 124.941 33.342C125.303 33.444 125.649 33.5857 125.978 33.767C126.306 33.9483 126.573 34.192 126.777 34.498C126.992 34.804 127.1 35.2063 127.1 35.705C127.1 36.4643 126.828 37.065 126.284 37.507C125.751 37.949 125.031 38.17 124.125 38.17ZM133.062 38.17C132.45 38.17 131.895 38.0453 131.396 37.796C130.909 37.5353 130.518 37.1783 130.223 36.725C129.929 36.2717 129.764 35.756 129.73 35.178V32.747C129.764 32.1577 129.929 31.642 130.223 31.2C130.529 30.7467 130.926 30.3953 131.413 30.146C131.912 29.8853 132.462 29.755 133.062 29.755C133.799 29.755 134.462 29.942 135.051 30.316C135.652 30.69 136.122 31.1943 136.462 31.829C136.802 32.4637 136.972 33.1777 136.972 33.971C136.972 34.7643 136.802 35.4783 136.462 36.113C136.122 36.7477 135.652 37.252 135.051 37.626C134.462 37.9887 133.799 38.17 133.062 38.17ZM132.807 36.725C133.317 36.725 133.765 36.606 134.15 36.368C134.536 36.13 134.842 35.807 135.068 35.399C135.295 34.9797 135.408 34.498 135.408 33.954C135.408 33.4213 135.295 32.9453 135.068 32.526C134.842 32.1067 134.536 31.7837 134.15 31.557C133.765 31.319 133.323 31.2 132.824 31.2C132.314 31.2 131.867 31.319 131.481 31.557C131.096 31.7837 130.796 32.1067 130.58 32.526C130.365 32.9453 130.257 33.427 130.257 33.971C130.257 34.5037 130.359 34.9797 130.563 35.399C130.779 35.807 131.079 36.13 131.464 36.368C131.861 36.606 132.309 36.725 132.807 36.725ZM128.812 41.383V29.925H130.342V32.05L130.053 34.005L130.342 35.977V41.383H128.812ZM142.447 38.17C141.642 38.17 140.917 37.9887 140.271 37.626C139.625 37.252 139.115 36.7477 138.741 36.113C138.367 35.4783 138.18 34.7587 138.18 33.954C138.18 33.1607 138.361 32.4467 138.724 31.812C139.098 31.1773 139.597 30.6787 140.22 30.316C140.855 29.942 141.563 29.755 142.345 29.755C143.093 29.755 143.75 29.925 144.317 30.265C144.895 30.605 145.343 31.0753 145.66 31.676C145.989 32.2767 146.153 32.9567 146.153 33.716C146.153 33.8293 146.147 33.954 146.136 34.09C146.125 34.2147 146.102 34.362 146.068 34.532H139.251V33.257H145.252L144.691 33.75C144.691 33.206 144.595 32.747 144.402 32.373C144.209 31.9877 143.937 31.693 143.586 31.489C143.235 31.2737 142.81 31.166 142.311 31.166C141.79 31.166 141.331 31.2793 140.934 31.506C140.537 31.7327 140.231 32.05 140.016 32.458C139.801 32.866 139.693 33.3477 139.693 33.903C139.693 34.4697 139.806 34.9683 140.033 35.399C140.26 35.8183 140.583 36.147 141.002 36.385C141.421 36.6117 141.903 36.725 142.447 36.725C142.9 36.725 143.314 36.6457 143.688 36.487C144.073 36.3283 144.402 36.0903 144.674 35.773L145.66 36.776C145.275 37.2293 144.799 37.575 144.232 37.813C143.677 38.051 143.082 38.17 142.447 38.17ZM151.51 38.17C150.717 38.17 149.997 37.983 149.351 37.609C148.717 37.235 148.212 36.7307 147.838 36.096C147.476 35.45 147.294 34.736 147.294 33.954C147.294 33.1607 147.476 32.4467 147.838 31.812C148.212 31.1773 148.717 30.6787 149.351 30.316C149.997 29.942 150.717 29.755 151.51 29.755C152.134 29.755 152.712 29.874 153.244 30.112C153.777 30.3387 154.236 30.673 154.621 31.115L153.601 32.135C153.352 31.8403 153.046 31.6193 152.683 31.472C152.332 31.3133 151.941 31.234 151.51 31.234C151 31.234 150.547 31.353 150.15 31.591C149.754 31.8177 149.442 32.135 149.215 32.543C148.989 32.951 148.875 33.4213 148.875 33.954C148.875 34.4867 148.989 34.957 149.215 35.365C149.442 35.773 149.754 36.096 150.15 36.334C150.547 36.572 151 36.691 151.51 36.691C151.941 36.691 152.332 36.6173 152.683 36.47C153.046 36.3113 153.358 36.0847 153.618 35.79L154.621 36.81C154.247 37.2407 153.788 37.575 153.244 37.813C152.712 38.051 152.134 38.17 151.51 38.17ZM156.156 38V29.925H157.686V38H156.156ZM156.921 28.31C156.637 28.31 156.405 28.2193 156.224 28.038C156.042 27.8453 155.952 27.6073 155.952 27.324C155.952 27.052 156.042 26.8253 156.224 26.644C156.405 26.4513 156.637 26.355 156.921 26.355C157.204 26.355 157.436 26.4513 157.618 26.644C157.799 26.8253 157.89 27.052 157.89 27.324C157.89 27.6073 157.799 27.8453 157.618 28.038C157.436 28.2193 157.204 28.31 156.921 28.31ZM163.374 38.17C162.638 38.17 161.969 37.9887 161.368 37.626C160.768 37.252 160.292 36.7477 159.94 36.113C159.6 35.4783 159.43 34.7643 159.43 33.971C159.43 33.1777 159.6 32.4637 159.94 31.829C160.292 31.1943 160.762 30.69 161.351 30.316C161.952 29.942 162.626 29.755 163.374 29.755C163.986 29.755 164.53 29.8853 165.006 30.146C165.494 30.3953 165.885 30.7467 166.179 31.2C166.474 31.642 166.638 32.1577 166.672 32.747V35.178C166.638 35.756 166.474 36.2717 166.179 36.725C165.896 37.1783 165.511 37.5353 165.023 37.796C164.547 38.0453 163.998 38.17 163.374 38.17ZM163.629 36.725C164.389 36.725 165.001 36.47 165.465 35.96C165.93 35.4387 166.162 34.7757 166.162 33.971C166.162 33.4157 166.055 32.934 165.839 32.526C165.635 32.1067 165.341 31.7837 164.955 31.557C164.57 31.319 164.122 31.2 163.612 31.2C163.102 31.2 162.649 31.319 162.252 31.557C161.867 31.795 161.561 32.1237 161.334 32.543C161.119 32.951 161.011 33.4213 161.011 33.954C161.011 34.498 161.119 34.9797 161.334 35.399C161.561 35.807 161.873 36.13 162.269 36.368C162.666 36.606 163.119 36.725 163.629 36.725ZM166.06 38V35.824L166.349 33.852L166.06 31.897V29.925H167.607V38H166.06ZM169.835 38V25.862H171.365V38H169.835ZM173.62 38V29.925H175.15V38H173.62ZM174.385 28.31C174.102 28.31 173.87 28.2193 173.688 28.038C173.507 27.8453 173.416 27.6073 173.416 27.324C173.416 27.052 173.507 26.8253 173.688 26.644C173.87 26.4513 174.102 26.355 174.385 26.355C174.669 26.355 174.901 26.4513 175.082 26.644C175.264 26.8253 175.354 27.052 175.354 27.324C175.354 27.6073 175.264 27.8453 175.082 28.038C174.901 28.2193 174.669 28.31 174.385 28.31ZM179.972 38.17C179.519 38.17 179.088 38.1133 178.68 38C178.284 37.8753 177.915 37.7053 177.575 37.49C177.235 37.2633 176.941 36.997 176.691 36.691L177.677 35.705C177.972 36.0677 178.312 36.3397 178.697 36.521C179.083 36.691 179.513 36.776 179.989 36.776C180.465 36.776 180.834 36.6967 181.094 36.538C181.355 36.368 181.485 36.1357 181.485 35.841C181.485 35.5463 181.378 35.3197 181.162 35.161C180.958 34.991 180.692 34.855 180.363 34.753C180.035 34.6397 179.683 34.532 179.309 34.43C178.947 34.3167 178.601 34.175 178.272 34.005C177.944 33.835 177.672 33.6027 177.456 33.308C177.252 33.0133 177.15 32.6223 177.15 32.135C177.15 31.6477 177.269 31.2283 177.507 30.877C177.745 30.5143 178.074 30.2367 178.493 30.044C178.924 29.8513 179.44 29.755 180.04 29.755C180.675 29.755 181.236 29.8683 181.723 30.095C182.222 30.3103 182.63 30.639 182.947 31.081L181.961 32.067C181.735 31.7723 181.451 31.5457 181.111 31.387C180.783 31.2283 180.409 31.149 179.989 31.149C179.547 31.149 179.207 31.2283 178.969 31.387C178.743 31.5343 178.629 31.744 178.629 32.016C178.629 32.288 178.731 32.4977 178.935 32.645C179.139 32.7923 179.406 32.917 179.734 33.019C180.074 33.121 180.426 33.2287 180.788 33.342C181.151 33.444 181.497 33.5857 181.825 33.767C182.154 33.9483 182.42 34.192 182.624 34.498C182.84 34.804 182.947 35.2063 182.947 35.705C182.947 36.4643 182.675 37.065 182.131 37.507C181.599 37.949 180.879 38.17 179.972 38.17ZM185.901 38V26.542H187.431V38H185.901ZM183.912 31.319V29.925H189.42V31.319H183.912ZM194.104 38.17C193.367 38.17 192.699 37.9887 192.098 37.626C191.497 37.252 191.021 36.7477 190.67 36.113C190.33 35.4783 190.16 34.7643 190.16 33.971C190.16 33.1777 190.33 32.4637 190.67 31.829C191.021 31.1943 191.492 30.69 192.081 30.316C192.682 29.942 193.356 29.755 194.104 29.755C194.716 29.755 195.26 29.8853 195.736 30.146C196.223 30.3953 196.614 30.7467 196.909 31.2C197.204 31.642 197.368 32.1577 197.402 32.747V35.178C197.368 35.756 197.204 36.2717 196.909 36.725C196.626 37.1783 196.24 37.5353 195.753 37.796C195.277 38.0453 194.727 38.17 194.104 38.17ZM194.359 36.725C195.118 36.725 195.73 36.47 196.195 35.96C196.66 35.4387 196.892 34.7757 196.892 33.971C196.892 33.4157 196.784 32.934 196.569 32.526C196.365 32.1067 196.07 31.7837 195.685 31.557C195.3 31.319 194.852 31.2 194.342 31.2C193.832 31.2 193.379 31.319 192.982 31.557C192.597 31.795 192.291 32.1237 192.064 32.543C191.849 32.951 191.741 33.4213 191.741 33.954C191.741 34.498 191.849 34.9797 192.064 35.399C192.291 35.807 192.602 36.13 192.999 36.368C193.396 36.606 193.849 36.725 194.359 36.725ZM196.79 38V35.824L197.079 33.852L196.79 31.897V29.925H198.337V38H196.79ZM203.131 38.17C202.678 38.17 202.247 38.1133 201.839 38C201.443 37.8753 201.074 37.7053 200.734 37.49C200.394 37.2633 200.1 36.997 199.85 36.691L200.836 35.705C201.131 36.0677 201.471 36.3397 201.856 36.521C202.242 36.691 202.672 36.776 203.148 36.776C203.624 36.776 203.993 36.6967 204.253 36.538C204.514 36.368 204.644 36.1357 204.644 35.841C204.644 35.5463 204.537 35.3197 204.321 35.161C204.117 34.991 203.851 34.855 203.522 34.753C203.194 34.6397 202.842 34.532 202.468 34.43C202.106 34.3167 201.76 34.175 201.431 34.005C201.103 33.835 200.831 33.6027 200.615 33.308C200.411 33.0133 200.309 32.6223 200.309 32.135C200.309 31.6477 200.428 31.2283 200.666 30.877C200.904 30.5143 201.233 30.2367 201.652 30.044C202.083 29.8513 202.599 29.755 203.199 29.755C203.834 29.755 204.395 29.8683 204.882 30.095C205.381 30.3103 205.789 30.639 206.106 31.081L205.12 32.067C204.894 31.7723 204.61 31.5457 204.27 31.387C203.942 31.2283 203.568 31.149 203.148 31.149C202.706 31.149 202.366 31.2283 202.128 31.387C201.902 31.5343 201.788 31.744 201.788 32.016C201.788 32.288 201.89 32.4977 202.094 32.645C202.298 32.7923 202.565 32.917 202.893 33.019C203.233 33.121 203.585 33.2287 203.947 33.342C204.31 33.444 204.656 33.5857 204.984 33.767C205.313 33.9483 205.579 34.192 205.783 34.498C205.999 34.804 206.106 35.2063 206.106 35.705C206.106 36.4643 205.834 37.065 205.29 37.507C204.758 37.949 204.038 38.17 203.131 38.17Z" fill="black"/>
<g filter="url(#filter1_d_0_1)">
<rect x="193" y="74" width="118" height="18" rx="9" fill="#0029FF"/>
</g>
<path d="M238.341 87L241.465 79.366H242.213L245.326 87H244.204L241.641 80.543H242.026L239.441 87H238.341ZM239.826 85.273V84.371H243.841V85.273H239.826ZM248.439 87.11C247.926 87.11 247.46 86.989 247.042 86.747C246.632 86.505 246.305 86.1787 246.063 85.768C245.829 85.35 245.711 84.888 245.711 84.382C245.711 83.8687 245.829 83.4067 246.063 82.996C246.305 82.5853 246.632 82.2627 247.042 82.028C247.46 81.786 247.926 81.665 248.439 81.665C248.843 81.665 249.217 81.742 249.561 81.896C249.906 82.0427 250.203 82.259 250.452 82.545L249.792 83.205C249.631 83.0143 249.433 82.8713 249.198 82.776C248.971 82.6733 248.718 82.622 248.439 82.622C248.109 82.622 247.816 82.699 247.559 82.853C247.303 82.9997 247.101 83.205 246.954 83.469C246.808 83.733 246.734 84.0373 246.734 84.382C246.734 84.7267 246.808 85.031 246.954 85.295C247.101 85.559 247.303 85.768 247.559 85.922C247.816 86.076 248.109 86.153 248.439 86.153C248.718 86.153 248.971 86.1053 249.198 86.01C249.433 85.9073 249.635 85.7607 249.803 85.57L250.452 86.23C250.21 86.5087 249.913 86.725 249.561 86.879C249.217 87.033 248.843 87.11 248.439 87.11ZM253.747 87.11C253.226 87.11 252.757 86.9927 252.339 86.758C251.921 86.516 251.591 86.1897 251.349 85.779C251.107 85.3683 250.986 84.9027 250.986 84.382C250.986 83.8687 251.103 83.4067 251.338 82.996C251.58 82.5853 251.902 82.2627 252.306 82.028C252.716 81.786 253.175 81.665 253.681 81.665C254.165 81.665 254.59 81.775 254.957 81.995C255.331 82.215 255.62 82.5193 255.826 82.908C256.038 83.2967 256.145 83.7367 256.145 84.228C256.145 84.3013 256.141 84.382 256.134 84.47C256.126 84.5507 256.112 84.646 256.09 84.756H251.679V83.931H255.562L255.199 84.25C255.199 83.898 255.136 83.601 255.012 83.359C254.887 83.1097 254.711 82.919 254.484 82.787C254.256 82.6477 253.981 82.578 253.659 82.578C253.321 82.578 253.024 82.6513 252.768 82.798C252.511 82.9447 252.313 83.15 252.174 83.414C252.034 83.678 251.965 83.9897 251.965 84.349C251.965 84.7157 252.038 85.0383 252.185 85.317C252.331 85.5883 252.54 85.801 252.812 85.955C253.083 86.1017 253.395 86.175 253.747 86.175C254.04 86.175 254.308 86.1237 254.55 86.021C254.799 85.9183 255.012 85.7643 255.188 85.559L255.826 86.208C255.576 86.5013 255.268 86.725 254.902 86.879C254.542 87.033 254.157 87.11 253.747 87.11ZM258.885 87.11C258.592 87.11 258.313 87.0733 258.049 87C257.792 86.9193 257.554 86.8093 257.334 86.67C257.114 86.5233 256.923 86.351 256.762 86.153L257.4 85.515C257.591 85.7497 257.811 85.9257 258.06 86.043C258.309 86.153 258.588 86.208 258.896 86.208C259.204 86.208 259.442 86.1567 259.611 86.054C259.78 85.944 259.864 85.7937 259.864 85.603C259.864 85.4123 259.794 85.2657 259.655 85.163C259.523 85.053 259.351 84.965 259.138 84.899C258.925 84.8257 258.698 84.756 258.456 84.69C258.221 84.6167 257.998 84.525 257.785 84.415C257.572 84.305 257.396 84.1547 257.257 83.964C257.125 83.7733 257.059 83.5203 257.059 83.205C257.059 82.8897 257.136 82.6183 257.29 82.391C257.444 82.1563 257.657 81.9767 257.928 81.852C258.207 81.7273 258.54 81.665 258.929 81.665C259.34 81.665 259.703 81.7383 260.018 81.885C260.341 82.0243 260.605 82.237 260.81 82.523L260.172 83.161C260.025 82.9703 259.842 82.8237 259.622 82.721C259.409 82.6183 259.167 82.567 258.896 82.567C258.61 82.567 258.39 82.6183 258.236 82.721C258.089 82.8163 258.016 82.952 258.016 83.128C258.016 83.304 258.082 83.4397 258.214 83.535C258.346 83.6303 258.518 83.711 258.731 83.777C258.951 83.843 259.178 83.9127 259.413 83.986C259.648 84.052 259.871 84.1437 260.084 84.261C260.297 84.3783 260.469 84.536 260.601 84.734C260.74 84.932 260.81 85.1923 260.81 85.515C260.81 86.0063 260.634 86.395 260.282 86.681C259.937 86.967 259.472 87.11 258.885 87.11ZM263.579 87.11C263.286 87.11 263.007 87.0733 262.743 87C262.487 86.9193 262.248 86.8093 262.028 86.67C261.808 86.5233 261.618 86.351 261.456 86.153L262.094 85.515C262.285 85.7497 262.505 85.9257 262.754 86.043C263.004 86.153 263.282 86.208 263.59 86.208C263.898 86.208 264.137 86.1567 264.305 86.054C264.474 85.944 264.558 85.7937 264.558 85.603C264.558 85.4123 264.489 85.2657 264.349 85.163C264.217 85.053 264.045 84.965 263.832 84.899C263.62 84.8257 263.392 84.756 263.15 84.69C262.916 84.6167 262.692 84.525 262.479 84.415C262.267 84.305 262.091 84.1547 261.951 83.964C261.819 83.7733 261.753 83.5203 261.753 83.205C261.753 82.8897 261.83 82.6183 261.984 82.391C262.138 82.1563 262.351 81.9767 262.622 81.852C262.901 81.7273 263.235 81.665 263.623 81.665C264.034 81.665 264.397 81.7383 264.712 81.885C265.035 82.0243 265.299 82.237 265.504 82.523L264.866 83.161C264.72 82.9703 264.536 82.8237 264.316 82.721C264.104 82.6183 263.862 82.567 263.59 82.567C263.304 82.567 263.084 82.6183 262.93 82.721C262.784 82.8163 262.71 82.952 262.71 83.128C262.71 83.304 262.776 83.4397 262.908 83.535C263.04 83.6303 263.213 83.711 263.425 83.777C263.645 83.843 263.873 83.9127 264.107 83.986C264.342 84.052 264.566 84.1437 264.778 84.261C264.991 84.3783 265.163 84.536 265.295 84.734C265.435 84.932 265.504 85.1923 265.504 85.515C265.504 86.0063 265.328 86.395 264.976 86.681C264.632 86.967 264.166 87.11 263.579 87.11ZM268.835 87.11C268.358 87.11 267.925 86.9927 267.537 86.758C267.148 86.516 266.84 86.1897 266.613 85.779C266.393 85.3683 266.283 84.9063 266.283 84.393C266.283 83.8797 266.393 83.4177 266.613 83.007C266.84 82.5963 267.144 82.27 267.526 82.028C267.914 81.786 268.351 81.665 268.835 81.665C269.231 81.665 269.583 81.7493 269.891 81.918C270.206 82.0793 270.459 82.3067 270.65 82.6C270.84 82.886 270.947 83.2197 270.969 83.601V85.174C270.947 85.548 270.84 85.8817 270.65 86.175C270.466 86.4683 270.217 86.6993 269.902 86.868C269.594 87.0293 269.238 87.11 268.835 87.11ZM269 86.175C269.491 86.175 269.887 86.01 270.188 85.68C270.488 85.3427 270.639 84.9137 270.639 84.393C270.639 84.0337 270.569 83.722 270.43 83.458C270.298 83.1867 270.107 82.9777 269.858 82.831C269.608 82.677 269.319 82.6 268.989 82.6C268.659 82.6 268.365 82.677 268.109 82.831C267.859 82.985 267.661 83.1977 267.515 83.469C267.375 83.733 267.306 84.0373 267.306 84.382C267.306 84.734 267.375 85.0457 267.515 85.317C267.661 85.581 267.863 85.79 268.12 85.944C268.376 86.098 268.67 86.175 269 86.175ZM270.573 87V85.592L270.76 84.316L270.573 83.051V81.775H271.574V87H270.573ZM273.015 87V81.775H274.005V87H273.015ZM274.005 84.019L273.631 83.854C273.631 83.1867 273.785 82.655 274.093 82.259C274.401 81.863 274.845 81.665 275.424 81.665C275.688 81.665 275.926 81.7127 276.139 81.808C276.352 81.896 276.55 82.0463 276.733 82.259L276.084 82.93C275.974 82.8127 275.853 82.7283 275.721 82.677C275.589 82.6257 275.435 82.6 275.259 82.6C274.892 82.6 274.592 82.7173 274.357 82.952C274.122 83.1867 274.005 83.5423 274.005 84.019Z" fill="white"/>
<defs>
<filter id="filter0_d_0_1" x="0" y="0" width="344" height="116" filterUnits="userSpaceOnUse" color-interpolation-filters="sRGB">
<feFlood flood-opacity="0" result="BackgroundImageFix"/>
<feColorMatrix in="SourceAlpha" type="matrix" values="0 0 0 0 0 0 0 0 0 0 0 0 0 0 0 0 0 0 127 0" result="hardAlpha"/>
<feOffset dy="4"/>
<feGaussianBlur stdDeviation="2"/>
<feComposite in2="hardAlpha" operator="out"/>
<feColorMatrix type="matrix" values="0 0 0 0 0 0 0 0 0 0 0 0 0 0 0 0 0 0 0.25 0"/>
<feBlend mode="normal" in2="BackgroundImageFix" result="effect1_dropShadow_0_1"/>
<feBlend mode="normal" in="SourceGraphic" in2="effect1_dropShadow_0_1" result="shape"/>
</filter>
<filter id="filter1_d_0_1" x="189" y="74" width="126" height="26" filterUnits="userSpaceOnUse" color-interpolation-filters="sRGB">
<feFlood flood-opacity="0" result="BackgroundImageFix"/>
<feColorMatrix in="SourceAlpha" type="matrix" values="0 0 0 0 0 0 0 0 0 0 0 0 0 0 0 0 0 0 127 0" result="hardAlpha"/>
<feOffset dy="4"/>
<feGaussianBlur stdDeviation="2"/>
<feComposite in2="hardAlpha" operator="out"/>
<feColorMatrix type="matrix" values="0 0 0 0 0 0 0 0 0 0 0 0 0 0 0 0 0 0 0.25 0"/>
<feBlend mode="normal" in2="BackgroundImageFix" result="effect1_dropShadow_0_1"/>
<feBlend mode="normal" in="SourceGraphic" in2="effect1_dropShadow_0_1" result="shape"/>
</filter>
<linearGradient id="paint0_linear_0_1" x1="4" y1="54" x2="340" y2="54" gradientUnits="userSpaceOnUse">
<stop stop-color="#0029FF"/>
<stop offset="1" stop-color="#00D1FF"/>
</linearGradient>
</defs>
</svg>
