<svg width="344" height="121" viewBox="0 0 344 121" fill="none" xmlns="http://www.w3.org/2000/svg">
<g filter="url(#filter0_d_0_1)">
<rect x="4" width="336" height="113" rx="25" fill="url(#paint0_linear_0_1)"/>
</g>
<g clip-path="url(#clip0_0_1)">
<path d="M33.4998 24.9995C33.2031 24.9995 32.9131 24.9116 32.6664 24.7467C32.4198 24.5819 32.2275 24.3477 32.114 24.0736C32.0004 23.7995 31.9707 23.4979 32.0286 23.2069C32.0865 22.9159 32.2293 22.6487 32.4391 22.4389C32.6489 22.2291 32.9162 22.0862 33.2071 22.0284C33.4981 21.9705 33.7997 22.0002 34.0738 22.1137C34.3479 22.2273 34.5822 22.4195 34.747 22.6662C34.9118 22.9129 34.9998 23.2029 34.9998 23.4995C34.9998 23.8974 34.8417 24.2789 34.5604 24.5602C34.2791 24.8415 33.8976 24.9995 33.4998 24.9995ZM42.9248 30.1435C43.0496 30.8617 43.0158 31.5986 42.8259 32.3024C42.6359 33.0061 42.2944 33.6599 41.8252 34.2178C41.356 34.7757 40.7705 35.2242 40.1097 35.532C39.4489 35.8398 38.7287 35.9994 37.9998 35.9995H33.9998C33.7346 35.9995 33.4802 35.8942 33.2927 35.7066C33.1051 35.5191 32.9998 35.2648 32.9998 34.9995V32.7365C32.347 32.9087 31.6749 32.9971 30.9998 32.9995C30.3243 32.9961 29.652 32.9053 28.9998 32.7295V34.9995C28.9998 35.2648 28.8944 35.5191 28.7069 35.7066C28.5194 35.8942 28.265 35.9995 27.9998 35.9995H23.9998C23.2708 35.9994 22.5507 35.8398 21.8899 35.532C21.2291 35.2242 20.6436 34.7757 20.1744 34.2178C19.7052 33.6599 19.3636 33.0061 19.1737 32.3024C18.9837 31.5986 18.95 30.8617 19.0748 30.1435L19.3748 28.4035C19.4746 27.8248 19.7454 27.2893 20.1524 26.8659C20.5594 26.4426 21.0838 26.1509 21.6582 26.0284C22.2325 25.906 22.8304 25.9584 23.3746 26.1789C23.9189 26.3994 24.3846 26.7779 24.7118 27.2655C25.9758 29.1235 28.4088 30.9995 30.9998 30.9995C34.1298 30.9995 37.2138 28.2205 38.1298 25.6235C38.2033 25.4283 38.3343 25.26 38.5056 25.1409C38.6768 25.0218 38.8802 24.9575 39.0888 24.9565L39.5208 24.9635C39.7144 24.9659 39.9066 24.9298 40.0861 24.8573C40.2656 24.7847 40.429 24.6772 40.5666 24.541C40.7042 24.4048 40.8134 24.2425 40.8877 24.0638C40.9621 23.885 41.0002 23.6932 40.9998 23.4995C40.9994 23.1488 40.8762 22.8093 40.6515 22.54C40.4267 22.2707 40.1148 22.0887 39.7698 22.0255C39.557 21.9869 39.3625 21.8804 39.2154 21.722C39.0683 21.5635 38.9765 21.3616 38.9538 21.1465C38.7482 19.1818 37.821 17.3633 36.3516 16.043C34.8822 14.7226 32.9752 13.9945 30.9998 13.9995C25.4228 13.9995 23.8918 17.6275 22.6618 20.5435C22.4378 21.0705 22.2268 21.5735 21.9998 22.0265C24.0106 21.9202 25.9713 21.3605 27.7352 20.3894C29.4991 19.4182 31.0206 18.0608 32.1858 16.4185C32.2621 16.3116 32.3587 16.2208 32.4701 16.1513C32.5815 16.0817 32.7055 16.0348 32.835 16.0131C32.9646 15.9915 33.0971 15.9956 33.225 16.0252C33.353 16.0547 33.4739 16.1092 33.5808 16.1855C33.6877 16.2618 33.7785 16.3584 33.8481 16.4698C33.9176 16.5812 33.9646 16.7052 33.9862 16.8348C34.0078 16.9643 34.0037 17.0969 33.9742 17.2248C33.9446 17.3528 33.8901 17.4736 33.8138 17.5805C32.5158 19.4207 30.8224 20.947 28.8578 22.0475C29.1573 22.1211 29.4268 22.2851 29.6297 22.5173C29.8326 22.7495 29.959 23.0386 29.9917 23.3453C30.0244 23.6519 29.9618 23.9612 29.8124 24.2309C29.663 24.5007 29.4341 24.7179 29.1568 24.8529C28.8796 24.9879 28.5675 25.0342 28.263 24.9854C27.9585 24.9367 27.6764 24.7952 27.4552 24.5804C27.234 24.3656 27.0843 24.0878 27.0266 23.7849C26.9689 23.482 27.006 23.1686 27.1328 22.8875C24.8336 23.8185 22.3476 24.1954 19.8758 23.9875C19.6698 23.9599 19.4775 23.8688 19.3256 23.7268C19.1738 23.5848 19.07 23.3991 19.0286 23.1954C18.9873 22.9917 19.0104 22.7801 19.0949 22.5902C19.1793 22.4002 19.3208 22.2413 19.4998 22.1355C20.1043 21.4496 20.5542 20.6417 20.8188 19.7665C22.1238 16.6735 24.0998 11.9995 30.9998 11.9995C33.3541 11.994 35.6346 12.8216 37.4373 14.3359C39.2401 15.8502 40.4489 17.9535 40.8498 20.2735C41.4861 20.5396 42.0297 20.9877 42.4122 21.5617C42.7947 22.1356 42.9991 22.8098 42.9998 23.4995C42.9981 24.3305 42.6946 25.1326 42.1458 25.7565C42.1528 25.7825 42.1708 25.8035 42.1758 25.8315L42.9248 30.1435ZM26.9998 31.9395C25.418 31.0919 24.0657 29.873 23.0588 28.3875C22.9731 28.258 22.8569 28.1516 22.7203 28.0777C22.5837 28.0037 22.4311 27.9645 22.2758 27.9635H22.2588C22.0399 27.9681 21.8293 28.0486 21.6631 28.1913C21.497 28.3339 21.3855 28.5298 21.3478 28.7455L21.0478 30.4845C20.9727 30.9153 20.9927 31.3573 21.1064 31.7795C21.2201 32.2018 21.4247 32.594 21.7059 32.9289C21.9872 33.2637 22.3382 33.5331 22.7344 33.718C23.1306 33.9029 23.5625 33.999 23.9998 33.9995H26.9998V31.9395ZM40.9548 30.4845L40.3268 26.8715C40.1366 26.9169 39.9429 26.9457 39.7478 26.9575C38.7389 29.0864 37.075 30.8365 34.9998 31.9515V33.9995H37.9998C38.4372 33.9994 38.8693 33.9037 39.2658 33.719C39.6623 33.5343 40.0137 33.2651 40.2952 32.9304C40.5767 32.5956 40.7816 32.2033 40.8956 31.7809C41.0095 31.3586 41.0297 30.9165 40.9548 30.4855V30.4845Z" fill="black"/>
</g>
<path d="M25.352 70.16C24.552 70.16 23.8107 70.016 23.128 69.728C22.4453 69.4293 21.848 69.0187 21.336 68.496C20.8347 67.9733 20.4453 67.3653 20.168 66.672C19.8907 65.9787 19.752 65.2373 19.752 64.448C19.752 63.648 19.8907 62.9013 20.168 62.208C20.4453 61.5147 20.8347 60.912 21.336 60.4C21.848 59.8773 22.44 59.472 23.112 59.184C23.7947 58.8853 24.536 58.736 25.336 58.736C26.2107 58.736 26.9787 58.8853 27.64 59.184C28.3013 59.4827 28.888 59.888 29.4 60.4L28.36 61.44C28.008 61.0453 27.576 60.736 27.064 60.512C26.5627 60.288 25.9867 60.176 25.336 60.176C24.7493 60.176 24.2107 60.2827 23.72 60.496C23.2293 60.6987 22.8027 60.992 22.44 61.376C22.0773 61.76 21.7947 62.2133 21.592 62.736C21.4 63.2587 21.304 63.8293 21.304 64.448C21.304 65.0667 21.4 65.6373 21.592 66.16C21.7947 66.6827 22.0773 67.136 22.44 67.52C22.8027 67.904 23.2293 68.2027 23.72 68.416C24.2107 68.6187 24.7493 68.72 25.336 68.72C26.0293 68.72 26.632 68.608 27.144 68.384C27.656 68.1493 28.088 67.8347 28.44 67.44L29.48 68.464C28.968 68.9973 28.3653 69.4133 27.672 69.712C26.9893 70.0107 26.216 70.16 25.352 70.16ZM34.278 70.16C33.5313 70.16 32.8593 69.984 32.262 69.632C31.6647 69.28 31.19 68.8053 30.838 68.208C30.486 67.6 30.31 66.9227 30.31 66.176C30.31 65.44 30.486 64.7787 30.838 64.192C31.19 63.5947 31.6647 63.12 32.262 62.768C32.8593 62.416 33.5313 62.24 34.278 62.24C35.014 62.24 35.6807 62.416 36.278 62.768C36.886 63.1093 37.366 63.5787 37.718 64.176C38.07 64.7733 38.246 65.44 38.246 66.176C38.246 66.9227 38.07 67.6 37.718 68.208C37.366 68.8053 36.886 69.28 36.278 69.632C35.6807 69.984 35.014 70.16 34.278 70.16ZM34.278 68.768C34.758 68.768 35.1847 68.656 35.558 68.432C35.9313 68.208 36.2247 67.904 36.438 67.52C36.6513 67.1253 36.758 66.6773 36.758 66.176C36.758 65.6853 36.646 65.248 36.422 64.864C36.2087 64.48 35.9153 64.1813 35.542 63.968C35.1793 63.744 34.758 63.632 34.278 63.632C33.798 63.632 33.3713 63.744 32.998 63.968C32.6247 64.1813 32.3313 64.48 32.118 64.864C31.9047 65.248 31.798 65.6853 31.798 66.176C31.798 66.6773 31.9047 67.1253 32.118 67.52C32.3313 67.904 32.6247 68.208 32.998 68.432C33.3713 68.656 33.798 68.768 34.278 68.768ZM39.8685 70V62.4H41.3085V70H39.8685ZM45.0045 70V65.408C45.0045 64.8427 44.8285 64.4 44.4765 64.08C44.1352 63.7493 43.7032 63.584 43.1805 63.584C42.8285 63.584 42.5138 63.6587 42.2365 63.808C41.9592 63.9573 41.7352 64.1653 41.5645 64.432C41.3938 64.6987 41.3085 65.0187 41.3085 65.392L40.7165 65.104C40.7165 64.528 40.8392 64.0267 41.0845 63.6C41.3405 63.1733 41.6872 62.8427 42.1245 62.608C42.5618 62.3627 43.0525 62.24 43.5965 62.24C44.1298 62.24 44.6098 62.3573 45.0365 62.592C45.4738 62.8267 45.8152 63.1573 46.0605 63.584C46.3165 64.0107 46.4445 64.5173 46.4445 65.104V70H45.0045ZM50.1405 70V65.408C50.1405 64.8427 49.9645 64.4 49.6125 64.08C49.2712 63.7493 48.8445 63.584 48.3325 63.584C47.9805 63.584 47.6605 63.6587 47.3725 63.808C47.0952 63.9573 46.8712 64.1653 46.7005 64.432C46.5298 64.6987 46.4445 65.0187 46.4445 65.392L45.6285 65.104C45.6605 64.5173 45.8152 64.016 46.0925 63.6C46.3805 63.1733 46.7485 62.8427 47.1965 62.608C47.6445 62.3627 48.1352 62.24 48.6685 62.24C49.2232 62.24 49.7192 62.3573 50.1565 62.592C50.5938 62.8267 50.9405 63.1573 51.1965 63.584C51.4632 64.0107 51.5965 64.5227 51.5965 65.12V70H50.1405ZM57.556 70.16C56.98 70.16 56.4573 70.0427 55.988 69.808C55.5293 69.5627 55.1613 69.2267 54.884 68.8C54.6067 68.3733 54.452 67.888 54.42 67.344V65.056C54.452 64.5013 54.6067 64.016 54.884 63.6C55.172 63.1733 55.5453 62.8427 56.004 62.608C56.4733 62.3627 56.9907 62.24 57.556 62.24C58.2493 62.24 58.8733 62.416 59.428 62.768C59.9933 63.12 60.436 63.5947 60.756 64.192C61.076 64.7893 61.236 65.4613 61.236 66.208C61.236 66.9547 61.076 67.6267 60.756 68.224C60.436 68.8213 59.9933 69.296 59.428 69.648C58.8733 69.9893 58.2493 70.16 57.556 70.16ZM57.316 68.8C57.796 68.8 58.2173 68.688 58.58 68.464C58.9427 68.24 59.2307 67.936 59.444 67.552C59.6573 67.1573 59.764 66.704 59.764 66.192C59.764 65.6907 59.6573 65.2427 59.444 64.848C59.2307 64.4533 58.9427 64.1493 58.58 63.936C58.2173 63.712 57.8013 63.6 57.332 63.6C56.852 63.6 56.4307 63.712 56.068 63.936C55.7053 64.1493 55.4227 64.4533 55.22 64.848C55.0173 65.2427 54.916 65.696 54.916 66.208C54.916 66.7093 55.012 67.1573 55.204 67.552C55.4067 67.936 55.6893 68.24 56.052 68.464C56.4253 68.688 56.8467 68.8 57.316 68.8ZM53.556 73.184V62.4H54.996V64.4L54.724 66.24L54.996 68.096V73.184H53.556ZM62.8685 70V58.576H64.3085V70H62.8685ZM69.9354 70.16C69.178 70.16 68.4954 69.9893 67.8874 69.648C67.2794 69.296 66.7994 68.8213 66.4474 68.224C66.0954 67.6267 65.9194 66.9493 65.9194 66.192C65.9194 65.4453 66.09 64.7733 66.4314 64.176C66.7834 63.5787 67.2527 63.1093 67.8394 62.768C68.4367 62.416 69.1034 62.24 69.8394 62.24C70.5434 62.24 71.162 62.4 71.6954 62.72C72.2394 63.04 72.6607 63.4827 72.9594 64.048C73.2687 64.6133 73.4234 65.2533 73.4234 65.968C73.4234 66.0747 73.418 66.192 73.4074 66.32C73.3967 66.4373 73.3754 66.576 73.3434 66.736H66.9274V65.536H72.5754L72.0474 66C72.0474 65.488 71.9567 65.056 71.7754 64.704C71.594 64.3413 71.338 64.064 71.0074 63.872C70.6767 63.6693 70.2767 63.568 69.8074 63.568C69.3167 63.568 68.8847 63.6747 68.5114 63.888C68.138 64.1013 67.85 64.4 67.6474 64.784C67.4447 65.168 67.3434 65.6213 67.3434 66.144C67.3434 66.6773 67.45 67.1467 67.6634 67.552C67.8767 67.9467 68.1807 68.256 68.5754 68.48C68.97 68.6933 69.4234 68.8 69.9354 68.8C70.362 68.8 70.7514 68.7253 71.1034 68.576C71.466 68.4267 71.7754 68.2027 72.0314 67.904L72.9594 68.848C72.5967 69.2747 72.1487 69.6 71.6154 69.824C71.0927 70.048 70.5327 70.16 69.9354 70.16ZM75.9271 70V59.216H77.3671V70H75.9271ZM74.0551 63.712V62.4H79.2391V63.712H74.0551ZM83.9354 70.16C83.178 70.16 82.4954 69.9893 81.8874 69.648C81.2794 69.296 80.7994 68.8213 80.4474 68.224C80.0954 67.6267 79.9194 66.9493 79.9194 66.192C79.9194 65.4453 80.09 64.7733 80.4314 64.176C80.7834 63.5787 81.2527 63.1093 81.8394 62.768C82.4367 62.416 83.1034 62.24 83.8394 62.24C84.5434 62.24 85.162 62.4 85.6954 62.72C86.2394 63.04 86.6607 63.4827 86.9594 64.048C87.2687 64.6133 87.4234 65.2533 87.4234 65.968C87.4234 66.0747 87.418 66.192 87.4074 66.32C87.3967 66.4373 87.3754 66.576 87.3434 66.736H80.9274V65.536H86.5754L86.0474 66C86.0474 65.488 85.9567 65.056 85.7754 64.704C85.594 64.3413 85.338 64.064 85.0074 63.872C84.6767 63.6693 84.2767 63.568 83.8074 63.568C83.3167 63.568 82.8847 63.6747 82.5114 63.888C82.138 64.1013 81.85 64.4 81.6474 64.784C81.4447 65.168 81.3434 65.6213 81.3434 66.144C81.3434 66.6773 81.45 67.1467 81.6634 67.552C81.8767 67.9467 82.1807 68.256 82.5754 68.48C82.97 68.6933 83.4234 68.8 83.9354 68.8C84.362 68.8 84.7514 68.7253 85.1034 68.576C85.466 68.4267 85.7754 68.2027 86.0314 67.904L86.9594 68.848C86.5967 69.2747 86.1487 69.6 85.6154 69.824C85.0927 70.048 84.5327 70.16 83.9354 70.16ZM94.7376 70.16C94.311 70.16 93.9056 70.1067 93.5216 70C93.1483 69.8827 92.8016 69.7227 92.4816 69.52C92.1616 69.3067 91.8843 69.056 91.6496 68.768L92.5776 67.84C92.855 68.1813 93.175 68.4373 93.5376 68.608C93.9003 68.768 94.3056 68.848 94.7536 68.848C95.2016 68.848 95.5483 68.7733 95.7936 68.624C96.039 68.464 96.1616 68.2453 96.1616 67.968C96.1616 67.6907 96.0603 67.4773 95.8576 67.328C95.6656 67.168 95.415 67.04 95.1056 66.944C94.7963 66.8373 94.4656 66.736 94.1136 66.64C93.7723 66.5333 93.447 66.4 93.1376 66.24C92.8283 66.08 92.5723 65.8613 92.3696 65.584C92.1776 65.3067 92.0816 64.9387 92.0816 64.48C92.0816 64.0213 92.1936 63.6267 92.4176 63.296C92.6416 62.9547 92.951 62.6933 93.3456 62.512C93.751 62.3307 94.2363 62.24 94.8016 62.24C95.399 62.24 95.927 62.3467 96.3856 62.56C96.855 62.7627 97.239 63.072 97.5376 63.488L96.6096 64.416C96.3963 64.1387 96.1296 63.9253 95.8096 63.776C95.5003 63.6267 95.1483 63.552 94.7536 63.552C94.3376 63.552 94.0176 63.6267 93.7936 63.776C93.5803 63.9147 93.4736 64.112 93.4736 64.368C93.4736 64.624 93.5696 64.8213 93.7616 64.96C93.9536 65.0987 94.2043 65.216 94.5136 65.312C94.8336 65.408 95.1643 65.5093 95.5056 65.616C95.847 65.712 96.1723 65.8453 96.4816 66.016C96.791 66.1867 97.0416 66.416 97.2336 66.704C97.4363 66.992 97.5376 67.3707 97.5376 67.84C97.5376 68.5547 97.2816 69.12 96.7696 69.536C96.2683 69.952 95.591 70.16 94.7376 70.16ZM102.67 70.16C101.912 70.16 101.23 69.9893 100.622 69.648C100.014 69.296 99.5338 68.8213 99.1818 68.224C98.8298 67.6267 98.6538 66.9493 98.6538 66.192C98.6538 65.4453 98.8244 64.7733 99.1658 64.176C99.5178 63.5787 99.9871 63.1093 100.574 62.768C101.171 62.416 101.838 62.24 102.574 62.24C103.278 62.24 103.896 62.4 104.43 62.72C104.974 63.04 105.395 63.4827 105.694 64.048C106.003 64.6133 106.158 65.2533 106.158 65.968C106.158 66.0747 106.152 66.192 106.142 66.32C106.131 66.4373 106.11 66.576 106.078 66.736H99.6618V65.536H105.31L104.782 66C104.782 65.488 104.691 65.056 104.51 64.704C104.328 64.3413 104.072 64.064 103.742 63.872C103.411 63.6693 103.011 63.568 102.542 63.568C102.051 63.568 101.619 63.6747 101.246 63.888C100.872 64.1013 100.584 64.4 100.382 64.784C100.179 65.168 100.078 65.6213 100.078 66.144C100.078 66.6773 100.184 67.1467 100.398 67.552C100.611 67.9467 100.915 68.256 101.31 68.48C101.704 68.6933 102.158 68.8 102.67 68.8C103.096 68.8 103.486 68.7253 103.838 68.576C104.2 68.4267 104.51 68.2027 104.766 67.904L105.694 68.848C105.331 69.2747 104.883 69.6 104.35 69.824C103.827 70.048 103.267 70.16 102.67 70.16ZM110.784 70.16C110.165 70.16 109.605 70.0213 109.104 69.744C108.613 69.456 108.229 69.0613 107.952 68.56C107.675 68.0587 107.536 67.4773 107.536 66.816V62.4H108.976V66.752C108.976 67.168 109.045 67.5307 109.184 67.84C109.333 68.1387 109.547 68.368 109.824 68.528C110.101 68.688 110.427 68.768 110.8 68.768C111.365 68.768 111.808 68.592 112.128 68.24C112.448 67.8773 112.608 67.3813 112.608 66.752V62.4H114.048V66.816C114.048 67.4773 113.909 68.0587 113.632 68.56C113.355 69.0613 112.971 69.456 112.48 69.744C112 70.0213 111.435 70.16 110.784 70.16ZM123.306 70.16C122.73 70.16 122.207 70.0427 121.738 69.808C121.279 69.5627 120.911 69.2267 120.634 68.8C120.357 68.3733 120.202 67.888 120.17 67.344V65.056C120.202 64.5013 120.357 64.016 120.634 63.6C120.922 63.1733 121.295 62.8427 121.754 62.608C122.223 62.3627 122.741 62.24 123.306 62.24C123.999 62.24 124.623 62.416 125.178 62.768C125.743 63.12 126.186 63.5947 126.506 64.192C126.826 64.7893 126.986 65.4613 126.986 66.208C126.986 66.9547 126.826 67.6267 126.506 68.224C126.186 68.8213 125.743 69.296 125.178 69.648C124.623 69.9893 123.999 70.16 123.306 70.16ZM123.066 68.8C123.546 68.8 123.967 68.688 124.33 68.464C124.693 68.24 124.981 67.936 125.194 67.552C125.407 67.1573 125.514 66.704 125.514 66.192C125.514 65.6907 125.407 65.2427 125.194 64.848C124.981 64.4533 124.693 64.1493 124.33 63.936C123.967 63.712 123.551 63.6 123.082 63.6C122.602 63.6 122.181 63.712 121.818 63.936C121.455 64.1493 121.173 64.4533 120.97 64.848C120.767 65.2427 120.666 65.696 120.666 66.208C120.666 66.7093 120.762 67.1573 120.954 67.552C121.157 67.936 121.439 68.24 121.802 68.464C122.175 68.688 122.597 68.8 123.066 68.8ZM119.306 73.184V62.4H120.746V64.4L120.474 66.24L120.746 68.096V73.184H119.306ZM132.139 70.16C131.381 70.16 130.699 69.9893 130.091 69.648C129.483 69.296 129.003 68.8213 128.651 68.224C128.299 67.6267 128.123 66.9493 128.123 66.192C128.123 65.4453 128.293 64.7733 128.635 64.176C128.987 63.5787 129.456 63.1093 130.043 62.768C130.64 62.416 131.307 62.24 132.043 62.24C132.747 62.24 133.365 62.4 133.899 62.72C134.443 63.04 134.864 63.4827 135.163 64.048C135.472 64.6133 135.627 65.2533 135.627 65.968C135.627 66.0747 135.621 66.192 135.611 66.32C135.6 66.4373 135.579 66.576 135.547 66.736H129.131V65.536H134.779L134.251 66C134.251 65.488 134.16 65.056 133.979 64.704C133.797 64.3413 133.541 64.064 133.211 63.872C132.88 63.6693 132.48 63.568 132.011 63.568C131.52 63.568 131.088 63.6747 130.715 63.888C130.341 64.1013 130.053 64.4 129.851 64.784C129.648 65.168 129.547 65.6213 129.547 66.144C129.547 66.6773 129.653 67.1467 129.867 67.552C130.08 67.9467 130.384 68.256 130.779 68.48C131.173 68.6933 131.627 68.8 132.139 68.8C132.565 68.8 132.955 68.7253 133.307 68.576C133.669 68.4267 133.979 68.2027 134.235 67.904L135.163 68.848C134.8 69.2747 134.352 69.6 133.819 69.824C133.296 70.048 132.736 70.16 132.139 70.16ZM137.197 70V62.4H138.637V70H137.197ZM138.637 65.664L138.093 65.424C138.093 64.4533 138.317 63.68 138.765 63.104C139.213 62.528 139.858 62.24 140.701 62.24C141.085 62.24 141.431 62.3093 141.741 62.448C142.05 62.576 142.338 62.7947 142.605 63.104L141.661 64.08C141.501 63.9093 141.325 63.7867 141.133 63.712C140.941 63.6373 140.717 63.6 140.461 63.6C139.927 63.6 139.49 63.7707 139.149 64.112C138.807 64.4533 138.637 64.9707 138.637 65.664ZM144.675 70V61.024C144.675 60.5227 144.782 60.08 144.995 59.696C145.219 59.3013 145.529 58.992 145.923 58.768C146.318 58.5333 146.771 58.416 147.283 58.416C147.678 58.416 148.025 58.4853 148.323 58.624C148.622 58.752 148.899 58.9333 149.155 59.168L148.211 60.112C148.073 59.9947 147.929 59.9093 147.779 59.856C147.63 59.792 147.465 59.76 147.283 59.76C146.91 59.76 146.622 59.8773 146.419 60.112C146.217 60.336 146.115 60.64 146.115 61.024V70H144.675ZM142.803 63.712V62.4H150.019V63.712H142.803ZM149.187 70V62.4H150.643V70H149.187ZM149.907 61.6C149.651 61.6 149.438 61.5147 149.267 61.344C149.097 61.1627 149.011 60.9387 149.011 60.672C149.011 60.416 149.097 60.2027 149.267 60.032C149.438 59.8507 149.651 59.76 149.907 59.76C150.185 59.76 150.403 59.8507 150.563 60.032C150.734 60.2027 150.819 60.416 150.819 60.672C150.819 60.9387 150.734 61.1627 150.563 61.344C150.403 61.5147 150.185 61.6 149.907 61.6ZM152.759 70V58.576H154.199V70H152.759Z" fill="black"/>
<g filter="url(#filter1_d_0_1)">
<path d="M181 92C181 98.0751 185.925 103 192 103H311C317.075 103 322 98.0751 322 92C322 85.9249 317.075 81 311 81H192C185.925 81 181 85.9249 181 92Z" fill="#0029FF"/>
<path d="M181.5 92C181.5 97.799 186.201 102.5 192 102.5H311C316.799 102.5 321.5 97.799 321.5 92C321.5 86.201 316.799 81.5 311 81.5H192C186.201 81.5 181.5 86.201 181.5 92Z" stroke="#0029FF"/>
</g>
<path d="M215.764 98.12C215.164 98.12 214.608 98.012 214.096 97.796C213.584 97.572 213.136 97.264 212.752 96.872C212.376 96.48 212.084 96.024 211.876 95.504C211.668 94.984 211.564 94.428 211.564 93.836C211.564 93.236 211.668 92.676 211.876 92.156C212.084 91.636 212.376 91.184 212.752 90.8C213.136 90.408 213.58 90.104 214.084 89.888C214.596 89.664 215.152 89.552 215.752 89.552C216.408 89.552 216.984 89.664 217.48 89.888C217.976 90.112 218.416 90.416 218.8 90.8L218.02 91.58C217.756 91.284 217.432 91.052 217.048 90.884C216.672 90.716 216.24 90.632 215.752 90.632C215.312 90.632 214.908 90.712 214.54 90.872C214.172 91.024 213.852 91.244 213.58 91.532C213.308 91.82 213.096 92.16 212.944 92.552C212.8 92.944 212.728 93.372 212.728 93.836C212.728 94.3 212.8 94.728 212.944 95.12C213.096 95.512 213.308 95.852 213.58 96.14C213.852 96.428 214.172 96.652 214.54 96.812C214.908 96.964 215.312 97.04 215.752 97.04C216.272 97.04 216.724 96.956 217.108 96.788C217.492 96.612 217.816 96.376 218.08 96.08L218.86 96.848C218.476 97.248 218.024 97.56 217.504 97.784C216.992 98.008 216.412 98.12 215.764 98.12ZM222.459 98.12C221.899 98.12 221.395 97.988 220.947 97.724C220.499 97.46 220.143 97.104 219.879 96.656C219.615 96.2 219.483 95.692 219.483 95.132C219.483 94.58 219.615 94.084 219.879 93.644C220.143 93.196 220.499 92.84 220.947 92.576C221.395 92.312 221.899 92.18 222.459 92.18C223.011 92.18 223.511 92.312 223.959 92.576C224.415 92.832 224.775 93.184 225.039 93.632C225.303 94.08 225.435 94.58 225.435 95.132C225.435 95.692 225.303 96.2 225.039 96.656C224.775 97.104 224.415 97.46 223.959 97.724C223.511 97.988 223.011 98.12 222.459 98.12ZM222.459 97.076C222.819 97.076 223.139 96.992 223.419 96.824C223.699 96.656 223.919 96.428 224.079 96.14C224.239 95.844 224.319 95.508 224.319 95.132C224.319 94.764 224.235 94.436 224.067 94.148C223.907 93.86 223.687 93.636 223.407 93.476C223.135 93.308 222.819 93.224 222.459 93.224C222.099 93.224 221.779 93.308 221.499 93.476C221.219 93.636 220.999 93.86 220.839 94.148C220.679 94.436 220.599 94.764 220.599 95.132C220.599 95.508 220.679 95.844 220.839 96.14C220.999 96.428 221.219 96.656 221.499 96.824C221.779 96.992 222.099 97.076 222.459 97.076ZM226.651 98V92.3H227.731V98H226.651ZM230.503 98V94.556C230.503 94.132 230.371 93.8 230.107 93.56C229.851 93.312 229.527 93.188 229.135 93.188C228.871 93.188 228.635 93.244 228.427 93.356C228.219 93.468 228.051 93.624 227.923 93.824C227.795 94.024 227.731 94.264 227.731 94.544L227.287 94.328C227.287 93.896 227.379 93.52 227.563 93.2C227.755 92.88 228.015 92.632 228.343 92.456C228.671 92.272 229.039 92.18 229.447 92.18C229.847 92.18 230.207 92.268 230.527 92.444C230.855 92.62 231.111 92.868 231.295 93.188C231.487 93.508 231.583 93.888 231.583 94.328V98H230.503ZM234.355 98V94.556C234.355 94.132 234.223 93.8 233.959 93.56C233.703 93.312 233.383 93.188 232.999 93.188C232.735 93.188 232.495 93.244 232.279 93.356C232.071 93.468 231.903 93.624 231.775 93.824C231.647 94.024 231.583 94.264 231.583 94.544L230.971 94.328C230.995 93.888 231.111 93.512 231.319 93.2C231.535 92.88 231.811 92.632 232.147 92.456C232.483 92.272 232.851 92.18 233.251 92.18C233.667 92.18 234.039 92.268 234.367 92.444C234.695 92.62 234.955 92.868 235.147 93.188C235.347 93.508 235.447 93.892 235.447 94.34V98H234.355ZM239.917 98.12C239.485 98.12 239.093 98.032 238.741 97.856C238.397 97.672 238.121 97.42 237.913 97.1C237.705 96.78 237.589 96.416 237.565 96.008V94.292C237.589 93.876 237.705 93.512 237.913 93.2C238.129 92.88 238.409 92.632 238.753 92.456C239.105 92.272 239.493 92.18 239.917 92.18C240.437 92.18 240.905 92.312 241.321 92.576C241.745 92.84 242.077 93.196 242.317 93.644C242.557 94.092 242.677 94.596 242.677 95.156C242.677 95.716 242.557 96.22 242.317 96.668C242.077 97.116 241.745 97.472 241.321 97.736C240.905 97.992 240.437 98.12 239.917 98.12ZM239.737 97.1C240.097 97.1 240.413 97.016 240.685 96.848C240.957 96.68 241.173 96.452 241.333 96.164C241.493 95.868 241.573 95.528 241.573 95.144C241.573 94.768 241.493 94.432 241.333 94.136C241.173 93.84 240.957 93.612 240.685 93.452C240.413 93.284 240.101 93.2 239.749 93.2C239.389 93.2 239.073 93.284 238.801 93.452C238.529 93.612 238.317 93.84 238.165 94.136C238.013 94.432 237.937 94.772 237.937 95.156C237.937 95.532 238.009 95.868 238.153 96.164C238.305 96.452 238.517 96.68 238.789 96.848C239.069 97.016 239.385 97.1 239.737 97.1ZM236.917 100.388V92.3H237.997V93.8L237.793 95.18L237.997 96.572V100.388H236.917ZM243.901 98V89.432H244.981V98H243.901ZM249.202 98.12C248.634 98.12 248.122 97.992 247.666 97.736C247.21 97.472 246.85 97.116 246.586 96.668C246.322 96.22 246.19 95.712 246.19 95.144C246.19 94.584 246.318 94.08 246.574 93.632C246.838 93.184 247.19 92.832 247.63 92.576C248.078 92.312 248.578 92.18 249.13 92.18C249.658 92.18 250.122 92.3 250.522 92.54C250.93 92.78 251.246 93.112 251.47 93.536C251.702 93.96 251.818 94.44 251.818 94.976C251.818 95.056 251.814 95.144 251.806 95.24C251.798 95.328 251.782 95.432 251.758 95.552H246.946V94.652H251.182L250.786 95C250.786 94.616 250.718 94.292 250.582 94.028C250.446 93.756 250.254 93.548 250.006 93.404C249.758 93.252 249.458 93.176 249.106 93.176C248.738 93.176 248.414 93.256 248.134 93.416C247.854 93.576 247.638 93.8 247.486 94.088C247.334 94.376 247.258 94.716 247.258 95.108C247.258 95.508 247.338 95.86 247.498 96.164C247.658 96.46 247.886 96.692 248.182 96.86C248.478 97.02 248.818 97.1 249.202 97.1C249.522 97.1 249.814 97.044 250.078 96.932C250.35 96.82 250.582 96.652 250.774 96.428L251.47 97.136C251.198 97.456 250.862 97.7 250.462 97.868C250.07 98.036 249.65 98.12 249.202 98.12ZM253.695 98V89.912H254.775V98H253.695ZM252.291 93.284V92.3H256.179V93.284H252.291ZM259.702 98.12C259.134 98.12 258.622 97.992 258.166 97.736C257.71 97.472 257.35 97.116 257.086 96.668C256.822 96.22 256.69 95.712 256.69 95.144C256.69 94.584 256.818 94.08 257.074 93.632C257.338 93.184 257.69 92.832 258.13 92.576C258.578 92.312 259.078 92.18 259.63 92.18C260.158 92.18 260.622 92.3 261.022 92.54C261.43 92.78 261.746 93.112 261.97 93.536C262.202 93.96 262.318 94.44 262.318 94.976C262.318 95.056 262.314 95.144 262.306 95.24C262.298 95.328 262.282 95.432 262.258 95.552H257.446V94.652H261.682L261.286 95C261.286 94.616 261.218 94.292 261.082 94.028C260.946 93.756 260.754 93.548 260.506 93.404C260.258 93.252 259.958 93.176 259.606 93.176C259.238 93.176 258.914 93.256 258.634 93.416C258.354 93.576 258.138 93.8 257.986 94.088C257.834 94.376 257.758 94.716 257.758 95.108C257.758 95.508 257.838 95.86 257.998 96.164C258.158 96.46 258.386 96.692 258.682 96.86C258.978 97.02 259.318 97.1 259.702 97.1C260.022 97.1 260.314 97.044 260.578 96.932C260.85 96.82 261.082 96.652 261.274 96.428L261.97 97.136C261.698 97.456 261.362 97.7 260.962 97.868C260.57 98.036 260.15 98.12 259.702 98.12ZM268.991 98.12C268.559 98.12 268.167 98.032 267.815 97.856C267.471 97.672 267.195 97.42 266.987 97.1C266.779 96.78 266.663 96.416 266.639 96.008V94.292C266.663 93.876 266.779 93.512 266.987 93.2C267.203 92.88 267.483 92.632 267.827 92.456C268.179 92.272 268.567 92.18 268.991 92.18C269.511 92.18 269.979 92.312 270.395 92.576C270.819 92.84 271.151 93.196 271.391 93.644C271.631 94.092 271.751 94.596 271.751 95.156C271.751 95.716 271.631 96.22 271.391 96.668C271.151 97.116 270.819 97.472 270.395 97.736C269.979 97.992 269.511 98.12 268.991 98.12ZM268.811 97.1C269.171 97.1 269.487 97.016 269.759 96.848C270.031 96.68 270.247 96.452 270.407 96.164C270.567 95.868 270.647 95.528 270.647 95.144C270.647 94.768 270.567 94.432 270.407 94.136C270.247 93.84 270.031 93.612 269.759 93.452C269.487 93.284 269.175 93.2 268.823 93.2C268.463 93.2 268.147 93.284 267.875 93.452C267.603 93.612 267.391 93.84 267.239 94.136C267.087 94.432 267.011 94.772 267.011 95.156C267.011 95.532 267.083 95.868 267.227 96.164C267.379 96.452 267.591 96.68 267.863 96.848C268.143 97.016 268.459 97.1 268.811 97.1ZM265.991 100.388V92.3H267.071V93.8L266.867 95.18L267.071 96.572V100.388H265.991ZM275.616 98.12C275.048 98.12 274.536 97.992 274.08 97.736C273.624 97.472 273.264 97.116 273 96.668C272.736 96.22 272.604 95.712 272.604 95.144C272.604 94.584 272.732 94.08 272.988 93.632C273.252 93.184 273.604 92.832 274.044 92.576C274.492 92.312 274.992 92.18 275.544 92.18C276.072 92.18 276.536 92.3 276.936 92.54C277.344 92.78 277.66 93.112 277.884 93.536C278.116 93.96 278.232 94.44 278.232 94.976C278.232 95.056 278.228 95.144 278.22 95.24C278.212 95.328 278.196 95.432 278.172 95.552H273.36V94.652H277.596L277.2 95C277.2 94.616 277.132 94.292 276.996 94.028C276.86 93.756 276.668 93.548 276.42 93.404C276.172 93.252 275.872 93.176 275.52 93.176C275.152 93.176 274.828 93.256 274.548 93.416C274.268 93.576 274.052 93.8 273.9 94.088C273.748 94.376 273.672 94.716 273.672 95.108C273.672 95.508 273.752 95.86 273.912 96.164C274.072 96.46 274.3 96.692 274.596 96.86C274.892 97.02 275.232 97.1 275.616 97.1C275.936 97.1 276.228 97.044 276.492 96.932C276.764 96.82 276.996 96.652 277.188 96.428L277.884 97.136C277.612 97.456 277.276 97.7 276.876 97.868C276.484 98.036 276.064 98.12 275.616 98.12ZM279.409 98V92.3H280.489V98H279.409ZM280.489 94.748L280.081 94.568C280.081 93.84 280.249 93.26 280.585 92.828C280.921 92.396 281.405 92.18 282.037 92.18C282.325 92.18 282.585 92.232 282.817 92.336C283.049 92.432 283.265 92.596 283.465 92.828L282.757 93.56C282.637 93.432 282.505 93.34 282.361 93.284C282.217 93.228 282.049 93.2 281.857 93.2C281.457 93.2 281.129 93.328 280.873 93.584C280.617 93.84 280.489 94.228 280.489 94.748ZM285.018 98V91.268C285.018 90.892 285.098 90.56 285.258 90.272C285.426 89.976 285.658 89.744 285.954 89.576C286.25 89.4 286.59 89.312 286.974 89.312C287.27 89.312 287.53 89.364 287.754 89.468C287.978 89.564 288.186 89.7 288.378 89.876L287.67 90.584C287.566 90.496 287.458 90.432 287.346 90.392C287.234 90.344 287.11 90.32 286.974 90.32C286.694 90.32 286.478 90.408 286.326 90.584C286.174 90.752 286.098 90.98 286.098 91.268V98H285.018ZM283.614 93.284V92.3H289.026V93.284H283.614ZM288.402 98V92.3H289.494V98H288.402ZM288.942 91.7C288.75 91.7 288.59 91.636 288.462 91.508C288.334 91.372 288.27 91.204 288.27 91.004C288.27 90.812 288.334 90.652 288.462 90.524C288.59 90.388 288.75 90.32 288.942 90.32C289.15 90.32 289.314 90.388 289.434 90.524C289.562 90.652 289.626 90.812 289.626 91.004C289.626 91.204 289.562 91.372 289.434 91.508C289.314 91.636 289.15 91.7 288.942 91.7ZM291.081 98V89.432H292.161V98H291.081Z" fill="white"/>
<defs>
<filter id="filter0_d_0_1" x="0" y="0" width="344" height="121" filterUnits="userSpaceOnUse" color-interpolation-filters="sRGB">
<feFlood flood-opacity="0" result="BackgroundImageFix"/>
<feColorMatrix in="SourceAlpha" type="matrix" values="0 0 0 0 0 0 0 0 0 0 0 0 0 0 0 0 0 0 127 0" result="hardAlpha"/>
<feOffset dy="4"/>
<feGaussianBlur stdDeviation="2"/>
<feComposite in2="hardAlpha" operator="out"/>
<feColorMatrix type="matrix" values="0 0 0 0 0 0 0 0 0 0 0 0 0 0 0 0 0 0 0.25 0"/>
<feBlend mode="normal" in2="BackgroundImageFix" result="effect1_dropShadow_0_1"/>
<feBlend mode="normal" in="SourceGraphic" in2="effect1_dropShadow_0_1" result="shape"/>
</filter>
<filter id="filter1_d_0_1" x="177" y="81" width="149" height="30" filterUnits="userSpaceOnUse" color-interpolation-filters="sRGB">
<feFlood flood-opacity="0" result="BackgroundImageFix"/>
<feColorMatrix in="SourceAlpha" type="matrix" values="0 0 0 0 0 0 0 0 0 0 0 0 0 0 0 0 0 0 127 0" result="hardAlpha"/>
<feOffset dy="4"/>
<feGaussianBlur stdDeviation="2"/>
<feComposite in2="hardAlpha" operator="out"/>
<feColorMatrix type="matrix" values="0 0 0 0 0 0 0 0 0 0 0 0 0 0 0 0 0 0 0.25 0"/>
<feBlend mode="normal" in2="BackgroundImageFix" result="effect1_dropShadow_0_1"/>
<feBlend mode="normal" in="SourceGraphic" in2="effect1_dropShadow_0_1" result="shape"/>
</filter>
<linearGradient id="paint0_linear_0_1" x1="172" y1="0" x2="172" y2="113" gradientUnits="userSpaceOnUse">
<stop stop-color="#22FA10"/>
<stop offset="1" stop-color="#00D1FF"/>
</linearGradient>
<clipPath id="clip0_0_1">
<rect width="24" height="24" fill="white" transform="translate(19 12)"/>
</clipPath>
</defs>
</svg>
