<svg width="349" height="128" viewBox="0 0 349 128" fill="none" xmlns="http://www.w3.org/2000/svg">
<g filter="url(#filter0_d_0_1)">
<rect x="4" width="341" height="120" rx="20" fill="url(#paint0_linear_0_1)"/>
</g>
<g clip-path="url(#clip0_0_1)">
<path d="M52.9583 47.4167H51.75V46.2083C51.75 45.8879 51.6227 45.5805 51.3961 45.3539C51.1695 45.1273 50.8621 45 50.5417 45C50.2212 45 49.9139 45.1273 49.6872 45.3539C49.4606 45.5805 49.3333 45.8879 49.3333 46.2083V47.4167H39.6667V46.2083C39.6667 45.8879 39.5394 45.5805 39.3128 45.3539C39.0861 45.1273 38.7788 45 38.4583 45C38.1379 45 37.8305 45.1273 37.6039 45.3539C37.3773 45.5805 37.25 45.8879 37.25 46.2083V47.4167H36.0417C34.4399 47.4186 32.9043 48.0557 31.7717 49.1883C30.6391 50.321 30.0019 51.8566 30 53.4583L30 67.9583C30.0019 69.5601 30.6391 71.0957 31.7717 72.2283C32.9043 73.3609 34.4399 73.9981 36.0417 74H52.9583C54.5601 73.9981 56.0957 73.3609 57.2283 72.2283C58.3609 71.0957 58.9981 69.5601 59 67.9583V53.4583C58.9981 51.8566 58.3609 50.321 57.2283 49.1883C56.0957 48.0557 54.5601 47.4186 52.9583 47.4167V47.4167ZM32.4167 53.4583C32.4167 52.4969 32.7986 51.5749 33.4784 50.8951C34.1582 50.2153 35.0803 49.8333 36.0417 49.8333H52.9583C53.9197 49.8333 54.8418 50.2153 55.5216 50.8951C56.2014 51.5749 56.5833 52.4969 56.5833 53.4583V54.6667H32.4167V53.4583ZM52.9583 71.5833H36.0417C35.0803 71.5833 34.1582 71.2014 33.4784 70.5216C32.7986 69.8418 32.4167 68.9197 32.4167 67.9583V57.0833H56.5833V67.9583C56.5833 68.9197 56.2014 69.8418 55.5216 70.5216C54.8418 71.2014 53.9197 71.5833 52.9583 71.5833Z" fill="black"/>
<path d="M44.5 64.9375C45.501 64.9375 46.3125 64.126 46.3125 63.125C46.3125 62.124 45.501 61.3125 44.5 61.3125C43.499 61.3125 42.6875 62.124 42.6875 63.125C42.6875 64.126 43.499 64.9375 44.5 64.9375Z" fill="black"/>
<path d="M38.458 64.9375C39.459 64.9375 40.2705 64.126 40.2705 63.125C40.2705 62.124 39.459 61.3125 38.458 61.3125C37.457 61.3125 36.6455 62.124 36.6455 63.125C36.6455 64.126 37.457 64.9375 38.458 64.9375Z" fill="black"/>
<path d="M50.542 64.9375C51.543 64.9375 52.3545 64.126 52.3545 63.125C52.3545 62.124 51.543 61.3125 50.542 61.3125C49.541 61.3125 48.7295 62.124 48.7295 63.125C48.7295 64.126 49.541 64.9375 50.542 64.9375Z" fill="black"/>
</g>
<path d="M88.312 50V38.896H89.816V50H88.312ZM89.336 50V48.624H95.288V50H89.336ZM100.076 50.16C99.3187 50.16 98.636 49.9893 98.028 49.648C97.42 49.296 96.94 48.8213 96.588 48.224C96.236 47.6267 96.06 46.9493 96.06 46.192C96.06 45.4453 96.2307 44.7733 96.572 44.176C96.924 43.5787 97.3933 43.1093 97.98 42.768C98.5773 42.416 99.244 42.24 99.98 42.24C100.684 42.24 101.303 42.4 101.836 42.72C102.38 43.04 102.801 43.4827 103.1 44.048C103.409 44.6133 103.564 45.2533 103.564 45.968C103.564 46.0747 103.559 46.192 103.548 46.32C103.537 46.4373 103.516 46.576 103.484 46.736H97.068V45.536H102.716L102.188 46C102.188 45.488 102.097 45.056 101.916 44.704C101.735 44.3413 101.479 44.064 101.148 43.872C100.817 43.6693 100.417 43.568 99.948 43.568C99.4573 43.568 99.0253 43.6747 98.652 43.888C98.2787 44.1013 97.9907 44.4 97.788 44.784C97.5853 45.168 97.484 45.6213 97.484 46.144C97.484 46.6773 97.5907 47.1467 97.804 47.552C98.0173 47.9467 98.3213 48.256 98.716 48.48C99.1107 48.6933 99.564 48.8 100.076 48.8C100.503 48.8 100.892 48.7253 101.244 48.576C101.607 48.4267 101.916 48.2027 102.172 47.904L103.1 48.848C102.737 49.2747 102.289 49.6 101.756 49.824C101.233 50.048 100.673 50.16 100.076 50.16ZM105.134 50V42.4H106.574V50H105.134ZM110.27 50V45.408C110.27 44.8427 110.094 44.4 109.742 44.08C109.401 43.7493 108.969 43.584 108.446 43.584C108.094 43.584 107.779 43.6587 107.502 43.808C107.225 43.9573 107.001 44.1653 106.83 44.432C106.659 44.6987 106.574 45.0187 106.574 45.392L105.982 45.104C105.982 44.528 106.105 44.0267 106.35 43.6C106.606 43.1733 106.953 42.8427 107.39 42.608C107.827 42.3627 108.318 42.24 108.862 42.24C109.395 42.24 109.875 42.3573 110.302 42.592C110.739 42.8267 111.081 43.1573 111.326 43.584C111.582 44.0107 111.71 44.5173 111.71 45.104V50H110.27ZM115.406 50V45.408C115.406 44.8427 115.23 44.4 114.878 44.08C114.537 43.7493 114.11 43.584 113.598 43.584C113.246 43.584 112.926 43.6587 112.638 43.808C112.361 43.9573 112.137 44.1653 111.966 44.432C111.795 44.6987 111.71 45.0187 111.71 45.392L110.894 45.104C110.926 44.5173 111.081 44.016 111.358 43.6C111.646 43.1733 112.014 42.8427 112.462 42.608C112.91 42.3627 113.401 42.24 113.934 42.24C114.489 42.24 114.985 42.3573 115.422 42.592C115.859 42.8267 116.206 43.1573 116.462 43.584C116.729 44.0107 116.862 44.5227 116.862 45.12V50H115.406ZM122.822 50.16C122.246 50.16 121.723 50.0427 121.254 49.808C120.795 49.5627 120.427 49.2267 120.15 48.8C119.872 48.3733 119.718 47.888 119.686 47.344V45.056C119.718 44.5013 119.872 44.016 120.15 43.6C120.438 43.1733 120.811 42.8427 121.27 42.608C121.739 42.3627 122.256 42.24 122.822 42.24C123.515 42.24 124.139 42.416 124.694 42.768C125.259 43.12 125.702 43.5947 126.022 44.192C126.342 44.7893 126.502 45.4613 126.502 46.208C126.502 46.9547 126.342 47.6267 126.022 48.224C125.702 48.8213 125.259 49.296 124.694 49.648C124.139 49.9893 123.515 50.16 122.822 50.16ZM122.582 48.8C123.062 48.8 123.483 48.688 123.846 48.464C124.208 48.24 124.496 47.936 124.71 47.552C124.923 47.1573 125.03 46.704 125.03 46.192C125.03 45.6907 124.923 45.2427 124.71 44.848C124.496 44.4533 124.208 44.1493 123.846 43.936C123.483 43.712 123.067 43.6 122.598 43.6C122.118 43.6 121.696 43.712 121.334 43.936C120.971 44.1493 120.688 44.4533 120.486 44.848C120.283 45.2427 120.182 45.696 120.182 46.208C120.182 46.7093 120.278 47.1573 120.47 47.552C120.672 47.936 120.955 48.24 121.318 48.464C121.691 48.688 122.112 48.8 122.582 48.8ZM118.822 50V38.576H120.262V44.256L119.99 46.096L120.262 47.952V50H118.822ZM128.134 50V42.4H129.574V50H128.134ZM129.574 45.664L129.03 45.424C129.03 44.4533 129.254 43.68 129.702 43.104C130.15 42.528 130.795 42.24 131.638 42.24C132.022 42.24 132.369 42.3093 132.678 42.448C132.987 42.576 133.275 42.7947 133.542 43.104L132.598 44.08C132.438 43.9093 132.262 43.7867 132.07 43.712C131.878 43.6373 131.654 43.6 131.398 43.6C130.865 43.6 130.427 43.7707 130.086 44.112C129.745 44.4533 129.574 44.9707 129.574 45.664ZM137.826 50.16C137.069 50.16 136.386 49.9893 135.778 49.648C135.17 49.296 134.69 48.8213 134.338 48.224C133.986 47.6267 133.81 46.9493 133.81 46.192C133.81 45.4453 133.981 44.7733 134.322 44.176C134.674 43.5787 135.143 43.1093 135.73 42.768C136.327 42.416 136.994 42.24 137.73 42.24C138.434 42.24 139.053 42.4 139.586 42.72C140.13 43.04 140.551 43.4827 140.85 44.048C141.159 44.6133 141.314 45.2533 141.314 45.968C141.314 46.0747 141.309 46.192 141.298 46.32C141.287 46.4373 141.266 46.576 141.234 46.736H134.818V45.536H140.466L139.938 46C139.938 45.488 139.847 45.056 139.666 44.704C139.485 44.3413 139.229 44.064 138.898 43.872C138.567 43.6693 138.167 43.568 137.698 43.568C137.207 43.568 136.775 43.6747 136.402 43.888C136.029 44.1013 135.741 44.4 135.538 44.784C135.335 45.168 135.234 45.6213 135.234 46.144C135.234 46.6773 135.341 47.1467 135.554 47.552C135.767 47.9467 136.071 48.256 136.466 48.48C136.861 48.6933 137.314 48.8 137.826 48.8C138.253 48.8 138.642 48.7253 138.994 48.576C139.357 48.4267 139.666 48.2027 139.922 47.904L140.85 48.848C140.487 49.2747 140.039 49.6 139.506 49.824C138.983 50.048 138.423 50.16 137.826 50.16ZM143.818 50V39.216H145.258V50H143.818ZM141.946 43.712V42.4H147.13V43.712H141.946ZM151.826 50.16C151.069 50.16 150.386 49.9893 149.778 49.648C149.17 49.296 148.69 48.8213 148.338 48.224C147.986 47.6267 147.81 46.9493 147.81 46.192C147.81 45.4453 147.981 44.7733 148.322 44.176C148.674 43.5787 149.143 43.1093 149.73 42.768C150.327 42.416 150.994 42.24 151.73 42.24C152.434 42.24 153.053 42.4 153.586 42.72C154.13 43.04 154.551 43.4827 154.85 44.048C155.159 44.6133 155.314 45.2533 155.314 45.968C155.314 46.0747 155.309 46.192 155.298 46.32C155.287 46.4373 155.266 46.576 155.234 46.736H148.818V45.536H154.466L153.938 46C153.938 45.488 153.847 45.056 153.666 44.704C153.485 44.3413 153.229 44.064 152.898 43.872C152.567 43.6693 152.167 43.568 151.698 43.568C151.207 43.568 150.775 43.6747 150.402 43.888C150.029 44.1013 149.741 44.4 149.538 44.784C149.335 45.168 149.234 45.6213 149.234 46.144C149.234 46.6773 149.341 47.1467 149.554 47.552C149.767 47.9467 150.071 48.256 150.466 48.48C150.861 48.6933 151.314 48.8 151.826 48.8C152.253 48.8 152.642 48.7253 152.994 48.576C153.357 48.4267 153.666 48.2027 153.922 47.904L154.85 48.848C154.487 49.2747 154.039 49.6 153.506 49.824C152.983 50.048 152.423 50.16 151.826 50.16ZM164.212 50.16C163.636 50.16 163.114 50.0427 162.644 49.808C162.186 49.5627 161.818 49.2267 161.54 48.8C161.263 48.3733 161.108 47.888 161.076 47.344V45.056C161.108 44.5013 161.263 44.016 161.54 43.6C161.828 43.1733 162.202 42.8427 162.66 42.608C163.13 42.3627 163.647 42.24 164.212 42.24C164.906 42.24 165.53 42.416 166.084 42.768C166.65 43.12 167.092 43.5947 167.412 44.192C167.732 44.7893 167.892 45.4613 167.892 46.208C167.892 46.9547 167.732 47.6267 167.412 48.224C167.092 48.8213 166.65 49.296 166.084 49.648C165.53 49.9893 164.906 50.16 164.212 50.16ZM163.972 48.8C164.452 48.8 164.874 48.688 165.236 48.464C165.599 48.24 165.887 47.936 166.1 47.552C166.314 47.1573 166.42 46.704 166.42 46.192C166.42 45.6907 166.314 45.2427 166.1 44.848C165.887 44.4533 165.599 44.1493 165.236 43.936C164.874 43.712 164.458 43.6 163.988 43.6C163.508 43.6 163.087 43.712 162.724 43.936C162.362 44.1493 162.079 44.4533 161.876 44.848C161.674 45.2427 161.572 45.696 161.572 46.208C161.572 46.7093 161.668 47.1573 161.86 47.552C162.063 47.936 162.346 48.24 162.708 48.464C163.082 48.688 163.503 48.8 163.972 48.8ZM160.212 53.184V42.4H161.652V44.4L161.38 46.24L161.652 48.096V53.184H160.212ZM172.757 50.16C172.063 50.16 171.434 49.9893 170.869 49.648C170.303 49.296 169.855 48.8213 169.525 48.224C169.205 47.6267 169.045 46.9547 169.045 46.208C169.045 45.4613 169.205 44.7893 169.525 44.192C169.855 43.5947 170.298 43.12 170.853 42.768C171.418 42.416 172.053 42.24 172.757 42.24C173.333 42.24 173.845 42.3627 174.293 42.608C174.751 42.8427 175.119 43.1733 175.397 43.6C175.674 44.016 175.829 44.5013 175.861 45.056V47.344C175.829 47.888 175.674 48.3733 175.397 48.8C175.13 49.2267 174.767 49.5627 174.309 49.808C173.861 50.0427 173.343 50.16 172.757 50.16ZM172.997 48.8C173.711 48.8 174.287 48.56 174.725 48.08C175.162 47.5893 175.381 46.9653 175.381 46.208C175.381 45.6853 175.279 45.232 175.077 44.848C174.885 44.4533 174.607 44.1493 174.245 43.936C173.882 43.712 173.461 43.6 172.981 43.6C172.501 43.6 172.074 43.712 171.701 43.936C171.338 44.16 171.05 44.4693 170.837 44.864C170.634 45.248 170.533 45.6907 170.533 46.192C170.533 46.704 170.634 47.1573 170.837 47.552C171.05 47.936 171.343 48.24 171.717 48.464C172.09 48.688 172.517 48.8 172.997 48.8ZM175.285 50V47.952L175.557 46.096L175.285 44.256V42.4H176.741V50H175.285ZM178.837 50V42.4H180.277V50H178.837ZM180.277 45.664L179.733 45.424C179.733 44.4533 179.957 43.68 180.405 43.104C180.853 42.528 181.499 42.24 182.341 42.24C182.725 42.24 183.072 42.3093 183.381 42.448C183.691 42.576 183.979 42.7947 184.245 43.104L183.301 44.08C183.141 43.9093 182.965 43.7867 182.773 43.712C182.581 43.6373 182.357 43.6 182.101 43.6C181.568 43.6 181.131 43.7707 180.789 44.112C180.448 44.4533 180.277 44.9707 180.277 45.664ZM188.241 50.16C187.548 50.16 186.918 49.9893 186.353 49.648C185.788 49.296 185.34 48.8213 185.009 48.224C184.689 47.6267 184.529 46.9547 184.529 46.208C184.529 45.4613 184.689 44.7893 185.009 44.192C185.34 43.5947 185.782 43.12 186.337 42.768C186.902 42.416 187.537 42.24 188.241 42.24C188.817 42.24 189.329 42.3627 189.777 42.608C190.236 42.8427 190.604 43.1733 190.881 43.6C191.158 44.016 191.313 44.5013 191.345 45.056V47.344C191.313 47.888 191.158 48.3733 190.881 48.8C190.614 49.2267 190.252 49.5627 189.793 49.808C189.345 50.0427 188.828 50.16 188.241 50.16ZM188.481 48.8C189.196 48.8 189.772 48.56 190.209 48.08C190.646 47.5893 190.865 46.9653 190.865 46.208C190.865 45.6853 190.764 45.232 190.561 44.848C190.369 44.4533 190.092 44.1493 189.729 43.936C189.366 43.712 188.945 43.6 188.465 43.6C187.985 43.6 187.558 43.712 187.185 43.936C186.822 44.16 186.534 44.4693 186.321 44.864C186.118 45.248 186.017 45.6907 186.017 46.192C186.017 46.704 186.118 47.1573 186.321 47.552C186.534 47.936 186.828 48.24 187.201 48.464C187.574 48.688 188.001 48.8 188.481 48.8ZM190.769 50V47.952L191.041 46.096L190.769 44.256V42.4H192.225V50H190.769ZM200.066 50.16C199.639 50.16 199.234 50.1067 198.85 50C198.476 49.8827 198.13 49.7227 197.81 49.52C197.49 49.3067 197.212 49.056 196.978 48.768L197.906 47.84C198.183 48.1813 198.503 48.4373 198.866 48.608C199.228 48.768 199.634 48.848 200.082 48.848C200.53 48.848 200.876 48.7733 201.122 48.624C201.367 48.464 201.49 48.2453 201.49 47.968C201.49 47.6907 201.388 47.4773 201.186 47.328C200.994 47.168 200.743 47.04 200.434 46.944C200.124 46.8373 199.794 46.736 199.442 46.64C199.1 46.5333 198.775 46.4 198.466 46.24C198.156 46.08 197.9 45.8613 197.698 45.584C197.506 45.3067 197.41 44.9387 197.41 44.48C197.41 44.0213 197.522 43.6267 197.746 43.296C197.97 42.9547 198.279 42.6933 198.674 42.512C199.079 42.3307 199.564 42.24 200.13 42.24C200.727 42.24 201.255 42.3467 201.714 42.56C202.183 42.7627 202.567 43.072 202.866 43.488L201.938 44.416C201.724 44.1387 201.458 43.9253 201.138 43.776C200.828 43.6267 200.476 43.552 200.082 43.552C199.666 43.552 199.346 43.6267 199.122 43.776C198.908 43.9147 198.802 44.112 198.802 44.368C198.802 44.624 198.898 44.8213 199.09 44.96C199.282 45.0987 199.532 45.216 199.842 45.312C200.162 45.408 200.492 45.5093 200.834 45.616C201.175 45.712 201.5 45.8453 201.81 46.016C202.119 46.1867 202.37 46.416 202.562 46.704C202.764 46.992 202.866 47.3707 202.866 47.84C202.866 48.5547 202.61 49.12 202.098 49.536C201.596 49.952 200.919 50.16 200.066 50.16ZM207.998 50.16C207.241 50.16 206.558 49.9893 205.95 49.648C205.342 49.296 204.862 48.8213 204.51 48.224C204.158 47.6267 203.982 46.9493 203.982 46.192C203.982 45.4453 204.153 44.7733 204.494 44.176C204.846 43.5787 205.315 43.1093 205.902 42.768C206.499 42.416 207.166 42.24 207.902 42.24C208.606 42.24 209.225 42.4 209.758 42.72C210.302 43.04 210.723 43.4827 211.022 44.048C211.331 44.6133 211.486 45.2533 211.486 45.968C211.486 46.0747 211.481 46.192 211.47 46.32C211.459 46.4373 211.438 46.576 211.406 46.736H204.99V45.536H210.638L210.11 46C210.11 45.488 210.019 45.056 209.838 44.704C209.657 44.3413 209.401 44.064 209.07 43.872C208.739 43.6693 208.339 43.568 207.87 43.568C207.379 43.568 206.947 43.6747 206.574 43.888C206.201 44.1013 205.913 44.4 205.71 44.784C205.507 45.168 205.406 45.6213 205.406 46.144C205.406 46.6773 205.513 47.1467 205.726 47.552C205.939 47.9467 206.243 48.256 206.638 48.48C207.033 48.6933 207.486 48.8 207.998 48.8C208.425 48.8 208.814 48.7253 209.166 48.576C209.529 48.4267 209.838 48.2027 210.094 47.904L211.022 48.848C210.659 49.2747 210.211 49.6 209.678 49.824C209.155 50.048 208.595 50.16 207.998 50.16ZM216.112 50.16C215.493 50.16 214.933 50.0213 214.432 49.744C213.941 49.456 213.557 49.0613 213.28 48.56C213.003 48.0587 212.864 47.4773 212.864 46.816V42.4H214.304V46.752C214.304 47.168 214.373 47.5307 214.512 47.84C214.661 48.1387 214.875 48.368 215.152 48.528C215.429 48.688 215.755 48.768 216.128 48.768C216.693 48.768 217.136 48.592 217.456 48.24C217.776 47.8773 217.936 47.3813 217.936 46.752V42.4H219.376V46.816C219.376 47.4773 219.237 48.0587 218.96 48.56C218.683 49.0613 218.299 49.456 217.808 49.744C217.328 50.0213 216.763 50.16 216.112 50.16ZM91.288 68.16C90.5947 68.16 89.9653 67.9893 89.4 67.648C88.8347 67.296 88.3867 66.8213 88.056 66.224C87.736 65.6267 87.576 64.9547 87.576 64.208C87.576 63.4613 87.736 62.7893 88.056 62.192C88.3867 61.5947 88.8293 61.12 89.384 60.768C89.9493 60.416 90.584 60.24 91.288 60.24C91.864 60.24 92.376 60.3627 92.824 60.608C93.2827 60.8427 93.6507 61.1733 93.928 61.6C94.2053 62.016 94.36 62.5013 94.392 63.056V65.344C94.36 65.888 94.2053 66.3733 93.928 66.8C93.6613 67.2267 93.2987 67.5627 92.84 67.808C92.392 68.0427 91.8747 68.16 91.288 68.16ZM91.528 66.8C92.2427 66.8 92.8187 66.56 93.256 66.08C93.6933 65.5893 93.912 64.9653 93.912 64.208C93.912 63.6853 93.8107 63.232 93.608 62.848C93.416 62.4533 93.1387 62.1493 92.776 61.936C92.4133 61.712 91.992 61.6 91.512 61.6C91.032 61.6 90.6053 61.712 90.232 61.936C89.8693 62.16 89.5813 62.4693 89.368 62.864C89.1653 63.248 89.064 63.6907 89.064 64.192C89.064 64.704 89.1653 65.1573 89.368 65.552C89.5813 65.936 89.8747 66.24 90.248 66.464C90.6213 66.688 91.048 66.8 91.528 66.8ZM93.816 68V65.952L94.088 64.096L93.816 62.256V60.4H95.272V68H93.816ZM98.5053 68V57.216H99.9453V68H98.5053ZM96.6333 61.712V60.4H101.817V61.712H96.6333ZM106.514 68.16C105.756 68.16 105.074 67.9893 104.466 67.648C103.858 67.296 103.378 66.8213 103.026 66.224C102.674 65.6267 102.498 64.9493 102.498 64.192C102.498 63.4453 102.668 62.7733 103.01 62.176C103.362 61.5787 103.831 61.1093 104.418 60.768C105.015 60.416 105.682 60.24 106.418 60.24C107.122 60.24 107.74 60.4 108.274 60.72C108.818 61.04 109.239 61.4827 109.538 62.048C109.847 62.6133 110.002 63.2533 110.002 63.968C110.002 64.0747 109.996 64.192 109.986 64.32C109.975 64.4373 109.954 64.576 109.922 64.736H103.506V63.536H109.154L108.626 64C108.626 63.488 108.535 63.056 108.354 62.704C108.172 62.3413 107.916 62.064 107.586 61.872C107.255 61.6693 106.855 61.568 106.386 61.568C105.895 61.568 105.463 61.6747 105.09 61.888C104.716 62.1013 104.428 62.4 104.226 62.784C104.023 63.168 103.922 63.6213 103.922 64.144C103.922 64.6773 104.028 65.1467 104.242 65.552C104.455 65.9467 104.759 66.256 105.154 66.48C105.548 66.6933 106.002 66.8 106.514 66.8C106.94 66.8 107.33 66.7253 107.682 66.576C108.044 66.4267 108.354 66.2027 108.61 65.904L109.538 66.848C109.175 67.2747 108.727 67.6 108.194 67.824C107.671 68.048 107.111 68.16 106.514 68.16ZM116.948 68V63.568C116.948 62.992 116.766 62.5173 116.404 62.144C116.041 61.7707 115.572 61.584 114.996 61.584C114.612 61.584 114.27 61.6693 113.972 61.84C113.673 62.0107 113.438 62.2453 113.268 62.544C113.097 62.8427 113.012 63.184 113.012 63.568L112.42 63.232C112.42 62.656 112.548 62.144 112.804 61.696C113.06 61.248 113.417 60.896 113.876 60.64C114.334 60.3733 114.852 60.24 115.428 60.24C116.004 60.24 116.51 60.384 116.948 60.672C117.396 60.96 117.748 61.3387 118.004 61.808C118.26 62.2667 118.388 62.7573 118.388 63.28V68H116.948ZM111.572 68V60.4H113.012V68H111.572ZM123.553 68.16C122.849 68.16 122.22 67.9893 121.665 67.648C121.111 67.296 120.668 66.8213 120.337 66.224C120.017 65.6267 119.857 64.9547 119.857 64.208C119.857 63.4613 120.017 62.7893 120.337 62.192C120.668 61.5947 121.111 61.12 121.665 60.768C122.22 60.416 122.849 60.24 123.553 60.24C124.119 60.24 124.631 60.3627 125.089 60.608C125.548 60.8427 125.916 61.1733 126.193 61.6C126.481 62.016 126.641 62.5013 126.673 63.056V65.344C126.641 65.888 126.487 66.3733 126.209 66.8C125.932 67.2267 125.564 67.5627 125.105 67.808C124.647 68.0427 124.129 68.16 123.553 68.16ZM123.793 66.8C124.273 66.8 124.689 66.688 125.041 66.464C125.404 66.24 125.687 65.936 125.889 65.552C126.092 65.1573 126.193 64.7093 126.193 64.208C126.193 63.6853 126.087 63.232 125.873 62.848C125.671 62.464 125.388 62.16 125.025 61.936C124.673 61.712 124.257 61.6 123.777 61.6C123.297 61.6 122.876 61.712 122.513 61.936C122.151 62.16 121.863 62.4693 121.649 62.864C121.447 63.248 121.345 63.6907 121.345 64.192C121.345 64.704 121.447 65.1573 121.649 65.552C121.863 65.936 122.151 66.24 122.513 66.464C122.887 66.688 123.313 66.8 123.793 66.8ZM127.553 68H126.097V65.952L126.369 64.096L126.097 62.256V56.576H127.553V68ZM129.666 68V60.4H131.106V68H129.666ZM130.386 58.88C130.119 58.88 129.9 58.7947 129.73 58.624C129.559 58.4427 129.474 58.2187 129.474 57.952C129.474 57.696 129.559 57.4827 129.73 57.312C129.9 57.1307 130.119 57.04 130.386 57.04C130.652 57.04 130.871 57.1307 131.042 57.312C131.212 57.4827 131.298 57.696 131.298 57.952C131.298 58.2187 131.212 58.4427 131.042 58.624C130.871 58.7947 130.652 58.88 130.386 58.88ZM133.228 68V60.4H134.668V68H133.228ZM138.364 68V63.408C138.364 62.8427 138.188 62.4 137.836 62.08C137.495 61.7493 137.063 61.584 136.54 61.584C136.188 61.584 135.873 61.6587 135.596 61.808C135.319 61.9573 135.095 62.1653 134.924 62.432C134.753 62.6987 134.668 63.0187 134.668 63.392L134.076 63.104C134.076 62.528 134.199 62.0267 134.444 61.6C134.7 61.1733 135.047 60.8427 135.484 60.608C135.921 60.3627 136.412 60.24 136.956 60.24C137.489 60.24 137.969 60.3573 138.396 60.592C138.833 60.8267 139.175 61.1573 139.42 61.584C139.676 62.0107 139.804 62.5173 139.804 63.104V68H138.364ZM143.5 68V63.408C143.5 62.8427 143.324 62.4 142.972 62.08C142.631 61.7493 142.204 61.584 141.692 61.584C141.34 61.584 141.02 61.6587 140.732 61.808C140.455 61.9573 140.231 62.1653 140.06 62.432C139.889 62.6987 139.804 63.0187 139.804 63.392L138.988 63.104C139.02 62.5173 139.175 62.016 139.452 61.6C139.74 61.1733 140.108 60.8427 140.556 60.608C141.004 60.3627 141.495 60.24 142.028 60.24C142.583 60.24 143.079 60.3573 143.516 60.592C143.953 60.8267 144.3 61.1573 144.556 61.584C144.823 62.0107 144.956 62.5227 144.956 63.12V68H143.5ZM150.435 68.16C149.678 68.16 148.995 67.9893 148.387 67.648C147.779 67.296 147.299 66.8213 146.947 66.224C146.595 65.6267 146.419 64.9493 146.419 64.192C146.419 63.4453 146.59 62.7733 146.931 62.176C147.283 61.5787 147.753 61.1093 148.339 60.768C148.937 60.416 149.603 60.24 150.339 60.24C151.043 60.24 151.662 60.4 152.195 60.72C152.739 61.04 153.161 61.4827 153.459 62.048C153.769 62.6133 153.923 63.2533 153.923 63.968C153.923 64.0747 153.918 64.192 153.907 64.32C153.897 64.4373 153.875 64.576 153.843 64.736H147.427V63.536H153.075L152.547 64C152.547 63.488 152.457 63.056 152.275 62.704C152.094 62.3413 151.838 62.064 151.507 61.872C151.177 61.6693 150.777 61.568 150.307 61.568C149.817 61.568 149.385 61.6747 149.011 61.888C148.638 62.1013 148.35 62.4 148.147 62.784C147.945 63.168 147.843 63.6213 147.843 64.144C147.843 64.6773 147.95 65.1467 148.163 65.552C148.377 65.9467 148.681 66.256 149.075 66.48C149.47 66.6933 149.923 66.8 150.435 66.8C150.862 66.8 151.251 66.7253 151.603 66.576C151.966 66.4267 152.275 66.2027 152.531 65.904L153.459 66.848C153.097 67.2747 152.649 67.6 152.115 67.824C151.593 68.048 151.033 68.16 150.435 68.16ZM160.87 68V63.568C160.87 62.992 160.688 62.5173 160.326 62.144C159.963 61.7707 159.494 61.584 158.918 61.584C158.534 61.584 158.192 61.6693 157.894 61.84C157.595 62.0107 157.36 62.2453 157.19 62.544C157.019 62.8427 156.934 63.184 156.934 63.568L156.342 63.232C156.342 62.656 156.47 62.144 156.726 61.696C156.982 61.248 157.339 60.896 157.798 60.64C158.256 60.3733 158.774 60.24 159.35 60.24C159.926 60.24 160.432 60.384 160.87 60.672C161.318 60.96 161.67 61.3387 161.926 61.808C162.182 62.2667 162.31 62.7573 162.31 63.28V68H160.87ZM155.493 68V60.4H156.934V68H155.493ZM165.333 68V57.216H166.773V68H165.333ZM163.461 61.712V60.4H168.645V61.712H163.461ZM173.294 68.16C172.547 68.16 171.875 67.984 171.278 67.632C170.68 67.28 170.206 66.8053 169.854 66.208C169.502 65.6 169.326 64.9227 169.326 64.176C169.326 63.44 169.502 62.7787 169.854 62.192C170.206 61.5947 170.68 61.12 171.278 60.768C171.875 60.416 172.547 60.24 173.294 60.24C174.03 60.24 174.696 60.416 175.294 60.768C175.902 61.1093 176.382 61.5787 176.734 62.176C177.086 62.7733 177.262 63.44 177.262 64.176C177.262 64.9227 177.086 65.6 176.734 66.208C176.382 66.8053 175.902 67.28 175.294 67.632C174.696 67.984 174.03 68.16 173.294 68.16ZM173.294 66.768C173.774 66.768 174.2 66.656 174.574 66.432C174.947 66.208 175.24 65.904 175.454 65.52C175.667 65.1253 175.774 64.6773 175.774 64.176C175.774 63.6853 175.662 63.248 175.438 62.864C175.224 62.48 174.931 62.1813 174.558 61.968C174.195 61.744 173.774 61.632 173.294 61.632C172.814 61.632 172.387 61.744 172.014 61.968C171.64 62.1813 171.347 62.48 171.134 62.864C170.92 63.248 170.814 63.6853 170.814 64.176C170.814 64.6773 170.92 65.1253 171.134 65.52C171.347 65.904 171.64 66.208 172.014 66.432C172.387 66.656 172.814 66.768 173.294 66.768ZM181.3 68.16C180.873 68.16 180.468 68.1067 180.084 68C179.711 67.8827 179.364 67.7227 179.044 67.52C178.724 67.3067 178.447 67.056 178.212 66.768L179.14 65.84C179.417 66.1813 179.737 66.4373 180.1 66.608C180.463 66.768 180.868 66.848 181.316 66.848C181.764 66.848 182.111 66.7733 182.356 66.624C182.601 66.464 182.724 66.2453 182.724 65.968C182.724 65.6907 182.623 65.4773 182.42 65.328C182.228 65.168 181.977 65.04 181.668 64.944C181.359 64.8373 181.028 64.736 180.676 64.64C180.335 64.5333 180.009 64.4 179.7 64.24C179.391 64.08 179.135 63.8613 178.932 63.584C178.74 63.3067 178.644 62.9387 178.644 62.48C178.644 62.0213 178.756 61.6267 178.98 61.296C179.204 60.9547 179.513 60.6933 179.908 60.512C180.313 60.3307 180.799 60.24 181.364 60.24C181.961 60.24 182.489 60.3467 182.948 60.56C183.417 60.7627 183.801 61.072 184.1 61.488L183.172 62.416C182.959 62.1387 182.692 61.9253 182.372 61.776C182.063 61.6267 181.711 61.552 181.316 61.552C180.9 61.552 180.58 61.6267 180.356 61.776C180.143 61.9147 180.036 62.112 180.036 62.368C180.036 62.624 180.132 62.8213 180.324 62.96C180.516 63.0987 180.767 63.216 181.076 63.312C181.396 63.408 181.727 63.5093 182.068 63.616C182.409 63.712 182.735 63.8453 183.044 64.016C183.353 64.1867 183.604 64.416 183.796 64.704C183.999 64.992 184.1 65.3707 184.1 65.84C184.1 66.5547 183.844 67.12 183.332 67.536C182.831 67.952 182.153 68.16 181.3 68.16ZM185.792 69.76L186.784 67.856L187.296 67.728C187.243 67.8453 187.174 67.9413 187.088 68.016C187.014 68.0907 186.918 68.128 186.8 68.128C186.576 68.128 186.368 68.0373 186.176 67.856C185.995 67.664 185.904 67.4293 185.904 67.152C185.904 66.8427 186.006 66.5867 186.208 66.384C186.411 66.1707 186.667 66.064 186.976 66.064C187.254 66.064 187.499 66.1707 187.712 66.384C187.926 66.5867 188.032 66.8427 188.032 67.152C188.032 67.2693 188.006 67.4133 187.952 67.584C187.91 67.744 187.819 67.952 187.68 68.208L186.624 70.208L185.792 69.76ZM193.038 68.16C192.345 68.16 191.715 67.9893 191.15 67.648C190.585 67.296 190.137 66.8213 189.806 66.224C189.486 65.6267 189.326 64.9547 189.326 64.208C189.326 63.4613 189.486 62.7893 189.806 62.192C190.137 61.5947 190.579 61.12 191.134 60.768C191.699 60.416 192.334 60.24 193.038 60.24C193.614 60.24 194.126 60.3627 194.574 60.608C195.033 60.8427 195.401 61.1733 195.678 61.6C195.955 62.016 196.11 62.5013 196.142 63.056V65.344C196.11 65.888 195.955 66.3733 195.678 66.8C195.411 67.2267 195.049 67.5627 194.59 67.808C194.142 68.0427 193.625 68.16 193.038 68.16ZM193.278 66.8C193.993 66.8 194.569 66.56 195.006 66.08C195.443 65.5893 195.662 64.9653 195.662 64.208C195.662 63.6853 195.561 63.232 195.358 62.848C195.166 62.4533 194.889 62.1493 194.526 61.936C194.163 61.712 193.742 61.6 193.262 61.6C192.782 61.6 192.355 61.712 191.982 61.936C191.619 62.16 191.331 62.4693 191.118 62.864C190.915 63.248 190.814 63.6907 190.814 64.192C190.814 64.704 190.915 65.1573 191.118 65.552C191.331 65.936 191.625 66.24 191.998 66.464C192.371 66.688 192.798 66.8 193.278 66.8ZM195.566 68V65.952L195.838 64.096L195.566 62.256V60.4H197.022V68H195.566ZM199.118 68V56.576H200.559V68H199.118ZM206.185 68.16C205.428 68.16 204.745 67.9893 204.137 67.648C203.529 67.296 203.049 66.8213 202.697 66.224C202.345 65.6267 202.169 64.9493 202.169 64.192C202.169 63.4453 202.34 62.7733 202.681 62.176C203.033 61.5787 203.503 61.1093 204.089 60.768C204.687 60.416 205.353 60.24 206.089 60.24C206.793 60.24 207.412 60.4 207.945 60.72C208.489 61.04 208.911 61.4827 209.209 62.048C209.519 62.6133 209.673 63.2533 209.673 63.968C209.673 64.0747 209.668 64.192 209.657 64.32C209.647 64.4373 209.625 64.576 209.593 64.736H203.177V63.536H208.825L208.297 64C208.297 63.488 208.207 63.056 208.025 62.704C207.844 62.3413 207.588 62.064 207.257 61.872C206.927 61.6693 206.527 61.568 206.057 61.568C205.567 61.568 205.135 61.6747 204.761 61.888C204.388 62.1013 204.1 62.4 203.897 62.784C203.695 63.168 203.593 63.6213 203.593 64.144C203.593 64.6773 203.7 65.1467 203.913 65.552C204.127 65.9467 204.431 66.256 204.825 66.48C205.22 66.6933 205.673 66.8 206.185 66.8C206.612 66.8 207.001 66.7253 207.353 66.576C207.716 66.4267 208.025 66.2027 208.281 65.904L209.209 66.848C208.847 67.2747 208.399 67.6 207.865 67.824C207.343 68.048 206.783 68.16 206.185 68.16ZM205.113 59.264L204.457 58.608L206.537 56.032L207.673 57.168L205.113 59.264ZM211.243 68V60.4H212.684V68H211.243ZM216.38 68V63.408C216.38 62.8427 216.204 62.4 215.852 62.08C215.51 61.7493 215.078 61.584 214.556 61.584C214.204 61.584 213.889 61.6587 213.612 61.808C213.334 61.9573 213.11 62.1653 212.94 62.432C212.769 62.6987 212.684 63.0187 212.684 63.392L212.092 63.104C212.092 62.528 212.214 62.0267 212.46 61.6C212.716 61.1733 213.062 60.8427 213.5 60.608C213.937 60.3627 214.428 60.24 214.972 60.24C215.505 60.24 215.985 60.3573 216.412 60.592C216.849 60.8267 217.19 61.1573 217.436 61.584C217.692 62.0107 217.82 62.5173 217.82 63.104V68H216.38ZM221.516 68V63.408C221.516 62.8427 221.34 62.4 220.988 62.08C220.646 61.7493 220.22 61.584 219.708 61.584C219.356 61.584 219.036 61.6587 218.748 61.808C218.47 61.9573 218.246 62.1653 218.076 62.432C217.905 62.6987 217.82 63.0187 217.82 63.392L217.004 63.104C217.036 62.5173 217.19 62.016 217.468 61.6C217.756 61.1733 218.124 60.8427 218.572 60.608C219.02 60.3627 219.51 60.24 220.044 60.24C220.598 60.24 221.094 60.3573 221.532 60.592C221.969 60.8267 222.316 61.1573 222.572 61.584C222.838 62.0107 222.972 62.5227 222.972 63.12V68H221.516ZM230.675 68.16C230.248 68.16 229.843 68.1067 229.459 68C229.086 67.8827 228.739 67.7227 228.419 67.52C228.099 67.3067 227.822 67.056 227.587 66.768L228.515 65.84C228.792 66.1813 229.112 66.4373 229.475 66.608C229.838 66.768 230.243 66.848 230.691 66.848C231.139 66.848 231.486 66.7733 231.731 66.624C231.976 66.464 232.099 66.2453 232.099 65.968C232.099 65.6907 231.998 65.4773 231.795 65.328C231.603 65.168 231.352 65.04 231.043 64.944C230.734 64.8373 230.403 64.736 230.051 64.64C229.71 64.5333 229.384 64.4 229.075 64.24C228.766 64.08 228.51 63.8613 228.307 63.584C228.115 63.3067 228.019 62.9387 228.019 62.48C228.019 62.0213 228.131 61.6267 228.355 61.296C228.579 60.9547 228.888 60.6933 229.283 60.512C229.688 60.3307 230.174 60.24 230.739 60.24C231.336 60.24 231.864 60.3467 232.323 60.56C232.792 60.7627 233.176 61.072 233.475 61.488L232.547 62.416C232.334 62.1387 232.067 61.9253 231.747 61.776C231.438 61.6267 231.086 61.552 230.691 61.552C230.275 61.552 229.955 61.6267 229.731 61.776C229.518 61.9147 229.411 62.112 229.411 62.368C229.411 62.624 229.507 62.8213 229.699 62.96C229.891 63.0987 230.142 63.216 230.451 63.312C230.771 63.408 231.102 63.5093 231.443 63.616C231.784 63.712 232.11 63.8453 232.419 64.016C232.728 64.1867 232.979 64.416 233.171 64.704C233.374 64.992 233.475 65.3707 233.475 65.84C233.475 66.5547 233.219 67.12 232.707 67.536C232.206 67.952 231.528 68.16 230.675 68.16ZM238.559 68.16C237.813 68.16 237.141 67.984 236.543 67.632C235.946 67.28 235.471 66.8053 235.119 66.208C234.767 65.6 234.591 64.9227 234.591 64.176C234.591 63.44 234.767 62.7787 235.119 62.192C235.471 61.5947 235.946 61.12 236.543 60.768C237.141 60.416 237.813 60.24 238.559 60.24C239.295 60.24 239.962 60.416 240.559 60.768C241.167 61.1093 241.647 61.5787 241.999 62.176C242.351 62.7733 242.527 63.44 242.527 64.176C242.527 64.9227 242.351 65.6 241.999 66.208C241.647 66.8053 241.167 67.28 240.559 67.632C239.962 67.984 239.295 68.16 238.559 68.16ZM238.559 66.768C239.039 66.768 239.466 66.656 239.839 66.432C240.213 66.208 240.506 65.904 240.719 65.52C240.933 65.1253 241.039 64.6773 241.039 64.176C241.039 63.6853 240.927 63.248 240.703 62.864C240.49 62.48 240.197 62.1813 239.823 61.968C239.461 61.744 239.039 61.632 238.559 61.632C238.079 61.632 237.653 61.744 237.279 61.968C236.906 62.1813 236.613 62.48 236.399 62.864C236.186 63.248 236.079 63.6853 236.079 64.176C236.079 64.6773 236.186 65.1253 236.399 65.52C236.613 65.904 236.906 66.208 237.279 66.432C237.653 66.656 238.079 66.768 238.559 66.768ZM248.15 68.16C247.574 68.16 247.051 68.0427 246.582 67.808C246.123 67.5627 245.755 67.2267 245.478 66.8C245.2 66.3733 245.046 65.888 245.014 65.344V63.056C245.046 62.5013 245.2 62.016 245.478 61.6C245.766 61.1733 246.139 60.8427 246.598 60.608C247.067 60.3627 247.584 60.24 248.15 60.24C248.843 60.24 249.467 60.416 250.022 60.768C250.587 61.12 251.03 61.5947 251.35 62.192C251.67 62.7893 251.83 63.4613 251.83 64.208C251.83 64.9547 251.67 65.6267 251.35 66.224C251.03 66.8213 250.587 67.296 250.022 67.648C249.467 67.9893 248.843 68.16 248.15 68.16ZM247.91 66.8C248.39 66.8 248.811 66.688 249.174 66.464C249.536 66.24 249.824 65.936 250.038 65.552C250.251 65.1573 250.358 64.704 250.358 64.192C250.358 63.6907 250.251 63.2427 250.038 62.848C249.824 62.4533 249.536 62.1493 249.174 61.936C248.811 61.712 248.395 61.6 247.926 61.6C247.446 61.6 247.024 61.712 246.662 61.936C246.299 62.1493 246.016 62.4533 245.814 62.848C245.611 63.2427 245.51 63.696 245.51 64.208C245.51 64.7093 245.606 65.1573 245.798 65.552C246 65.936 246.283 66.24 246.646 66.464C247.019 66.688 247.44 66.8 247.91 66.8ZM244.15 68V56.576H245.59V62.256L245.318 64.096L245.59 65.952V68H244.15ZM253.462 68V60.4H254.902V68H253.462ZM254.902 63.664L254.358 63.424C254.358 62.4533 254.582 61.68 255.03 61.104C255.478 60.528 256.124 60.24 256.966 60.24C257.35 60.24 257.697 60.3093 258.006 60.448C258.316 60.576 258.604 60.7947 258.87 61.104L257.926 62.08C257.766 61.9093 257.59 61.7867 257.398 61.712C257.206 61.6373 256.982 61.6 256.726 61.6C256.193 61.6 255.756 61.7707 255.414 62.112C255.073 62.4533 254.902 62.9707 254.902 63.664ZM263.154 68.16C262.397 68.16 261.714 67.9893 261.106 67.648C260.498 67.296 260.018 66.8213 259.666 66.224C259.314 65.6267 259.138 64.9493 259.138 64.192C259.138 63.4453 259.309 62.7733 259.65 62.176C260.002 61.5787 260.471 61.1093 261.058 60.768C261.655 60.416 262.322 60.24 263.058 60.24C263.762 60.24 264.381 60.4 264.914 60.72C265.458 61.04 265.879 61.4827 266.178 62.048C266.487 62.6133 266.642 63.2533 266.642 63.968C266.642 64.0747 266.637 64.192 266.626 64.32C266.615 64.4373 266.594 64.576 266.562 64.736H260.146V63.536H265.794L265.266 64C265.266 63.488 265.175 63.056 264.994 62.704C264.813 62.3413 264.557 62.064 264.226 61.872C263.895 61.6693 263.495 61.568 263.026 61.568C262.535 61.568 262.103 61.6747 261.73 61.888C261.357 62.1013 261.069 62.4 260.866 62.784C260.663 63.168 260.562 63.6213 260.562 64.144C260.562 64.6773 260.669 65.1467 260.882 65.552C261.095 65.9467 261.399 66.256 261.794 66.48C262.189 66.6933 262.642 66.8 263.154 66.8C263.581 66.8 263.97 66.7253 264.322 66.576C264.685 66.4267 264.994 66.2027 265.25 65.904L266.178 66.848C265.815 67.2747 265.367 67.6 264.834 67.824C264.311 68.048 263.751 68.16 263.154 68.16ZM88.056 86V78.4H89.496V86H88.056ZM93.192 86V81.408C93.192 80.8427 93.016 80.4 92.664 80.08C92.3227 79.7493 91.8907 79.584 91.368 79.584C91.016 79.584 90.7013 79.6587 90.424 79.808C90.1467 79.9573 89.9227 80.1653 89.752 80.432C89.5813 80.6987 89.496 81.0187 89.496 81.392L88.904 81.104C88.904 80.528 89.0267 80.0267 89.272 79.6C89.528 79.1733 89.8747 78.8427 90.312 78.608C90.7493 78.3627 91.24 78.24 91.784 78.24C92.3173 78.24 92.7973 78.3573 93.224 78.592C93.6613 78.8267 94.0027 79.1573 94.248 79.584C94.504 80.0107 94.632 80.5173 94.632 81.104V86H93.192ZM98.328 86V81.408C98.328 80.8427 98.152 80.4 97.8 80.08C97.4587 79.7493 97.032 79.584 96.52 79.584C96.168 79.584 95.848 79.6587 95.56 79.808C95.2827 79.9573 95.0587 80.1653 94.888 80.432C94.7173 80.6987 94.632 81.0187 94.632 81.392L93.816 81.104C93.848 80.5173 94.0027 80.016 94.28 79.6C94.568 79.1733 94.936 78.8427 95.384 78.608C95.832 78.3627 96.3227 78.24 96.856 78.24C97.4107 78.24 97.9067 78.3573 98.344 78.592C98.7813 78.8267 99.128 79.1573 99.384 79.584C99.6507 80.0107 99.784 80.5227 99.784 81.12V86H98.328ZM104.799 86.16C104.181 86.16 103.621 86.0213 103.12 85.744C102.629 85.456 102.245 85.0613 101.968 84.56C101.69 84.0587 101.552 83.4773 101.552 82.816V78.4H102.992V82.752C102.992 83.168 103.061 83.5307 103.2 83.84C103.349 84.1387 103.562 84.368 103.84 84.528C104.117 84.688 104.442 84.768 104.816 84.768C105.381 84.768 105.824 84.592 106.144 84.24C106.464 83.8773 106.624 83.3813 106.624 82.752V78.4H108.064V82.816C108.064 83.4773 107.925 84.0587 107.648 84.56C107.37 85.0613 106.986 85.456 106.496 85.744C106.016 86.0213 105.45 86.16 104.799 86.16ZM113.21 86.16C112.506 86.16 111.876 85.9893 111.322 85.648C110.767 85.296 110.324 84.8213 109.993 84.224C109.674 83.6267 109.514 82.9547 109.514 82.208C109.514 81.4613 109.674 80.7893 109.993 80.192C110.324 79.5947 110.767 79.12 111.322 78.768C111.876 78.416 112.506 78.24 113.21 78.24C113.775 78.24 114.287 78.3627 114.746 78.608C115.204 78.8427 115.572 79.1733 115.85 79.6C116.138 80.016 116.298 80.5013 116.33 81.056V83.344C116.298 83.888 116.143 84.3733 115.866 84.8C115.588 85.2267 115.22 85.5627 114.762 85.808C114.303 86.0427 113.786 86.16 113.21 86.16ZM113.45 84.8C113.93 84.8 114.346 84.688 114.698 84.464C115.06 84.24 115.343 83.936 115.546 83.552C115.748 83.1573 115.85 82.7093 115.85 82.208C115.85 81.6853 115.743 81.232 115.53 80.848C115.327 80.464 115.044 80.16 114.682 79.936C114.33 79.712 113.914 79.6 113.434 79.6C112.954 79.6 112.532 79.712 112.17 79.936C111.807 80.16 111.519 80.4693 111.306 80.864C111.103 81.248 111.002 81.6907 111.002 82.192C111.002 82.704 111.103 83.1573 111.306 83.552C111.519 83.936 111.807 84.24 112.17 84.464C112.543 84.688 112.97 84.8 113.45 84.8ZM117.21 86H115.754V83.952L116.026 82.096L115.754 80.256V74.576H117.21V86ZM122.538 86.16C121.845 86.16 121.215 85.9893 120.65 85.648C120.085 85.296 119.637 84.8213 119.306 84.224C118.986 83.6267 118.826 82.9547 118.826 82.208C118.826 81.4613 118.986 80.7893 119.306 80.192C119.637 79.5947 120.079 79.12 120.634 78.768C121.199 78.416 121.834 78.24 122.538 78.24C123.114 78.24 123.626 78.3627 124.074 78.608C124.533 78.8427 124.901 79.1733 125.178 79.6C125.455 80.016 125.61 80.5013 125.642 81.056V83.344C125.61 83.888 125.455 84.3733 125.178 84.8C124.911 85.2267 124.549 85.5627 124.09 85.808C123.642 86.0427 123.125 86.16 122.538 86.16ZM122.778 84.8C123.493 84.8 124.069 84.56 124.506 84.08C124.943 83.5893 125.162 82.9653 125.162 82.208C125.162 81.6853 125.061 81.232 124.858 80.848C124.666 80.4533 124.389 80.1493 124.026 79.936C123.663 79.712 123.242 79.6 122.762 79.6C122.282 79.6 121.855 79.712 121.482 79.936C121.119 80.16 120.831 80.4693 120.618 80.864C120.415 81.248 120.314 81.6907 120.314 82.192C120.314 82.704 120.415 83.1573 120.618 83.552C120.831 83.936 121.125 84.24 121.498 84.464C121.871 84.688 122.298 84.8 122.778 84.8ZM125.066 86V83.952L125.338 82.096L125.066 80.256V78.4H126.522V86H125.066ZM133.995 86V81.568C133.995 80.992 133.813 80.5173 133.451 80.144C133.088 79.7707 132.619 79.584 132.043 79.584C131.659 79.584 131.317 79.6693 131.019 79.84C130.72 80.0107 130.485 80.2453 130.315 80.544C130.144 80.8427 130.059 81.184 130.059 81.568L129.467 81.232C129.467 80.656 129.595 80.144 129.851 79.696C130.107 79.248 130.464 78.896 130.923 78.64C131.381 78.3733 131.899 78.24 132.475 78.24C133.051 78.24 133.557 78.384 133.995 78.672C134.443 78.96 134.795 79.3387 135.051 79.808C135.307 80.2667 135.435 80.7573 135.435 81.28V86H133.995ZM128.618 86V78.4H130.059V86H128.618ZM140.856 86.16C140.109 86.16 139.432 85.984 138.824 85.632C138.227 85.28 137.752 84.8053 137.4 84.208C137.059 83.6 136.888 82.928 136.888 82.192C136.888 81.4453 137.059 80.7733 137.4 80.176C137.752 79.5787 138.227 79.1093 138.824 78.768C139.432 78.416 140.109 78.24 140.856 78.24C141.443 78.24 141.987 78.352 142.488 78.576C142.989 78.7893 143.421 79.104 143.784 79.52L142.824 80.48C142.589 80.2027 142.301 79.9947 141.96 79.856C141.629 79.7067 141.261 79.632 140.856 79.632C140.376 79.632 139.949 79.744 139.576 79.968C139.203 80.1813 138.909 80.48 138.696 80.864C138.483 81.248 138.376 81.6907 138.376 82.192C138.376 82.6933 138.483 83.136 138.696 83.52C138.909 83.904 139.203 84.208 139.576 84.432C139.949 84.656 140.376 84.768 140.856 84.768C141.261 84.768 141.629 84.6987 141.96 84.56C142.301 84.4107 142.595 84.1973 142.84 83.92L143.784 84.88C143.432 85.2853 143 85.6 142.488 85.824C141.987 86.048 141.443 86.16 140.856 86.16ZM140.344 89.344C139.971 89.344 139.635 89.2907 139.336 89.184C139.037 89.088 138.749 88.9493 138.472 88.768L139.128 87.984C139.256 88.112 139.411 88.2133 139.592 88.288C139.784 88.3627 140.003 88.4 140.248 88.4C140.568 88.4 140.803 88.352 140.952 88.256C141.101 88.16 141.176 88.0373 141.176 87.888C141.176 87.7387 141.101 87.6107 140.952 87.504C140.803 87.3973 140.579 87.344 140.28 87.344H139.576L140.072 85.792H141.16L140.792 86.944L140.264 86.512C140.915 86.4907 141.432 86.6133 141.816 86.88C142.211 87.1573 142.408 87.504 142.408 87.92C142.408 88.336 142.221 88.6773 141.848 88.944C141.475 89.2107 140.973 89.344 140.344 89.344ZM148.288 86.16C147.595 86.16 146.965 85.9893 146.4 85.648C145.835 85.296 145.387 84.8213 145.056 84.224C144.736 83.6267 144.576 82.9547 144.576 82.208C144.576 81.4613 144.736 80.7893 145.056 80.192C145.387 79.5947 145.829 79.12 146.384 78.768C146.949 78.416 147.584 78.24 148.288 78.24C148.864 78.24 149.376 78.3627 149.824 78.608C150.283 78.8427 150.651 79.1733 150.928 79.6C151.205 80.016 151.36 80.5013 151.392 81.056V83.344C151.36 83.888 151.205 84.3733 150.928 84.8C150.661 85.2267 150.299 85.5627 149.84 85.808C149.392 86.0427 148.875 86.16 148.288 86.16ZM148.528 84.8C149.243 84.8 149.819 84.56 150.256 84.08C150.693 83.5893 150.912 82.9653 150.912 82.208C150.912 81.6853 150.811 81.232 150.608 80.848C150.416 80.4533 150.139 80.1493 149.776 79.936C149.413 79.712 148.992 79.6 148.512 79.6C148.032 79.6 147.605 79.712 147.232 79.936C146.869 80.16 146.581 80.4693 146.368 80.864C146.165 81.248 146.064 81.6907 146.064 82.192C146.064 82.704 146.165 83.1573 146.368 83.552C146.581 83.936 146.875 84.24 147.248 84.464C147.621 84.688 148.048 84.8 148.528 84.8ZM150.816 86V83.952L151.088 82.096L150.816 80.256V78.4H152.272V86H150.816ZM156.785 86.16C156.358 86.16 155.953 86.1067 155.569 86C155.195 85.8827 154.849 85.7227 154.529 85.52C154.209 85.3067 153.931 85.056 153.697 84.768L154.625 83.84C154.902 84.1813 155.222 84.4373 155.585 84.608C155.947 84.768 156.353 84.848 156.801 84.848C157.249 84.848 157.595 84.7733 157.841 84.624C158.086 84.464 158.209 84.2453 158.209 83.968C158.209 83.6907 158.107 83.4773 157.905 83.328C157.713 83.168 157.462 83.04 157.153 82.944C156.843 82.8373 156.513 82.736 156.161 82.64C155.819 82.5333 155.494 82.4 155.185 82.24C154.875 82.08 154.619 81.8613 154.417 81.584C154.225 81.3067 154.129 80.9387 154.129 80.48C154.129 80.0213 154.241 79.6267 154.465 79.296C154.689 78.9547 154.998 78.6933 155.393 78.512C155.798 78.3307 156.283 78.24 156.849 78.24C157.446 78.24 157.974 78.3467 158.433 78.56C158.902 78.7627 159.286 79.072 159.585 79.488L158.657 80.416C158.443 80.1387 158.177 79.9253 157.857 79.776C157.547 79.6267 157.195 79.552 156.801 79.552C156.385 79.552 156.065 79.6267 155.841 79.776C155.627 79.9147 155.521 80.112 155.521 80.368C155.521 80.624 155.617 80.8213 155.809 80.96C156.001 81.0987 156.251 81.216 156.561 81.312C156.881 81.408 157.211 81.5093 157.553 81.616C157.894 81.712 158.219 81.8453 158.529 82.016C158.838 82.1867 159.089 82.416 159.281 82.704C159.483 82.992 159.585 83.3707 159.585 83.84C159.585 84.5547 159.329 85.12 158.817 85.536C158.315 85.952 157.638 86.16 156.785 86.16ZM167.997 86.16C167.25 86.16 166.578 85.984 165.981 85.632C165.383 85.28 164.909 84.8053 164.557 84.208C164.205 83.6 164.029 82.9227 164.029 82.176C164.029 81.44 164.205 80.7787 164.557 80.192C164.909 79.5947 165.383 79.12 165.981 78.768C166.578 78.416 167.25 78.24 167.997 78.24C168.733 78.24 169.399 78.416 169.997 78.768C170.605 79.1093 171.085 79.5787 171.437 80.176C171.789 80.7733 171.965 81.44 171.965 82.176C171.965 82.9227 171.789 83.6 171.437 84.208C171.085 84.8053 170.605 85.28 169.997 85.632C169.399 85.984 168.733 86.16 167.997 86.16ZM167.997 84.768C168.477 84.768 168.903 84.656 169.277 84.432C169.65 84.208 169.943 83.904 170.157 83.52C170.37 83.1253 170.477 82.6773 170.477 82.176C170.477 81.6853 170.365 81.248 170.141 80.864C169.927 80.48 169.634 80.1813 169.261 79.968C168.898 79.744 168.477 79.632 167.997 79.632C167.517 79.632 167.09 79.744 166.717 79.968C166.343 80.1813 166.05 80.48 165.837 80.864C165.623 81.248 165.517 81.6853 165.517 82.176C165.517 82.6773 165.623 83.1253 165.837 83.52C166.05 83.904 166.343 84.208 166.717 84.432C167.09 84.656 167.517 84.768 167.997 84.768ZM176.643 86.16C176.025 86.16 175.465 86.0213 174.963 85.744C174.473 85.456 174.089 85.0613 173.811 84.56C173.534 84.0587 173.395 83.4773 173.395 82.816V78.4H174.835V82.752C174.835 83.168 174.905 83.5307 175.043 83.84C175.193 84.1387 175.406 84.368 175.683 84.528C175.961 84.688 176.286 84.768 176.659 84.768C177.225 84.768 177.667 84.592 177.987 84.24C178.307 83.8773 178.467 83.3813 178.467 82.752V78.4H179.907V82.816C179.907 83.4773 179.769 84.0587 179.491 84.56C179.214 85.0613 178.83 85.456 178.339 85.744C177.859 86.0213 177.294 86.16 176.643 86.16ZM188.637 86.16C187.891 86.16 187.213 85.984 186.605 85.632C186.008 85.28 185.533 84.8053 185.181 84.208C184.84 83.6 184.669 82.928 184.669 82.192C184.669 81.4453 184.84 80.7733 185.181 80.176C185.533 79.5787 186.008 79.1093 186.605 78.768C187.213 78.416 187.891 78.24 188.637 78.24C189.224 78.24 189.768 78.352 190.269 78.576C190.771 78.7893 191.203 79.104 191.565 79.52L190.605 80.48C190.371 80.2027 190.083 79.9947 189.741 79.856C189.411 79.7067 189.043 79.632 188.637 79.632C188.157 79.632 187.731 79.744 187.357 79.968C186.984 80.1813 186.691 80.48 186.477 80.864C186.264 81.248 186.157 81.6907 186.157 82.192C186.157 82.6933 186.264 83.136 186.477 83.52C186.691 83.904 186.984 84.208 187.357 84.432C187.731 84.656 188.157 84.768 188.637 84.768C189.043 84.768 189.411 84.6987 189.741 84.56C190.083 84.4107 190.376 84.1973 190.621 83.92L191.565 84.88C191.213 85.2853 190.781 85.6 190.269 85.824C189.768 86.048 189.224 86.16 188.637 86.16ZM196.069 86.16C195.376 86.16 194.747 85.9893 194.181 85.648C193.616 85.296 193.168 84.8213 192.837 84.224C192.517 83.6267 192.357 82.9547 192.357 82.208C192.357 81.4613 192.517 80.7893 192.837 80.192C193.168 79.5947 193.611 79.12 194.165 78.768C194.731 78.416 195.365 78.24 196.069 78.24C196.645 78.24 197.157 78.3627 197.605 78.608C198.064 78.8427 198.432 79.1733 198.709 79.6C198.987 80.016 199.141 80.5013 199.173 81.056V83.344C199.141 83.888 198.987 84.3733 198.709 84.8C198.443 85.2267 198.08 85.5627 197.621 85.808C197.173 86.0427 196.656 86.16 196.069 86.16ZM196.309 84.8C197.024 84.8 197.6 84.56 198.037 84.08C198.475 83.5893 198.693 82.9653 198.693 82.208C198.693 81.6853 198.592 81.232 198.389 80.848C198.197 80.4533 197.92 80.1493 197.557 79.936C197.195 79.712 196.773 79.6 196.293 79.6C195.813 79.6 195.387 79.712 195.013 79.936C194.651 80.16 194.363 80.4693 194.149 80.864C193.947 81.248 193.845 81.6907 193.845 82.192C193.845 82.704 193.947 83.1573 194.149 83.552C194.363 83.936 194.656 84.24 195.029 84.464C195.403 84.688 195.829 84.8 196.309 84.8ZM198.597 86V83.952L198.869 82.096L198.597 80.256V78.4H200.053V86H198.597ZM207.526 86V81.568C207.526 80.992 207.344 80.5173 206.982 80.144C206.619 79.7707 206.15 79.584 205.574 79.584C205.19 79.584 204.848 79.6693 204.55 79.84C204.251 80.0107 204.016 80.2453 203.846 80.544C203.675 80.8427 203.59 81.184 203.59 81.568L202.998 81.232C202.998 80.656 203.126 80.144 203.382 79.696C203.638 79.248 203.995 78.896 204.454 78.64C204.912 78.3733 205.43 78.24 206.006 78.24C206.582 78.24 207.088 78.384 207.526 78.672C207.974 78.96 208.326 79.3387 208.582 79.808C208.838 80.2667 208.966 80.7573 208.966 81.28V86H207.526ZM202.15 86V78.4H203.59V86H202.15ZM214.387 86.16C213.641 86.16 212.963 85.984 212.355 85.632C211.758 85.28 211.283 84.8053 210.931 84.208C210.59 83.6 210.419 82.928 210.419 82.192C210.419 81.4453 210.59 80.7733 210.931 80.176C211.283 79.5787 211.758 79.1093 212.355 78.768C212.963 78.416 213.641 78.24 214.387 78.24C214.974 78.24 215.518 78.352 216.019 78.576C216.521 78.7893 216.953 79.104 217.315 79.52L216.355 80.48C216.121 80.2027 215.833 79.9947 215.491 79.856C215.161 79.7067 214.793 79.632 214.387 79.632C213.907 79.632 213.481 79.744 213.107 79.968C212.734 80.1813 212.441 80.48 212.227 80.864C212.014 81.248 211.907 81.6907 211.907 82.192C211.907 82.6933 212.014 83.136 212.227 83.52C212.441 83.904 212.734 84.208 213.107 84.432C213.481 84.656 213.907 84.768 214.387 84.768C214.793 84.768 215.161 84.6987 215.491 84.56C215.833 84.4107 216.126 84.1973 216.371 83.92L217.315 84.88C216.963 85.2853 216.531 85.6 216.019 85.824C215.518 86.048 214.974 86.16 214.387 86.16ZM222.107 86.16C221.35 86.16 220.667 85.9893 220.059 85.648C219.451 85.296 218.971 84.8213 218.619 84.224C218.267 83.6267 218.091 82.9493 218.091 82.192C218.091 81.4453 218.262 80.7733 218.603 80.176C218.955 79.5787 219.425 79.1093 220.011 78.768C220.609 78.416 221.275 78.24 222.011 78.24C222.715 78.24 223.334 78.4 223.867 78.72C224.411 79.04 224.833 79.4827 225.131 80.048C225.441 80.6133 225.595 81.2533 225.595 81.968C225.595 82.0747 225.59 82.192 225.579 82.32C225.569 82.4373 225.547 82.576 225.515 82.736H219.099V81.536H224.747L224.219 82C224.219 81.488 224.129 81.056 223.947 80.704C223.766 80.3413 223.51 80.064 223.179 79.872C222.849 79.6693 222.449 79.568 221.979 79.568C221.489 79.568 221.057 79.6747 220.683 79.888C220.31 80.1013 220.022 80.4 219.819 80.784C219.617 81.168 219.515 81.6213 219.515 82.144C219.515 82.6773 219.622 83.1467 219.835 83.552C220.049 83.9467 220.353 84.256 220.747 84.48C221.142 84.6933 221.595 84.8 222.107 84.8C222.534 84.8 222.923 84.7253 223.275 84.576C223.638 84.4267 223.947 84.2027 224.203 83.904L225.131 84.848C224.769 85.2747 224.321 85.6 223.787 85.824C223.265 86.048 222.705 86.16 222.107 86.16ZM227.165 86V74.576H228.605V86H227.165ZM233.944 86.16C233.251 86.16 232.622 85.9893 232.056 85.648C231.491 85.296 231.043 84.8213 230.712 84.224C230.392 83.6267 230.232 82.9547 230.232 82.208C230.232 81.4613 230.392 80.7893 230.712 80.192C231.043 79.5947 231.486 79.12 232.04 78.768C232.606 78.416 233.24 78.24 233.944 78.24C234.52 78.24 235.032 78.3627 235.48 78.608C235.939 78.8427 236.307 79.1733 236.584 79.6C236.862 80.016 237.016 80.5013 237.048 81.056V83.344C237.016 83.888 236.862 84.3733 236.584 84.8C236.318 85.2267 235.955 85.5627 235.496 85.808C235.048 86.0427 234.531 86.16 233.944 86.16ZM234.184 84.8C234.899 84.8 235.475 84.56 235.912 84.08C236.35 83.5893 236.568 82.9653 236.568 82.208C236.568 81.6853 236.467 81.232 236.264 80.848C236.072 80.4533 235.795 80.1493 235.432 79.936C235.07 79.712 234.648 79.6 234.168 79.6C233.688 79.6 233.262 79.712 232.888 79.936C232.526 80.16 232.238 80.4693 232.024 80.864C231.822 81.248 231.72 81.6907 231.72 82.192C231.72 82.704 231.822 83.1573 232.024 83.552C232.238 83.936 232.531 84.24 232.904 84.464C233.278 84.688 233.704 84.8 234.184 84.8ZM236.472 86V83.952L236.744 82.096L236.472 80.256V78.4H237.928V86H236.472ZM240.025 86V78.4H241.465V86H240.025ZM245.161 86V81.408C245.161 80.8427 244.985 80.4 244.633 80.08C244.291 79.7493 243.859 79.584 243.337 79.584C242.985 79.584 242.67 79.6587 242.393 79.808C242.115 79.9573 241.891 80.1653 241.721 80.432C241.55 80.6987 241.465 81.0187 241.465 81.392L240.873 81.104C240.873 80.528 240.995 80.0267 241.241 79.6C241.497 79.1733 241.843 78.8427 242.281 78.608C242.718 78.3627 243.209 78.24 243.753 78.24C244.286 78.24 244.766 78.3573 245.193 78.592C245.63 78.8267 245.971 79.1573 246.217 79.584C246.473 80.0107 246.601 80.5173 246.601 81.104V86H245.161ZM250.297 86V81.408C250.297 80.8427 250.121 80.4 249.769 80.08C249.427 79.7493 249.001 79.584 248.489 79.584C248.137 79.584 247.817 79.6587 247.529 79.808C247.251 79.9573 247.027 80.1653 246.857 80.432C246.686 80.6987 246.601 81.0187 246.601 81.392L245.785 81.104C245.817 80.5173 245.971 80.016 246.249 79.6C246.537 79.1733 246.905 78.8427 247.353 78.608C247.801 78.3627 248.291 78.24 248.825 78.24C249.379 78.24 249.875 78.3573 250.313 78.592C250.75 78.8267 251.097 79.1573 251.353 79.584C251.619 80.0107 251.753 80.5227 251.753 81.12V86H250.297ZM257.232 86.16C256.475 86.16 255.792 85.9893 255.184 85.648C254.576 85.296 254.096 84.8213 253.744 84.224C253.392 83.6267 253.216 82.9493 253.216 82.192C253.216 81.4453 253.387 80.7733 253.728 80.176C254.08 79.5787 254.55 79.1093 255.136 78.768C255.734 78.416 256.4 78.24 257.136 78.24C257.84 78.24 258.459 78.4 258.992 78.72C259.536 79.04 259.958 79.4827 260.256 80.048C260.566 80.6133 260.72 81.2533 260.72 81.968C260.72 82.0747 260.715 82.192 260.704 82.32C260.694 82.4373 260.672 82.576 260.64 82.736H254.224V81.536H259.872L259.344 82C259.344 81.488 259.254 81.056 259.072 80.704C258.891 80.3413 258.635 80.064 258.304 79.872C257.974 79.6693 257.574 79.568 257.104 79.568C256.614 79.568 256.182 79.6747 255.808 79.888C255.435 80.1013 255.147 80.4 254.944 80.784C254.742 81.168 254.64 81.6213 254.64 82.144C254.64 82.6773 254.747 83.1467 254.96 83.552C255.174 83.9467 255.478 84.256 255.872 84.48C256.267 84.6933 256.72 84.8 257.232 84.8C257.659 84.8 258.048 84.7253 258.4 84.576C258.763 84.4267 259.072 84.2027 259.328 83.904L260.256 84.848C259.894 85.2747 259.446 85.6 258.912 85.824C258.39 86.048 257.83 86.16 257.232 86.16ZM267.666 86V81.568C267.666 80.992 267.485 80.5173 267.122 80.144C266.76 79.7707 266.29 79.584 265.714 79.584C265.33 79.584 264.989 79.6693 264.69 79.84C264.392 80.0107 264.157 80.2453 263.986 80.544C263.816 80.8427 263.73 81.184 263.73 81.568L263.138 81.232C263.138 80.656 263.266 80.144 263.522 79.696C263.778 79.248 264.136 78.896 264.594 78.64C265.053 78.3733 265.57 78.24 266.146 78.24C266.722 78.24 267.229 78.384 267.666 78.672C268.114 78.96 268.466 79.3387 268.722 79.808C268.978 80.2667 269.106 80.7573 269.106 81.28V86H267.666ZM262.29 86V78.4H263.73V86H262.29ZM272.13 86V75.216H273.57V86H272.13ZM270.258 79.712V78.4H275.442V79.712H270.258ZM280.091 86.16C279.344 86.16 278.672 85.984 278.075 85.632C277.477 85.28 277.003 84.8053 276.651 84.208C276.299 83.6 276.123 82.9227 276.123 82.176C276.123 81.44 276.299 80.7787 276.651 80.192C277.003 79.5947 277.477 79.12 278.075 78.768C278.672 78.416 279.344 78.24 280.091 78.24C280.827 78.24 281.493 78.416 282.091 78.768C282.699 79.1093 283.179 79.5787 283.531 80.176C283.883 80.7733 284.059 81.44 284.059 82.176C284.059 82.9227 283.883 83.6 283.531 84.208C283.179 84.8053 282.699 85.28 282.091 85.632C281.493 85.984 280.827 86.16 280.091 86.16ZM280.091 84.768C280.571 84.768 280.997 84.656 281.371 84.432C281.744 84.208 282.037 83.904 282.251 83.52C282.464 83.1253 282.571 82.6773 282.571 82.176C282.571 81.6853 282.459 81.248 282.235 80.864C282.021 80.48 281.728 80.1813 281.355 79.968C280.992 79.744 280.571 79.632 280.091 79.632C279.611 79.632 279.184 79.744 278.811 79.968C278.437 80.1813 278.144 80.48 277.931 80.864C277.717 81.248 277.611 81.6853 277.611 82.176C277.611 82.6773 277.717 83.1253 277.931 83.52C278.144 83.904 278.437 84.208 278.811 84.432C279.184 84.656 279.611 84.768 280.091 84.768ZM288.097 86.16C287.67 86.16 287.265 86.1067 286.881 86C286.508 85.8827 286.161 85.7227 285.841 85.52C285.521 85.3067 285.244 85.056 285.009 84.768L285.937 83.84C286.214 84.1813 286.534 84.4373 286.897 84.608C287.26 84.768 287.665 84.848 288.113 84.848C288.561 84.848 288.908 84.7733 289.153 84.624C289.398 84.464 289.521 84.2453 289.521 83.968C289.521 83.6907 289.42 83.4773 289.217 83.328C289.025 83.168 288.774 83.04 288.465 82.944C288.156 82.8373 287.825 82.736 287.473 82.64C287.132 82.5333 286.806 82.4 286.497 82.24C286.188 82.08 285.932 81.8613 285.729 81.584C285.537 81.3067 285.441 80.9387 285.441 80.48C285.441 80.0213 285.553 79.6267 285.777 79.296C286.001 78.9547 286.31 78.6933 286.705 78.512C287.11 78.3307 287.596 78.24 288.161 78.24C288.758 78.24 289.286 78.3467 289.745 78.56C290.214 78.7627 290.598 79.072 290.897 79.488L289.969 80.416C289.756 80.1387 289.489 79.9253 289.169 79.776C288.86 79.6267 288.508 79.552 288.113 79.552C287.697 79.552 287.377 79.6267 287.153 79.776C286.94 79.9147 286.833 80.112 286.833 80.368C286.833 80.624 286.929 80.8213 287.121 80.96C287.313 81.0987 287.564 81.216 287.873 81.312C288.193 81.408 288.524 81.5093 288.865 81.616C289.206 81.712 289.532 81.8453 289.841 82.016C290.15 82.1867 290.401 82.416 290.593 82.704C290.796 82.992 290.897 83.3707 290.897 83.84C290.897 84.5547 290.641 85.12 290.129 85.536C289.628 85.952 288.95 86.16 288.097 86.16ZM293.773 86.16C293.474 86.16 293.224 86.0587 293.021 85.856C292.829 85.6427 292.733 85.392 292.733 85.104C292.733 84.8053 292.829 84.56 293.021 84.368C293.224 84.1653 293.474 84.064 293.773 84.064C294.072 84.064 294.317 84.1653 294.509 84.368C294.712 84.56 294.813 84.8053 294.813 85.104C294.813 85.392 294.712 85.6427 294.509 85.856C294.317 86.0587 294.072 86.16 293.773 86.16Z" fill="black"/>
<defs>
<filter id="filter0_d_0_1" x="0" y="0" width="349" height="128" filterUnits="userSpaceOnUse" color-interpolation-filters="sRGB">
<feFlood flood-opacity="0" result="BackgroundImageFix"/>
<feColorMatrix in="SourceAlpha" type="matrix" values="0 0 0 0 0 0 0 0 0 0 0 0 0 0 0 0 0 0 127 0" result="hardAlpha"/>
<feOffset dy="4"/>
<feGaussianBlur stdDeviation="2"/>
<feComposite in2="hardAlpha" operator="out"/>
<feColorMatrix type="matrix" values="0 0 0 0 0 0 0 0 0 0 0 0 0 0 0 0 0 0 0.25 0"/>
<feBlend mode="normal" in2="BackgroundImageFix" result="effect1_dropShadow_0_1"/>
<feBlend mode="normal" in="SourceGraphic" in2="effect1_dropShadow_0_1" result="shape"/>
</filter>
<linearGradient id="paint0_linear_0_1" x1="174.5" y1="0" x2="174.5" y2="120" gradientUnits="userSpaceOnUse">
<stop stop-color="#0025E7"/>
<stop offset="1" stop-color="#00D1FF"/>
</linearGradient>
<clipPath id="clip0_0_1">
<rect width="29" height="29" fill="white" transform="translate(30 45)"/>
</clipPath>
</defs>
</svg>
